{
classes = (
{
code = "one-ethiopic two-ethiopic three-ethiopic four-ethiopic five-ethiopic six-ethiopic seven-ethiopic eight-ethiopic nine-ethiopic ten-ethiopic twenty-ethiopic thirty-ethiopic forty-ethiopic fifty-ethiopic sixty-ethiopic seventy-ethiopic eighty-ethiopic ninety-ethiopic hundred-ethiopic tenthousand-ethiopic ";
name = Standard;
},
{
code = "one-ethiopic.medi two-ethiopic.medi three-ethiopic.medi four-ethiopic.medi five-ethiopic.medi six-ethiopic.medi seven-ethiopic.medi eight-ethiopic.medi nine-ethiopic.medi ten-ethiopic.medi twenty-ethiopic.medi thirty-ethiopic.medi forty-ethiopic.medi fifty-ethiopic.medi sixty-ethiopic.medi seventy-ethiopic.medi eighty-ethiopic.medi ninety-ethiopic.medi hundred-ethiopic.medi tenthousand-ethiopic.medi ";
name = Medial;
},
{
code = "one-ethiopic.init two-ethiopic.init three-ethiopic.init four-ethiopic.init five-ethiopic.init six-ethiopic.init seven-ethiopic.init eight-ethiopic.init nine-ethiopic.init ten-ethiopic.init twenty-ethiopic.init thirty-ethiopic.init forty-ethiopic.init fifty-ethiopic.init sixty-ethiopic.init seventy-ethiopic.init eighty-ethiopic.init ninety-ethiopic.init hundred-ethiopic.init tenthousand-ethiopic.init one-ethiopic.medi two-ethiopic.medi three-ethiopic.medi four-ethiopic.medi five-ethiopic.medi six-ethiopic.medi seven-ethiopic.medi eight-ethiopic.medi nine-ethiopic.medi ten-ethiopic.medi twenty-ethiopic.medi thirty-ethiopic.medi forty-ethiopic.medi fifty-ethiopic.medi sixty-ethiopic.medi seventy-ethiopic.medi eighty-ethiopic.medi ninety-ethiopic.medi hundred-ethiopic.medi tenthousand-ethiopic.medi ";
name = InitialMedial;
},
{

glyphs = (
{
color = 6;
glyphname = .notdef;
lastChange = "2015-12-18 15:28:53 +0000";
layers = (
{
layerId = "F44648F3-14F4-405A-9B69-DB2444BD1A35";
name = Light;
paths = (
{
closed = 1;
nodes = (
"496 0 LINE",
"496 714 LINE",
"85 714 LINE",
"85 0 LINE"
);
},
{
closed = 1;
nodes = (
"136 663 LINE",
"445 663 LINE",
"445 51 LINE",
"136 51 LINE"
);
}
);
width = 600;
},
{
layerId = "69591BDA-B7BB-4EAA-A50D-6786E2902B45";
name = Regular;
paths = (
{
closed = 1;
nodes = (
"505 0 LINE",
"505 714 LINE",
"94 714 LINE",
"94 0 LINE"
);
},
{
closed = 1;
nodes = (
"145 663 LINE",
"454 663 LINE",
"454 51 LINE",
"145 51 LINE"
);
}
);
width = 600;
},
{
layerId = "85A3B11B-C6C2-4ADD-AADC-206FDA180DDF";
name = SemiBold;
paths = (
{
closed = 1;
nodes = (
"505 0 LINE",
"505 714 LINE",
"94 714 LINE",
"94 0 LINE"
);
},
{
closed = 1;
nodes = (
"145 663 LINE",
"454 663 LINE",
"454 51 LINE",
"145 51 LINE"
);
}
);
width = 600;
},
{
layerId = "5D72C1FF-7D23-4150-B678-34DACF742A97";
name = Bold;
paths = (
{
closed = 1;
nodes = (
"496 0 LINE",
"496 714 LINE",
"85 714 LINE",
"85 0 LINE"
);
},
{
closed = 1;
nodes = (
"136 663 LINE",
"445 663 LINE",
"445 51 LINE",
"136 51 LINE"
);
}
);
width = 582;
},
{
layerId = "E4D2B44F-BF62-4CBA-BED8-29547F064017";
name = "Light Condensed";
paths = (
{
closed = 1;
nodes = (
"496 0 LINE",
"496 714 LINE",
"85 714 LINE",
"85 0 LINE"
);
},
{
closed = 1;
nodes = (
"136 663 LINE",
"445 663 LINE",
"445 51 LINE",
"136 51 LINE"
);
}
);
width = 600;
},
{
layerId = "0AADB627-CDB3-4A4A-B404-1AEF21746836";
name = Condensed;
paths = (
{
closed = 1;
nodes = (
"496 0 LINE",
"496 714 LINE",
"85 714 LINE",
"85 0 LINE"
);
},
{
closed = 1;
nodes = (
"136 663 LINE",
"445 663 LINE",
"445 51 LINE",
"136 51 LINE"
);
}
);
width = 595;
},
{
layerId = "F54E95EF-1D6D-47A7-87BE-6145FFFB0374";
name = "SemiBold Condensed";
paths = (
{
closed = 1;
nodes = (
"496 0 LINE",
"496 714 LINE",
"85 714 LINE",
"85 0 LINE"
);
},
{
closed = 1;
nodes = (
"136 663 LINE",
"445 663 LINE",
"445 51 LINE",
"136 51 LINE"
);
}
);
width = 588;
},
{
layerId = "9DAA8A68-E7B0-43B5-9380-0F5125A6FB33";
name = "Bold Condensed";
paths = (
{
closed = 1;
nodes = (
"496 0 LINE",
"496 714 LINE",
"85 714 LINE",
"85 0 LINE"
);
},
{
closed = 1;
nodes = (
"136 663 LINE",
"445 663 LINE",
"445 51 LINE",
"136 51 LINE"
);
}
);
width = 582;
}
);
},
{
color = 6;
export = 0;
glyphname = exclam;
lastChange = "2015-12-19 18:56:45 +0000";
layers = (
{
layerId = "F44648F3-14F4-405A-9B69-DB2444BD1A35";
name = Light;
paths = (
{
closed = 1;
nodes = (
"111 174 LINE",
"113 714 LINE",
"85 714 LINE",
"87 174 LINE"
);
},
{
closed = 1;
nodes = (
"121 -8 OFFCURVE",
"124 6 OFFCURVE",
"124 23 CURVE SMOOTH",
"124 39 OFFCURVE",
"121 54 OFFCURVE",
"97 54 CURVE SMOOTH",
"77 54 OFFCURVE",
"72 39 OFFCURVE",
"72 23 CURVE SMOOTH",
"72 6 OFFCURVE",
"77 -8 OFFCURVE",
"97 -8 CURVE SMOOTH"
);
}
);
width = 195;
},
{
layerId = "69591BDA-B7BB-4EAA-A50D-6786E2902B45";
name = Regular;
paths = (
{
closed = 1;
nodes = (
"163 201 LINE",
"188 714 LINE",
"81 714 LINE",
"106 201 LINE"
);
},
{
closed = 1;
nodes = (
"167 -14 OFFCURVE",
"196 6 OFFCURVE",
"196 54 CURVE SMOOTH",
"196 103 OFFCURVE",
"167 121 OFFCURVE",
"134 121 CURVE SMOOTH",
"99 121 OFFCURVE",
"72 103 OFFCURVE",
"72 54 CURVE SMOOTH",
"72 6 OFFCURVE",
"99 -14 OFFCURVE",
"134 -14 CURVE SMOOTH"
);
}
);
width = 269;
},
{
layerId = "85A3B11B-C6C2-4ADD-AADC-206FDA180DDF";
name = SemiBold;
paths = (
{
closed = 1;
nodes = (
"196 231 LINE",
"221 714 LINE",
"63 714 LINE",
"88 231 LINE"
);
},
{
closed = 1;
nodes = (
"185 -13 OFFCURVE",
"223 10 OFFCURVE",
"223 67 CURVE SMOOTH",
"223 126 OFFCURVE",
"185 148 OFFCURVE",
"142 148 CURVE SMOOTH",
"96 148 OFFCURVE",
"59 126 OFFCURVE",
"59 67 CURVE SMOOTH",
"59 10 OFFCURVE",
"96 -13 OFFCURVE",
"142 -13 CURVE SMOOTH"
);
}
);
width = 283;
},
{
layerId = "5D72C1FF-7D23-4150-B678-34DACF742A97";
name = Bold;
paths = (
{
closed = 1;
nodes = (
"227 252 LINE",
"252 714 LINE",
"40 714 LINE",
"65 252 LINE"
);
},
{
closed = 1;
nodes = (
"200 -12 OFFCURVE",
"246 15 OFFCURVE",
"246 81 CURVE SMOOTH",
"246 150 OFFCURVE",
"200 176 OFFCURVE",
"145 176 CURVE SMOOTH",
"89 176 OFFCURVE",
"42 150 OFFCURVE",
"42 81 CURVE SMOOTH",
"42 15 OFFCURVE",
"89 -12 OFFCURVE",
"145 -12 CURVE SMOOTH"
);
}
);
width = 290;
},
{
layerId = "E4D2B44F-BF62-4CBA-BED8-29547F064017";
name = "Light Condensed";
paths = (
{
closed = 1;
nodes = (
"109 170 LINE",
"114 714 LINE",
"83 714 LINE",
"86 170 LINE"
);
},
{
closed = 1;
nodes = (
"115 -6 OFFCURVE",
"123 7 OFFCURVE",
"123 30 CURVE SMOOTH",
"123 53 OFFCURVE",
"116 65 OFFCURVE",
"97 65 CURVE SMOOTH",
"77 65 OFFCURVE",
"72 49 OFFCURVE",
"72 30 CURVE SMOOTH",
"72 9 OFFCURVE",
"77 -6 OFFCURVE",
"97 -6 CURVE SMOOTH"
);
}
);
width = 194;
},
{
layerId = "0AADB627-CDB3-4A4A-B404-1AEF21746836";
name = Condensed;
paths = (
{
closed = 1;
nodes = (
"148 201 LINE",
"166 714 LINE",
"68 714 LINE",
"87 201 LINE"
);
},
{
closed = 1;
nodes = (
"149 -9 OFFCURVE",
"172 11 OFFCURVE",
"172 55 CURVE SMOOTH",
"172 100 OFFCURVE",
"151 119 OFFCURVE",
"118 119 CURVE SMOOTH",
"82 119 OFFCURVE",
"64 97 OFFCURVE",
"64 55 CURVE SMOOTH",
"64 13 OFFCURVE",
"83 -9 OFFCURVE",
"118 -9 CURVE SMOOTH"
);
}
);
width = 235;
},
{
layerId = "F54E95EF-1D6D-47A7-87BE-6145FFFB0374";
name = "SemiBold Condensed";
paths = (
{
closed = 1;
nodes = (
"177 227 LINE",
"198 714 LINE",
"55 714 LINE",
"76 227 LINE"
);
},
{
closed = 1;
nodes = (
"171 -11 OFFCURVE",
"200 17 OFFCURVE",
"200 68 CURVE SMOOTH",
"200 121 OFFCURVE",
"173 147 OFFCURVE",
"127 147 CURVE SMOOTH",
"78 147 OFFCURVE",
"53 120 OFFCURVE",
"53 68 CURVE SMOOTH",
"53 17 OFFCURVE",
"80 -11 OFFCURVE",
"127 -11 CURVE SMOOTH"
);
}
);
width = 253;
},
{
layerId = "9DAA8A68-E7B0-43B5-9380-0F5125A6FB33";
name = "Bold Condensed";
paths = (
{
closed = 1;
nodes = (
"207 253 LINE",
"230 714 LINE",
"42 714 LINE",
"66 253 LINE"
);
},
{
closed = 1;
nodes = (
"192 -12 OFFCURVE",
"227 22 OFFCURVE",
"227 81 CURVE SMOOTH",
"227 141 OFFCURVE",
"194 176 OFFCURVE",
"136 176 CURVE SMOOTH",
"75 176 OFFCURVE",
"43 141 OFFCURVE",
"43 81 CURVE SMOOTH",
"43 22 OFFCURVE",
"79 -12 OFFCURVE",
"136 -12 CURVE SMOOTH"
);
}
);
width = 271;
}
);
unicode = 0021;
},
{
color = 6;
export = 0;
glyphname = quotedbl;
lastChange = "2015-12-19 18:56:45 +0000";
layers = (
{
layerId = "F44648F3-14F4-405A-9B69-DB2444BD1A35";
name = Light;
paths = (
{
closed = 1;
nodes = (
"235 456 LINE",
"239 714 LINE",
"211 714 LINE",
"215 456 LINE"
);
},
{
closed = 1;
nodes = (
"89 456 LINE",
"93 714 LINE",
"65 714 LINE",
"69 456 LINE"
);
}
);
width = 304;
},
{
layerId = "69591BDA-B7BB-4EAA-A50D-6786E2902B45";
name = Regular;
paths = (
{
closed = 1;
nodes = (
"323 456 LINE",
"343 714 LINE",
"248 714 LINE",
"268 456 LINE"
);
},
{
closed = 1;
nodes = (
"140 456 LINE",
"160 714 LINE",
"65 714 LINE",
"85 456 LINE"
);
}
);
width = 408;
},
{
layerId = "85A3B11B-C6C2-4ADD-AADC-206FDA180DDF";
name = SemiBold;
paths = (
{
closed = 1;
nodes = (
"377 456 LINE",
"397 714 LINE",
"267 714 LINE",
"287 456 LINE"
);
},
{
closed = 1;
nodes = (
"174 456 LINE",
"194 714 LINE",
"65 714 LINE",
"85 456 LINE"
);
}
);
width = 462;
},
{
layerId = "5D72C1FF-7D23-4150-B678-34DACF742A97";
name = Bold;
paths = (
{
closed = 1;
nodes = (
"214 456 LINE",
"234 714 LINE",
"59 714 LINE",
"79 456 LINE"
);
},
{
closed = 1;
nodes = (
"446 456 LINE",
"466 714 LINE",
"292 714 LINE",
"312 456 LINE"
);
}
);
width = 525;
},
{
layerId = "E4D2B44F-BF62-4CBA-BED8-29547F064017";
name = "Light Condensed";
paths = (
{
closed = 1;
nodes = (
"223 456 LINE",
"228 714 LINE",
"196 714 LINE",
"201 456 LINE"
);
},
{
closed = 1;
nodes = (
"92 456 LINE",
"97 714 LINE",
"65 714 LINE",
"70 456 LINE"
);
}
);
width = 293;
},
{
layerId = "0AADB627-CDB3-4A4A-B404-1AEF21746836";
name = Condensed;
paths = (
{
closed = 1;
nodes = (
"306 456 LINE",
"322 714 LINE",
"228 714 LINE",
"245 456 LINE"
);
},
{
closed = 1;
nodes = (
"136 456 LINE",
"152 714 LINE",
"58 714 LINE",
"75 456 LINE"
);
}
);
width = 379;
},
{
layerId = "F54E95EF-1D6D-47A7-87BE-6145FFFB0374";
name = "SemiBold Condensed";
paths = (
{
closed = 1;
nodes = (
"366 456 LINE",
"385 714 LINE",
"250 714 LINE",
"268 456 LINE"
);
},
{
closed = 1;
nodes = (
"164 456 LINE",
"183 714 LINE",
"48 714 LINE",
"67 456 LINE"
);
}
);
width = 433;
},
{
layerId = "9DAA8A68-E7B0-43B5-9380-0F5125A6FB33";
name = "Bold Condensed";
paths = (
{
closed = 1;
nodes = (
"426 456 LINE",
"446 714 LINE",
"271 714 LINE",
"291 456 LINE"
);
},
{
closed = 1;
nodes = (
"194 456 LINE",
"214 714 LINE",
"39 714 LINE",
"59 456 LINE"
);
}
);
width = 485;
}
);
leftKerningGroup = quote.right;
rightKerningGroup = quote.left;
unicode = 0022;
},
{
color = 6;
export = 0;
glyphname = numbersign;
lastChange = "2015-12-19 18:56:45 +0000";
layers = (
{
layerId = "F44648F3-14F4-405A-9B69-DB2444BD1A35";
name = Light;
paths = (
{
closed = 1;
nodes = (
"144 0 LINE",
"188 227 LINE",
"387 227 LINE",
"343 0 LINE",
"368 0 LINE",
"412 227 LINE",
"569 227 LINE",
"569 251 LINE",
"416 251 LINE",
"457 462 LINE",
"608 462 LINE",
"608 486 LINE",
"461 486 LINE",
"505 714 LINE",
"480 714 LINE",
"436 486 LINE",
"237 486 LINE",
"281 714 LINE",
"256 714 LINE",
"212 486 LINE",
"57 486 LINE",
"57 462 LINE",
"208 462 LINE",
"167 251 LINE",
"18 251 LINE",
"18 227 LINE",
"163 227 LINE",
"119 0 LINE"
);
},
{
closed = 1;
nodes = (
"233 462 LINE",
"432 462 LINE",
"391 251 LINE",
"192 251 LINE"
);
}
);
width = 627;
},
{
layerId = "69591BDA-B7BB-4EAA-A50D-6786E2902B45";
name = Regular;
paths = (
{
closed = 1;
nodes = (
"183 0 LINE",
"222 209 LINE",
"365 209 LINE",
"324 0 LINE",
"395 0 LINE",
"436 209 LINE",
"586 209 LINE",
"586 276 LINE",
"449 276 LINE",
"480 436 LINE",
"620 436 LINE",
"620 502 LINE",
"493 502 LINE",
"533 714 LINE",
"464 714 LINE",
"424 502 LINE",
"280 502 LINE",
"320 714 LINE",
"248 714 LINE",
"208 502 LINE",
"62 502 LINE",
"62 436 LINE",
"196 436 LINE",
"164 276 LINE",
"25 276 LINE",
"25 209 LINE",
"151 209 LINE",
"113 0 LINE"
);
},
{
closed = 1;
nodes = (
"266 436 LINE",
"409 436 LINE",
"378 276 LINE",
"235 276 LINE"
);
}
);
width = 646;
},
{
layerId = "85A3B11B-C6C2-4ADD-AADC-206FDA180DDF";
name = SemiBold;
paths = (
{
closed = 1;
nodes = (
"203 0 LINE",
"240 200 LINE",
"343 200 LINE",
"305 0 LINE",
"406 0 LINE",
"444 200 LINE",
"590 200 LINE",
"590 295 LINE",
"462 295 LINE",
"487 416 LINE",
"623 416 LINE",
"623 512 LINE",
"505 512 LINE",
"543 713 LINE",
"444 713 LINE",
"406 512 LINE",
"301 512 LINE",
"339 713 LINE",
"238 713 LINE",
"200 512 LINE",
"58 512 LINE",
"58 416 LINE",
"183 416 LINE",
"158 295 LINE",
"22 295 LINE",
"22 200 LINE",
"140 200 LINE",
"104 0 LINE"
);
},
{
closed = 1;
nodes = (
"283 416 LINE",
"386 416 LINE",
"362 295 LINE",
"258 295 LINE"
);
}
);
width = 646;
},
{
layerId = "5D72C1FF-7D23-4150-B678-34DACF742A97";
name = Bold;
paths = (
{
closed = 1;
nodes = (
"223 0 LINE",
"258 191 LINE",
"340 191 LINE",
"304 0 LINE",
"436 0 LINE",
"472 191 LINE",
"614 191 LINE",
"614 315 LINE",
"495 315 LINE",
"510 397 LINE",
"645 397 LINE",
"645 524 LINE",
"533 524 LINE",
"569 714 LINE",
"437 714 LINE",
"402 524 LINE",
"321 524 LINE",
"357 714 LINE",
"226 714 LINE",
"191 524 LINE",
"51 524 LINE",
"51 397 LINE",
"167 397 LINE",
"152 315 LINE",
"18 315 LINE",
"18 191 LINE",
"128 191 LINE",
"93 0 LINE"
);
},
{
closed = 1;
nodes = (
"297 397 LINE",
"378 397 LINE",
"363 315 LINE",
"282 315 LINE"
);
}
);
width = 662;
},
{
layerId = "E4D2B44F-BF62-4CBA-BED8-29547F064017";
name = "Light Condensed";
paths = (
{
closed = 1;
nodes = (
"104 0 LINE",
"132 234 LINE",
"263 234 LINE",
"235 0 LINE",
"260 0 LINE",
"288 234 LINE",
"379 234 LINE",
"379 259 LINE",
"290 259 LINE",
"314 479 LINE",
"405 479 LINE",
"405 503 LINE",
"316 503 LINE",
"338 714 LINE",
"315 714 LINE",
"292 503 LINE",
"162 503 LINE",
"185 714 LINE",
"161 714 LINE",
"137 503 LINE",
"41 503 LINE",
"41 479 LINE",
"134 479 LINE",
"109 259 LINE",
"18 259 LINE",
"18 234 LINE",
"107 234 LINE",
"80 0 LINE"
);
},
{
closed = 1;
nodes = (
"159 479 LINE",
"290 479 LINE",
"266 259 LINE",
"134 259 LINE"
);
}
);
width = 424;
},
{
layerId = "0AADB627-CDB3-4A4A-B404-1AEF21746836";
name = Condensed;
paths = (
{
closed = 1;
nodes = (
"137 0 LINE",
"163 217 LINE",
"262 217 LINE",
"235 0 LINE",
"298 0 LINE",
"325 217 LINE",
"420 217 LINE",
"420 282 LINE",
"333 282 LINE",
"353 449 LINE",
"443 449 LINE",
"443 513 LINE",
"360 513 LINE",
"385 714 LINE",
"324 714 LINE",
"299 513 LINE",
"200 513 LINE",
"225 714 LINE",
"162 714 LINE",
"138 513 LINE",
"42 513 LINE",
"42 449 LINE",
"130 449 LINE",
"110 282 LINE",
"19 282 LINE",
"19 217 LINE",
"102 217 LINE",
"76 0 LINE"
);
},
{
closed = 1;
nodes = (
"192 449 LINE",
"291 449 LINE",
"270 282 LINE",
"172 282 LINE"
);
}
);
width = 460;
},
{
layerId = "F54E95EF-1D6D-47A7-87BE-6145FFFB0374";
name = "SemiBold Condensed";
paths = (
{
closed = 1;
nodes = (
"166 0 LINE",
"192 204 LINE",
"273 204 LINE",
"245 0 LINE",
"336 0 LINE",
"363 204 LINE",
"464 204 LINE",
"464 294 LINE",
"375 294 LINE",
"392 427 LINE",
"488 427 LINE",
"488 519 LINE",
"403 519 LINE",
"430 714 LINE",
"341 714 LINE",
"315 519 LINE",
"234 519 LINE",
"261 714 LINE",
"171 714 LINE",
"145 519 LINE",
"43 519 LINE",
"43 427 LINE",
"133 427 LINE",
"115 294 LINE",
"20 294 LINE",
"20 204 LINE",
"103 204 LINE",
"77 0 LINE"
);
},
{
closed = 1;
nodes = (
"223 427 LINE",
"303 427 LINE",
"285 294 LINE",
"205 294 LINE"
);
}
);
width = 503;
},
{
layerId = "9DAA8A68-E7B0-43B5-9380-0F5125A6FB33";
name = "Bold Condensed";
paths = (
{
closed = 1;
nodes = (
"195 0 LINE",
"222 191 LINE",
"284 191 LINE",
"256 0 LINE",
"374 0 LINE",
"402 191 LINE",
"509 191 LINE",
"509 305 LINE",
"417 305 LINE",
"432 407 LINE",
"533 407 LINE",
"533 524 LINE",
"447 524 LINE",
"475 714 LINE",
"357 714 LINE",
"330 524 LINE",
"269 524 LINE",
"297 714 LINE",
"180 714 LINE",
"152 524 LINE",
"45 524 LINE",
"45 407 LINE",
"136 407 LINE",
"121 305 LINE",
"21 305 LINE",
"21 191 LINE",
"105 191 LINE",
"78 0 LINE"
);
},
{
closed = 1;
nodes = (
"253 407 LINE",
"314 407 LINE",
"299 305 LINE",
"238 305 LINE"
);
}
);
width = 546;
}
);
unicode = 0023;
},
{
color = 6;
export = 0;
glyphname = dollar;
lastChange = "2015-12-19 18:56:45 +0000";
layers = (
{
layerId = "F44648F3-14F4-405A-9B69-DB2444BD1A35";
name = Light;
paths = (
{
closed = 1;
nodes = (
"250 -58 LINE",
"250 10 LINE",
"361 16 OFFCURVE",
"442 73 OFFCURVE",
"442 186 CURVE SMOOTH",
"442 292 OFFCURVE",
"362 329 OFFCURVE",
"250 370 CURVE",
"250 679 LINE",
"293 678 OFFCURVE",
"345 669 OFFCURVE",
"401 644 CURVE",
"412 667 LINE",
"358 692 OFFCURVE",
"303 703 OFFCURVE",
"250 704 CURVE",
"250 759 LINE",
"226 759 LINE",
"226 704 LINE",
"118 698 OFFCURVE",
"37 641 OFFCURVE",
"37 536 CURVE SMOOTH",
"37 428 OFFCURVE",
"123 392 OFFCURVE",
"226 353 CURVE",
"226 35 LINE",
"153 36 OFFCURVE",
"86 50 OFFCURVE",
"40 68 CURVE",
"40 39 LINE",
"82 25 OFFCURVE",
"142 11 OFFCURVE",
"226 10 CURVE",
"226 -58 LINE"
);
},
{
closed = 1;
nodes = (
"250 343 LINE",
"351 304 OFFCURVE",
"415 271 OFFCURVE",
"415 187 CURVE SMOOTH",
"415 87 OFFCURVE",
"345 40 OFFCURVE",
"250 35 CURVE"
);
},
{
closed = 1;
nodes = (
"141 411 OFFCURVE",
"64 445 OFFCURVE",
"64 538 CURVE SMOOTH",
"64 630 OFFCURVE",
"136 675 OFFCURVE",
"226 679 CURVE",
"226 379 LINE"
);
}
);
width = 478;
},
{
layerId = "69591BDA-B7BB-4EAA-A50D-6786E2902B45";
name = Regular;
paths = (
{
closed = 1;
nodes = (
"317 -58 LINE",
"317 53 LINE",
"444 66 OFFCURVE",
"516 127 OFFCURVE",
"516 220 CURVE SMOOTH",
"516 320 OFFCURVE",
"449 357 OFFCURVE",
"317 395 CURVE",
"317 596 LINE",
"370 592 OFFCURVE",
"423 578 OFFCURVE",
"466 561 CURVE",
"493 635 LINE",
"445 655 OFFCURVE",
"388 670 OFFCURVE",
"317 672 CURVE",
"317 759 LINE",
"253 759 LINE",
"253 671 LINE",
"136 664 OFFCURVE",
"62 606 OFFCURVE",
"62 508 CURVE SMOOTH",
"62 413 OFFCURVE",
"121 364 OFFCURVE",
"253 328 CURVE",
"253 126 LINE",
"185 127 OFFCURVE",
"107 146 OFFCURVE",
"62 167 CURVE",
"62 82 LINE",
"105 62 OFFCURVE",
"179 50 OFFCURVE",
"253 49 CURVE",
"253 -58 LINE"
);
},
{
closed = 1;
nodes = (
"317 307 LINE",
"404 285 OFFCURVE",
"430 264 OFFCURVE",
"430 214 CURVE SMOOTH",
"430 169 OFFCURVE",
"395 139 OFFCURVE",
"317 131 CURVE"
);
},
{
closed = 1;
nodes = (
"173 437 OFFCURVE",
"148 462 OFFCURVE",
"148 515 CURVE SMOOTH",
"148 559 OFFCURVE",
"181 589 OFFCURVE",
"253 594 CURVE",
"253 417 LINE"
);
}
);
width = 572;
},
{
layerId = "85A3B11B-C6C2-4ADD-AADC-206FDA180DDF";
name = SemiBold;
paths = (
{
closed = 1;
nodes = (
"320 -58 LINE",
"320 44 LINE",
"460 57 OFFCURVE",
"530 126 OFFCURVE",
"530 223 CURVE SMOOTH",
"530 337 OFFCURVE",
"431 377 OFFCURVE",
"320 417 CURVE",
"320 570 LINE",
"367 566 OFFCURVE",
"423 554 OFFCURVE",
"474 533 CURVE",
"517 640 LINE",
"457 667 OFFCURVE",
"394 681 OFFCURVE",
"320 684 CURVE",
"320 759 LINE",
"253 759 LINE",
"253 682 LINE",
"130 672 OFFCURVE",
"46 611 OFFCURVE",
"46 511 CURVE SMOOTH",
"46 414 OFFCURVE",
"102 366 OFFCURVE",
"253 310 CURVE",
"253 150 LINE",
"183 154 OFFCURVE",
"100 178 OFFCURVE",
"47 204 CURVE",
"47 82 LINE",
"101 58 OFFCURVE",
"168 43 OFFCURVE",
"253 41 CURVE",
"253 -58 LINE"
);
},
{
closed = 1;
nodes = (
"320 284 LINE",
"371 264 OFFCURVE",
"393 246 OFFCURVE",
"393 216 CURVE SMOOTH",
"393 182 OFFCURVE",
"370 162 OFFCURVE",
"320 154 CURVE"
);
},
{
closed = 1;
nodes = (
"203 463 OFFCURVE",
"183 480 OFFCURVE",
"183 512 CURVE SMOOTH",
"183 543 OFFCURVE",
"208 562 OFFCURVE",
"253 568 CURVE",
"253 443 LINE"
);
}
);
width = 572;
},
{
layerId = "5D72C1FF-7D23-4150-B678-34DACF742A97";
name = Bold;
paths = (
{
closed = 1;
nodes = (
"334 -58 LINE",
"334 24 LINE",
"487 40 OFFCURVE",
"555 122 OFFCURVE",
"555 230 CURVE SMOOTH",
"555 348 OFFCURVE",
"474 388 OFFCURVE",
"334 430 CURVE",
"334 551 LINE",
"388 546 OFFCURVE",
"444 533 OFFCURVE",
"492 512 CURVE",
"535 646 LINE",
"482 668 OFFCURVE",
"416 688 OFFCURVE",
"334 692 CURVE",
"334 760 LINE",
"242 760 LINE",
"242 691 LINE",
"112 682 OFFCURVE",
"26 623 OFFCURVE",
"26 502 CURVE SMOOTH",
"26 373 OFFCURVE",
"119 324 OFFCURVE",
"242 289 CURVE",
"242 166 LINE",
"181 171 OFFCURVE",
"105 188 OFFCURVE",
"42 216 CURVE",
"42 63 LINE",
"98 39 OFFCURVE",
"156 24 OFFCURVE",
"242 22 CURVE",
"242 -58 LINE"
);
},
{
closed = 1;
nodes = (
"334 266 LINE",
"378 252 OFFCURVE",
"391 239 OFFCURVE",
"391 214 CURVE SMOOTH",
"391 189 OFFCURVE",
"373 174 OFFCURVE",
"334 168 CURVE"
);
},
{
closed = 1;
nodes = (
"202 470 OFFCURVE",
"187 484 OFFCURVE",
"187 509 CURVE SMOOTH",
"187 532 OFFCURVE",
"206 547 OFFCURVE",
"242 550 CURVE",
"242 457 LINE"
);
}
);
width = 577;
},
{
layerId = "E4D2B44F-BF62-4CBA-BED8-29547F064017";
name = "Light Condensed";
paths = (
{
closed = 1;
nodes = (
"207 -58 LINE",
"207 22 LINE",
"313 32 OFFCURVE",
"369 96 OFFCURVE",
"369 188 CURVE SMOOTH",
"369 273 OFFCURVE",
"317 320 OFFCURVE",
"207 371 CURVE",
"207 681 LINE",
"251 681 OFFCURVE",
"290 668 OFFCURVE",
"326 647 CURVE",
"338 672 LINE",
"299 694 OFFCURVE",
"256 706 OFFCURVE",
"207 707 CURVE",
"207 760 LINE",
"183 760 LINE",
"183 706 LINE",
"99 700 OFFCURVE",
"37 636 OFFCURVE",
"37 538 CURVE SMOOTH",
"37 444 OFFCURVE",
"94 398 OFFCURVE",
"183 354 CURVE",
"183 47 LINE",
"137 47 OFFCURVE",
"75 65 OFFCURVE",
"39 83 CURVE",
"39 54 LINE",
"73 38 OFFCURVE",
"130 23 OFFCURVE",
"183 21 CURVE",
"183 -58 LINE"
);
},
{
closed = 1;
nodes = (
"207 343 LINE",
"301 296 OFFCURVE",
"343 260 OFFCURVE",
"343 187 CURVE SMOOTH",
"343 102 OFFCURVE",
"287 53 OFFCURVE",
"207 48 CURVE"
);
},
{
closed = 1;
nodes = (
"109 421 OFFCURVE",
"64 457 OFFCURVE",
"64 537 CURVE SMOOTH",
"64 623 OFFCURVE",
"116 674 OFFCURVE",
"183 680 CURVE",
"183 383 LINE"
);
}
);
width = 405;
},
{
layerId = "0AADB627-CDB3-4A4A-B404-1AEF21746836";
name = Condensed;
paths = (
{
closed = 1;
nodes = (
"239 -58 LINE",
"239 56 LINE",
"335 72 OFFCURVE",
"390 135 OFFCURVE",
"390 222 CURVE SMOOTH",
"390 308 OFFCURVE",
"340 350 OFFCURVE",
"239 392 CURVE",
"239 607 LINE",
"283 604 OFFCURVE",
"319 595 OFFCURVE",
"354 577 CURVE",
"377 642 LINE",
"335 663 OFFCURVE",
"290 674 OFFCURVE",
"239 677 CURVE",
"239 760 LINE",
"190 760 LINE",
"190 675 LINE",
"100 666 OFFCURVE",
"40 603 OFFCURVE",
"40 511 CURVE SMOOTH",
"40 423 OFFCURVE",
"82 378 OFFCURVE",
"190 335 CURVE",
"190 120 LINE",
"133 122 OFFCURVE",
"78 140 OFFCURVE",
"41 163 CURVE",
"41 85 LINE",
"78 66 OFFCURVE",
"130 53 OFFCURVE",
"190 52 CURVE",
"190 -58 LINE"
);
},
{
closed = 1;
nodes = (
"239 315 LINE",
"295 291 OFFCURVE",
"319 264 OFFCURVE",
"319 217 CURVE SMOOTH",
"319 171 OFFCURVE",
"292 135 OFFCURVE",
"239 124 CURVE"
);
},
{
closed = 1;
nodes = (
"132 439 OFFCURVE",
"112 461 OFFCURVE",
"112 513 CURVE SMOOTH",
"112 562 OFFCURVE",
"140 598 OFFCURVE",
"190 606 CURVE",
"190 413 LINE"
);
}
);
width = 429;
},
{
layerId = "F54E95EF-1D6D-47A7-87BE-6145FFFB0374";
name = "SemiBold Condensed";
paths = (
{
closed = 1;
nodes = (
"264 -58 LINE",
"264 46 LINE",
"364 64 OFFCURVE",
"421 134 OFFCURVE",
"421 228 CURVE SMOOTH",
"421 320 OFFCURVE",
"371 365 OFFCURVE",
"264 407 CURVE",
"264 585 LINE",
"304 581 OFFCURVE",
"343 570 OFFCURVE",
"379 550 CURVE",
"408 644 LINE",
"363 668 OFFCURVE",
"313 682 OFFCURVE",
"264 685 CURVE",
"264 759 LINE",
"203 759 LINE",
"203 683 LINE",
"108 672 OFFCURVE",
"43 611 OFFCURVE",
"43 511 CURVE SMOOTH",
"43 417 OFFCURVE",
"93 366 OFFCURVE",
"203 322 CURVE",
"203 138 LINE",
"149 140 OFFCURVE",
"89 164 OFFCURVE",
"46 192 CURVE",
"46 80 LINE",
"91 58 OFFCURVE",
"148 45 OFFCURVE",
"203 43 CURVE",
"203 -58 LINE"
);
},
{
closed = 1;
nodes = (
"264 297 LINE",
"303 278 OFFCURVE",
"322 256 OFFCURVE",
"322 220 CURVE SMOOTH",
"322 184 OFFCURVE",
"304 156 OFFCURVE",
"264 145 CURVE"
);
},
{
closed = 1;
nodes = (
"160 454 OFFCURVE",
"144 473 OFFCURVE",
"144 510 CURVE SMOOTH",
"144 549 OFFCURVE",
"162 576 OFFCURVE",
"203 584 CURVE",
"203 433 LINE"
);
}
);
width = 462;
},
{
layerId = "9DAA8A68-E7B0-43B5-9380-0F5125A6FB33";
name = "Bold Condensed";
paths = (
{
closed = 1;
nodes = (
"288 -58 LINE",
"288 37 LINE",
"393 58 OFFCURVE",
"452 134 OFFCURVE",
"452 233 CURVE SMOOTH",
"452 331 OFFCURVE",
"402 380 OFFCURVE",
"288 423 CURVE",
"288 564 LINE",
"324 559 OFFCURVE",
"368 546 OFFCURVE",
"405 523 CURVE",
"439 645 LINE",
"390 672 OFFCURVE",
"336 688 OFFCURVE",
"288 692 CURVE",
"288 759 LINE",
"217 759 LINE",
"217 691 LINE",
"116 677 OFFCURVE",
"45 619 OFFCURVE",
"45 510 CURVE SMOOTH",
"45 412 OFFCURVE",
"104 355 OFFCURVE",
"217 309 CURVE",
"217 155 LINE",
"164 157 OFFCURVE",
"100 188 OFFCURVE",
"51 221 CURVE",
"51 76 LINE",
"102 52 OFFCURVE",
"164 37 OFFCURVE",
"217 33 CURVE",
"217 -58 LINE"
);
},
{
closed = 1;
nodes = (
"288 278 LINE",
"312 264 OFFCURVE",
"325 247 OFFCURVE",
"325 223 CURVE SMOOTH",
"325 196 OFFCURVE",
"316 176 OFFCURVE",
"288 165 CURVE"
);
},
{
closed = 1;
nodes = (
"188 469 OFFCURVE",
"176 485 OFFCURVE",
"176 507 CURVE SMOOTH",
"176 535 OFFCURVE",
"184 555 OFFCURVE",
"217 563 CURVE",
"217 453 LINE"
);
}
);
width = 496;
}
);
unicode = 0024;
},
{
color = 6;
export = 0;
glyphname = percent;
lastChange = "2015-12-19 18:56:45 +0000";
layers = (
{
layerId = "F44648F3-14F4-405A-9B69-DB2444BD1A35";
name = Light;
paths = (
{
closed = 1;
nodes = (
"200 0 LINE",
"596 714 LINE",
"568 714 LINE",
"172 0 LINE"
);
},
{
closed = 1;
nodes = (
"268 276 OFFCURVE",
"320 350 OFFCURVE",
"320 501 CURVE SMOOTH",
"320 646 OFFCURVE",
"276 724 OFFCURVE",
"184 724 CURVE SMOOTH",
"99 724 OFFCURVE",
"46 649 OFFCURVE",
"46 501 CURVE SMOOTH",
"46 353 OFFCURVE",
"94 276 OFFCURVE",
"182 276 CURVE SMOOTH"
);
},
{
closed = 1;
nodes = (
"112 301 OFFCURVE",
"73 369 OFFCURVE",
"73 501 CURVE SMOOTH",
"73 634 OFFCURVE",
"114 699 OFFCURVE",
"184 699 CURVE SMOOTH",
"260 699 OFFCURVE",
"293 629 OFFCURVE",
"293 501 CURVE SMOOTH",
"293 371 OFFCURVE",
"256 301 OFFCURVE",
"182 301 CURVE SMOOTH"
);
},
{
closed = 1;
nodes = (
"669 -10 OFFCURVE",
"721 64 OFFCURVE",
"721 215 CURVE SMOOTH",
"721 360 OFFCURVE",
"677 438 OFFCURVE",
"585 438 CURVE SMOOTH",
"500 438 OFFCURVE",
"447 363 OFFCURVE",
"447 215 CURVE SMOOTH",
"447 67 OFFCURVE",
"495 -10 OFFCURVE",
"583 -10 CURVE SMOOTH"
);
},
{
closed = 1;
nodes = (
"513 15 OFFCURVE",
"474 83 OFFCURVE",
"474 215 CURVE SMOOTH",
"474 348 OFFCURVE",
"515 413 OFFCURVE",
"585 413 CURVE SMOOTH",
"661 413 OFFCURVE",
"694 343 OFFCURVE",
"694 215 CURVE SMOOTH",
"694 85 OFFCURVE",
"657 15 OFFCURVE",
"583 15 CURVE SMOOTH"
);
}
);
width = 766;
},
{
layerId = "69591BDA-B7BB-4EAA-A50D-6786E2902B45";
name = Regular;
paths = (
{
closed = 1;
nodes = (
"256 0 LINE",
"652 714 LINE",
"575 714 LINE",
"179 0 LINE"
);
},
{
closed = 1;
nodes = (
"298 276 OFFCURVE",
"345 360 OFFCURVE",
"345 501 CURVE SMOOTH",
"345 642 OFFCURVE",
"293 724 OFFCURVE",
"195 724 CURVE SMOOTH",
"94 724 OFFCURVE",
"49 642 OFFCURVE",
"49 501 CURVE SMOOTH",
"49 360 OFFCURVE",
"100 276 OFFCURVE",
"195 276 CURVE SMOOTH"
);
},
{
closed = 1;
nodes = (
"144 339 OFFCURVE",
"122 394 OFFCURVE",
"122 501 CURVE SMOOTH",
"122 608 OFFCURVE",
"144 662 OFFCURVE",
"195 662 CURVE SMOOTH",
"247 662 OFFCURVE",
"272 608 OFFCURVE",
"272 501 CURVE SMOOTH",
"272 393 OFFCURVE",
"247 339 OFFCURVE",
"195 339 CURVE SMOOTH"
);
},
{
closed = 1;
nodes = (
"735 -10 OFFCURVE",
"782 74 OFFCURVE",
"782 215 CURVE SMOOTH",
"782 356 OFFCURVE",
"729 438 OFFCURVE",
"632 438 CURVE SMOOTH",
"531 438 OFFCURVE",
"486 356 OFFCURVE",
"486 215 CURVE SMOOTH",
"486 74 OFFCURVE",
"537 -10 OFFCURVE",
"632 -10 CURVE SMOOTH"
);
},
{
closed = 1;
nodes = (
"581 53 OFFCURVE",
"559 107 OFFCURVE",
"559 215 CURVE SMOOTH",
"559 322 OFFCURVE",
"581 375 OFFCURVE",
"632 375 CURVE SMOOTH",
"684 375 OFFCURVE",
"709 322 OFFCURVE",
"709 215 CURVE SMOOTH",
"709 106 OFFCURVE",
"684 53 OFFCURVE",
"632 53 CURVE SMOOTH"
);
}
);
width = 831;
},
{
layerId = "85A3B11B-C6C2-4ADD-AADC-206FDA180DDF";
name = SemiBold;
paths = (
{
closed = 1;
nodes = (
"301 0 LINE",
"697 714 LINE",
"587 714 LINE",
"191 0 LINE"
);
},
{
closed = 1;
nodes = (
"315 276 OFFCURVE",
"366 360 OFFCURVE",
"366 501 CURVE SMOOTH",
"366 642 OFFCURVE",
"308 724 OFFCURVE",
"198 724 CURVE SMOOTH",
"84 724 OFFCURVE",
"34 642 OFFCURVE",
"34 501 CURVE SMOOTH",
"34 360 OFFCURVE",
"91 276 OFFCURVE",
"198 276 CURVE SMOOTH"
);
},
{
closed = 1;
nodes = (
"164 371 OFFCURVE",
"149 414 OFFCURVE",
"149 500 CURVE SMOOTH",
"149 586 OFFCURVE",
"164 629 OFFCURVE",
"199 629 CURVE SMOOTH",
"234 629 OFFCURVE",
"251 586 OFFCURVE",
"251 500 CURVE SMOOTH",
"251 413 OFFCURVE",
"234 371 OFFCURVE",
"199 371 CURVE SMOOTH"
);
},
{
closed = 1;
nodes = (
"804 -9 OFFCURVE",
"856 75 OFFCURVE",
"856 216 CURVE SMOOTH",
"856 357 OFFCURVE",
"798 439 OFFCURVE",
"688 439 CURVE SMOOTH",
"574 439 OFFCURVE",
"524 357 OFFCURVE",
"524 216 CURVE SMOOTH",
"524 75 OFFCURVE",
"580 -9 OFFCURVE",
"688 -9 CURVE SMOOTH"
);
},
{
closed = 1;
nodes = (
"654 86 OFFCURVE",
"638 129 OFFCURVE",
"638 215 CURVE SMOOTH",
"638 301 OFFCURVE",
"654 343 OFFCURVE",
"689 343 CURVE SMOOTH",
"724 343 OFFCURVE",
"741 301 OFFCURVE",
"741 215 CURVE SMOOTH",
"741 128 OFFCURVE",
"724 86 OFFCURVE",
"689 86 CURVE SMOOTH"
);
}
);
width = 890;
},
{
layerId = "5D72C1FF-7D23-4150-B678-34DACF742A97";
name = Bold;
paths = (
{
closed = 1;
nodes = (
"347 0 LINE",
"743 714 LINE",
"597 714 LINE",
"201 0 LINE"
);
},
{
closed = 1;
nodes = (
"321 276 OFFCURVE",
"386 360 OFFCURVE",
"386 501 CURVE SMOOTH",
"386 642 OFFCURVE",
"312 724 OFFCURVE",
"200 724 CURVE SMOOTH",
"83 724 OFFCURVE",
"18 642 OFFCURVE",
"18 501 CURVE SMOOTH",
"18 360 OFFCURVE",
"91 276 OFFCURVE",
"200 276 CURVE SMOOTH"
);
},
{
closed = 1;
nodes = (
"174 393 OFFCURVE",
"165 435 OFFCURVE",
"165 499 CURVE SMOOTH",
"165 564 OFFCURVE",
"174 605 OFFCURVE",
"202 605 CURVE SMOOTH",
"230 605 OFFCURVE",
"239 564 OFFCURVE",
"239 499 CURVE SMOOTH",
"239 434 OFFCURVE",
"230 393 OFFCURVE",
"202 393 CURVE SMOOTH"
);
},
{
closed = 1;
nodes = (
"865 -8 OFFCURVE",
"931 76 OFFCURVE",
"931 217 CURVE SMOOTH",
"931 358 OFFCURVE",
"856 440 OFFCURVE",
"744 440 CURVE SMOOTH",
"627 440 OFFCURVE",
"562 358 OFFCURVE",
"562 217 CURVE SMOOTH",
"562 76 OFFCURVE",
"635 -8 OFFCURVE",
"744 -8 CURVE SMOOTH"
);
},
{
closed = 1;
nodes = (
"718 109 OFFCURVE",
"709 151 OFFCURVE",
"709 215 CURVE SMOOTH",
"709 280 OFFCURVE",
"718 321 OFFCURVE",
"746 321 CURVE SMOOTH",
"774 321 OFFCURVE",
"783 282 OFFCURVE",
"783 215 CURVE SMOOTH",
"783 150 OFFCURVE",
"774 109 OFFCURVE",
"746 109 CURVE SMOOTH"
);
}
);
width = 949;
},
{
layerId = "E4D2B44F-BF62-4CBA-BED8-29547F064017";
name = "Light Condensed";
paths = (
{
closed = 1;
nodes = (
"182 0 LINE",
"415 714 LINE",
"390 714 LINE",
"157 0 LINE"
);
},
{
closed = 1;
nodes = (
"206 276 OFFCURVE",
"239 354 OFFCURVE",
"239 501 CURVE SMOOTH",
"239 653 OFFCURVE",
"205 724 OFFCURVE",
"141 724 CURVE SMOOTH",
"75 724 OFFCURVE",
"46 645 OFFCURVE",
"46 502 CURVE SMOOTH",
"46 354 OFFCURVE",
"77 276 OFFCURVE",
"142 276 CURVE SMOOTH"
);
},
{
closed = 1;
nodes = (
"96 300 OFFCURVE",
"70 367 OFFCURVE",
"70 501 CURVE SMOOTH",
"70 637 OFFCURVE",
"97 703 OFFCURVE",
"142 703 CURVE SMOOTH",
"189 703 OFFCURVE",
"214 633 OFFCURVE",
"214 501 CURVE SMOOTH",
"214 369 OFFCURVE",
"189 300 OFFCURVE",
"142 300 CURVE SMOOTH"
);
},
{
closed = 1;
nodes = (
"490 -9 OFFCURVE",
"527 59 OFFCURVE",
"527 216 CURVE SMOOTH",
"527 368 OFFCURVE",
"492 439 OFFCURVE",
"430 439 CURVE SMOOTH",
"368 439 OFFCURVE",
"334 366 OFFCURVE",
"334 217 CURVE SMOOTH",
"334 54 OFFCURVE",
"374 -9 OFFCURVE",
"431 -9 CURVE SMOOTH"
);
},
{
closed = 1;
nodes = (
"383 14 OFFCURVE",
"358 85 OFFCURVE",
"358 215 CURVE SMOOTH",
"358 351 OFFCURVE",
"385 418 OFFCURVE",
"430 418 CURVE SMOOTH",
"477 418 OFFCURVE",
"502 348 OFFCURVE",
"502 215 CURVE SMOOTH",
"502 90 OFFCURVE",
"480 14 OFFCURVE",
"431 14 CURVE SMOOTH"
);
}
);
width = 572;
},
{
layerId = "0AADB627-CDB3-4A4A-B404-1AEF21746836";
name = Condensed;
paths = (
{
closed = 1;
nodes = (
"239 0 LINE",
"489 714 LINE",
"423 714 LINE",
"173 0 LINE"
);
},
{
closed = 1;
nodes = (
"230 276 OFFCURVE",
"273 358 OFFCURVE",
"273 501 CURVE SMOOTH",
"273 644 OFFCURVE",
"230 724 OFFCURVE",
"156 724 CURVE SMOOTH",
"80 724 OFFCURVE",
"40 645 OFFCURVE",
"40 501 CURVE SMOOTH",
"40 359 OFFCURVE",
"81 276 OFFCURVE",
"156 276 CURVE SMOOTH"
);
},
{
closed = 1;
nodes = (
"120 337 OFFCURVE",
"107 391 OFFCURVE",
"107 501 CURVE SMOOTH",
"107 610 OFFCURVE",
"120 664 OFFCURVE",
"155 664 CURVE SMOOTH",
"188 664 OFFCURVE",
"205 611 OFFCURVE",
"205 501 CURVE SMOOTH",
"205 390 OFFCURVE",
"190 337 OFFCURVE",
"156 337 CURVE SMOOTH"
);
},
{
closed = 1;
nodes = (
"582 -9 OFFCURVE",
"625 71 OFFCURVE",
"625 216 CURVE SMOOTH",
"625 359 OFFCURVE",
"582 439 OFFCURVE",
"508 439 CURVE SMOOTH",
"433 439 OFFCURVE",
"392 363 OFFCURVE",
"392 216 CURVE SMOOTH",
"392 75 OFFCURVE",
"433 -9 OFFCURVE",
"508 -9 CURVE SMOOTH"
);
},
{
closed = 1;
nodes = (
"472 52 OFFCURVE",
"459 106 OFFCURVE",
"459 216 CURVE SMOOTH",
"459 325 OFFCURVE",
"472 379 OFFCURVE",
"507 379 CURVE SMOOTH",
"540 379 OFFCURVE",
"556 322 OFFCURVE",
"556 216 CURVE SMOOTH",
"556 108 OFFCURVE",
"543 52 OFFCURVE",
"508 52 CURVE SMOOTH"
);
}
);
width = 664;
},
{
layerId = "F54E95EF-1D6D-47A7-87BE-6145FFFB0374";
name = "SemiBold Condensed";
paths = (
{
closed = 1;
nodes = (
"287 0 LINE",
"558 714 LINE",
"465 714 LINE",
"193 0 LINE"
);
},
{
closed = 1;
nodes = (
"257 276 OFFCURVE",
"307 358 OFFCURVE",
"307 501 CURVE SMOOTH",
"307 641 OFFCURVE",
"254 724 OFFCURVE",
"169 724 CURVE SMOOTH",
"81 724 OFFCURVE",
"32 644 OFFCURVE",
"32 501 CURVE SMOOTH",
"32 362 OFFCURVE",
"83 276 OFFCURVE",
"169 276 CURVE SMOOTH"
);
},
{
closed = 1;
nodes = (
"141 362 OFFCURVE",
"128 406 OFFCURVE",
"128 500 CURVE SMOOTH",
"128 592 OFFCURVE",
"141 637 OFFCURVE",
"169 637 CURVE SMOOTH",
"197 637 OFFCURVE",
"211 593 OFFCURVE",
"211 500 CURVE SMOOTH",
"211 405 OFFCURVE",
"198 362 OFFCURVE",
"170 362 CURVE SMOOTH"
);
},
{
closed = 1;
nodes = (
"671 -9 OFFCURVE",
"722 73 OFFCURVE",
"722 216 CURVE SMOOTH",
"722 356 OFFCURVE",
"669 439 OFFCURVE",
"583 439 CURVE SMOOTH",
"496 439 OFFCURVE",
"446 361 OFFCURVE",
"446 216 CURVE SMOOTH",
"446 78 OFFCURVE",
"497 -9 OFFCURVE",
"583 -9 CURVE SMOOTH"
);
},
{
closed = 1;
nodes = (
"555 78 OFFCURVE",
"543 122 OFFCURVE",
"543 215 CURVE SMOOTH",
"543 307 OFFCURVE",
"555 353 OFFCURVE",
"583 353 CURVE SMOOTH",
"613 353 OFFCURVE",
"625 302 OFFCURVE",
"625 215 CURVE SMOOTH",
"625 128 OFFCURVE",
"614 78 OFFCURVE",
"584 78 CURVE SMOOTH"
);
}
);
width = 753;
},
{
layerId = "9DAA8A68-E7B0-43B5-9380-0F5125A6FB33";
name = "Bold Condensed";
paths = (
{
closed = 1;
nodes = (
"333 0 LINE",
"626 714 LINE",
"506 714 LINE",
"212 0 LINE"
);
},
{
closed = 1;
nodes = (
"284 276 OFFCURVE",
"342 358 OFFCURVE",
"342 501 CURVE SMOOTH",
"342 637 OFFCURVE",
"278 724 OFFCURVE",
"181 724 CURVE SMOOTH",
"82 724 OFFCURVE",
"24 644 OFFCURVE",
"24 501 CURVE SMOOTH",
"24 364 OFFCURVE",
"84 276 OFFCURVE",
"181 276 CURVE SMOOTH"
);
},
{
closed = 1;
nodes = (
"160 386 OFFCURVE",
"148 421 OFFCURVE",
"148 499 CURVE SMOOTH",
"148 575 OFFCURVE",
"160 611 OFFCURVE",
"183 611 CURVE SMOOTH",
"206 611 OFFCURVE",
"217 577 OFFCURVE",
"217 499 CURVE SMOOTH",
"217 420 OFFCURVE",
"206 386 OFFCURVE",
"183 386 CURVE SMOOTH"
);
},
{
closed = 1;
nodes = (
"759 -8 OFFCURVE",
"817 74 OFFCURVE",
"817 217 CURVE SMOOTH",
"817 353 OFFCURVE",
"755 440 OFFCURVE",
"657 440 CURVE SMOOTH",
"557 440 OFFCURVE",
"500 360 OFFCURVE",
"500 217 CURVE SMOOTH",
"500 80 OFFCURVE",
"559 -8 OFFCURVE",
"657 -8 CURVE SMOOTH"
);
},
{
closed = 1;
nodes = (
"636 102 OFFCURVE",
"625 137 OFFCURVE",
"625 215 CURVE SMOOTH",
"625 291 OFFCURVE",
"636 327 OFFCURVE",
"659 327 CURVE SMOOTH",
"684 327 OFFCURVE",
"692 283 OFFCURVE",
"692 215 CURVE SMOOTH",
"692 147 OFFCURVE",
"684 102 OFFCURVE",
"658 102 CURVE SMOOTH"
);
}
);
width = 842;
}
);
unicode = 0025;
},
{
color = 6;
export = 0;
glyphname = ampersand;
lastChange = "2015-12-19 18:56:45 +0000";
layers = (
{
layerId = "F44648F3-14F4-405A-9B69-DB2444BD1A35";
name = Light;
paths = (
{
closed = 1;
nodes = (
"369 -10 OFFCURVE",
"440 38 OFFCURVE",
"502 105 CURVE",
"601 0 LINE",
"636 0 LINE",
"518 122 LINE",
"563 180 OFFCURVE",
"599 246 OFFCURVE",
"618 328 CURVE",
"591 328 LINE",
"575 254 OFFCURVE",
"541 189 OFFCURVE",
"501 141 CURVE",
"258 388 LINE",
"362 438 OFFCURVE",
"429 489 OFFCURVE",
"429 581 CURVE SMOOTH",
"429 670 OFFCURVE",
"364 725 OFFCURVE",
"273 725 CURVE SMOOTH",
"175 725 OFFCURVE",
"108 666 OFFCURVE",
"108 576 CURVE SMOOTH",
"108 507 OFFCURVE",
"145 465 OFFCURVE",
"215 395 CURVE",
"98 339 OFFCURVE",
"32 291 OFFCURVE",
"32 179 CURVE SMOOTH",
"32 57 OFFCURVE",
"122 -10 OFFCURVE",
"250 -10 CURVE SMOOTH"
);
},
{
closed = 1;
nodes = (
"136 15 OFFCURVE",
"59 74 OFFCURVE",
"59 179 CURVE SMOOTH",
"59 282 OFFCURVE",
"120 324 OFFCURVE",
"233 377 CURVE",
"485 122 LINE",
"424 56 OFFCURVE",
"360 15 OFFCURVE",
"250 15 CURVE SMOOTH"
);
},
{
closed = 1;
nodes = (
"172 472 OFFCURVE",
"135 515 OFFCURVE",
"135 576 CURVE SMOOTH",
"135 652 OFFCURVE",
"187 700 OFFCURVE",
"273 700 CURVE SMOOTH",
"351 700 OFFCURVE",
"402 655 OFFCURVE",
"402 581 CURVE SMOOTH",
"402 499 OFFCURVE",
"339 450 OFFCURVE",
"238 406 CURVE"
);
}
);
width = 635;
},
{
layerId = "69591BDA-B7BB-4EAA-A50D-6786E2902B45";
name = Regular;
paths = (
{
closed = 1;
nodes = (
"389 -10 OFFCURVE",
"461 28 OFFCURVE",
"524 84 CURVE",
"611 0 LINE",
"730 0 LINE",
"584 142 LINE",
"634 197 OFFCURVE",
"665 271 OFFCURVE",
"686 357 CURVE",
"597 357 LINE",
"582 294 OFFCURVE",
"562 239 OFFCURVE",
"527 198 CURVE",
"334 384 LINE",
"416 432 OFFCURVE",
"477 487 OFFCURVE",
"477 571 CURVE SMOOTH",
"477 668 OFFCURVE",
"411 725 OFFCURVE",
"304 725 CURVE SMOOTH",
"190 725 OFFCURVE",
"120 667 OFFCURVE",
"120 569 CURVE SMOOTH",
"120 496 OFFCURVE",
"164 444 OFFCURVE",
"207 396 CURVE",
"112 342 OFFCURVE",
"53 288 OFFCURVE",
"53 186 CURVE SMOOTH",
"53 60 OFFCURVE",
"140 -10 OFFCURVE",
"278 -10 CURVE SMOOTH"
);
},
{
closed = 1;
nodes = (
"198 68 OFFCURVE",
"145 116 OFFCURVE",
"145 189 CURVE SMOOTH",
"145 261 OFFCURVE",
"188 298 OFFCURVE",
"260 341 CURVE",
"468 139 LINE",
"426 100 OFFCURVE",
"366 68 OFFCURVE",
"281 68 CURVE SMOOTH"
);
},
{
closed = 1;
nodes = (
"232 485 OFFCURVE",
"206 522 OFFCURVE",
"206 570 CURVE SMOOTH",
"206 622 OFFCURVE",
"245 653 OFFCURVE",
"301 653 CURVE SMOOTH",
"355 653 OFFCURVE",
"390 619 OFFCURVE",
"390 571 CURVE SMOOTH",
"390 517 OFFCURVE",
"359 481 OFFCURVE",
"280 436 CURVE"
);
}
);
width = 732;
},
{
layerId = "85A3B11B-C6C2-4ADD-AADC-206FDA180DDF";
name = SemiBold;
paths = (
{
closed = 1;
nodes = (
"383 -10 OFFCURVE",
"453 17 OFFCURVE",
"512 60 CURVE",
"573 0 LINE",
"747 0 LINE",
"600 143 LINE",
"658 215 OFFCURVE",
"695 302 OFFCURVE",
"715 379 CURVE",
"571 379 LINE",
"557 326 OFFCURVE",
"538 274 OFFCURVE",
"509 230 CURVE",
"362 373 LINE",
"443 420 OFFCURVE",
"505 479 OFFCURVE",
"505 569 CURVE SMOOTH",
"505 668 OFFCURVE",
"423 724 OFFCURVE",
"309 724 CURVE SMOOTH",
"187 724 OFFCURVE",
"104 661 OFFCURVE",
"104 561 CURVE SMOOTH",
"104 500 OFFCURVE",
"126 453 OFFCURVE",
"177 395 CURVE",
"93 347 OFFCURVE",
"42 293 OFFCURVE",
"42 192 CURVE SMOOTH",
"42 70 OFFCURVE",
"137 -10 OFFCURVE",
"296 -10 CURVE SMOOTH"
);
},
{
closed = 1;
nodes = (
"237 107 OFFCURVE",
"188 144 OFFCURVE",
"188 204 CURVE SMOOTH",
"188 250 OFFCURVE",
"215 281 OFFCURVE",
"258 312 CURVE",
"428 144 LINE",
"395 122 OFFCURVE",
"354 107 OFFCURVE",
"304 107 CURVE SMOOTH"
);
},
{
closed = 1;
nodes = (
"253 486 OFFCURVE",
"234 517 OFFCURVE",
"234 552 CURVE SMOOTH",
"234 599 OFFCURVE",
"271 616 OFFCURVE",
"308 616 CURVE SMOOTH",
"342 616 OFFCURVE",
"375 597 OFFCURVE",
"375 556 CURVE SMOOTH",
"375 514 OFFCURVE",
"344 484 OFFCURVE",
"284 451 CURVE"
);
}
);
width = 747;
},
{
layerId = "5D72C1FF-7D23-4150-B678-34DACF742A97";
name = Bold;
paths = (
{
closed = 1;
nodes = (
"414 -10 OFFCURVE",
"455 16 OFFCURVE",
"509 50 CURVE",
"557 0 LINE",
"805 0 LINE",
"649 150 LINE",
"698 209 OFFCURVE",
"745 304 OFFCURVE",
"766 401 CURVE",
"567 401 LINE",
"557 354 OFFCURVE",
"539 310 OFFCURVE",
"516 275 CURVE",
"420 366 LINE",
"496 412 OFFCURVE",
"549 470 OFFCURVE",
"549 553 CURVE SMOOTH",
"549 660 OFFCURVE",
"466 723 OFFCURVE",
"331 723 CURVE SMOOTH",
"182 723 OFFCURVE",
"104 652 OFFCURVE",
"104 553 CURVE SMOOTH",
"104 489 OFFCURVE",
"128 440 OFFCURVE",
"168 394 CURVE",
"82 350 OFFCURVE",
"35 283 OFFCURVE",
"35 198 CURVE SMOOTH",
"35 83 OFFCURVE",
"127 -10 OFFCURVE",
"294 -10 CURVE SMOOTH"
);
},
{
closed = 1;
nodes = (
"264 143 OFFCURVE",
"233 172 OFFCURVE",
"233 212 CURVE SMOOTH",
"233 242 OFFCURVE",
"245 268 OFFCURVE",
"272 289 CURVE",
"392 167 LINE",
"378 155 OFFCURVE",
"349 143 OFFCURVE",
"312 143 CURVE SMOOTH"
);
},
{
closed = 1;
nodes = (
"297 492 OFFCURVE",
"277 518 OFFCURVE",
"277 547 CURVE SMOOTH",
"277 583 OFFCURVE",
"301 598 OFFCURVE",
"327 598 CURVE SMOOTH",
"355 598 OFFCURVE",
"376 585 OFFCURVE",
"376 553 CURVE SMOOTH",
"376 523 OFFCURVE",
"356 492 OFFCURVE",
"320 471 CURVE"
);
}
);
width = 800;
},
{
layerId = "E4D2B44F-BF62-4CBA-BED8-29547F064017";
name = "Light Condensed";
paths = (
{
closed = 1;
nodes = (
"231 -10 OFFCURVE",
"279 38 OFFCURVE",
"309 94 CURVE",
"360 0 LINE",
"386 0 LINE",
"322 117 LINE",
"348 166 OFFCURVE",
"366 245 OFFCURVE",
"366 305 CURVE",
"343 305 LINE",
"343 249 OFFCURVE",
"327 180 OFFCURVE",
"307 141 CURVE",
"175 379 LINE",
"234 422 OFFCURVE",
"267 489 OFFCURVE",
"267 581 CURVE SMOOTH",
"267 679 OFFCURVE",
"230 724 OFFCURVE",
"177 724 CURVE SMOOTH",
"121 724 OFFCURVE",
"87 674 OFFCURVE",
"87 587 CURVE SMOOTH",
"87 516 OFFCURVE",
"110 458 OFFCURVE",
"145 389 CURVE",
"64 329 OFFCURVE",
"32 262 OFFCURVE",
"32 173 CURVE SMOOTH",
"32 63 OFFCURVE",
"83 -10 OFFCURVE",
"165 -10 CURVE SMOOTH"
);
},
{
closed = 1;
nodes = (
"97 15 OFFCURVE",
"57 75 OFFCURVE",
"57 173 CURVE SMOOTH",
"57 248 OFFCURVE",
"80 311 OFFCURVE",
"156 367 CURVE",
"295 118 LINE",
"264 58 OFFCURVE",
"221 15 OFFCURVE",
"165 15 CURVE SMOOTH"
);
},
{
closed = 1;
nodes = (
"136 455 OFFCURVE",
"110 517 OFFCURVE",
"110 587 CURVE SMOOTH",
"110 656 OFFCURVE",
"133 700 OFFCURVE",
"177 700 CURVE SMOOTH",
"222 700 OFFCURVE",
"243 655 OFFCURVE",
"243 581 CURVE SMOOTH",
"243 510 OFFCURVE",
"224 443 OFFCURVE",
"165 402 CURVE"
);
}
);
width = 385;
},
{
layerId = "0AADB627-CDB3-4A4A-B404-1AEF21746836";
name = Condensed;
paths = (
{
closed = 1;
nodes = (
"248 -10 OFFCURVE",
"294 20 OFFCURVE",
"338 73 CURVE",
"381 0 LINE",
"479 0 LINE",
"390 134 LINE",
"424 191 OFFCURVE",
"447 274 OFFCURVE",
"451 340 CURVE",
"368 340 LINE",
"366 287 OFFCURVE",
"357 242 OFFCURVE",
"340 207 CURVE",
"239 377 LINE",
"299 433 OFFCURVE",
"327 493 OFFCURVE",
"327 574 CURVE SMOOTH",
"327 669 OFFCURVE",
"283 724 OFFCURVE",
"206 724 CURVE SMOOTH",
"130 724 OFFCURVE",
"82 668 OFFCURVE",
"82 577 CURVE SMOOTH",
"82 504 OFFCURVE",
"99 456 OFFCURVE",
"140 388 CURVE",
"63 328 OFFCURVE",
"29 266 OFFCURVE",
"29 181 CURVE SMOOTH",
"29 72 OFFCURVE",
"77 -10 OFFCURVE",
"179 -10 CURVE SMOOTH"
);
},
{
closed = 1;
nodes = (
"143 65 OFFCURVE",
"112 110 OFFCURVE",
"112 184 CURVE SMOOTH",
"112 249 OFFCURVE",
"130 289 OFFCURVE",
"178 333 CURVE",
"295 138 LINE",
"264 88 OFFCURVE",
"232 65 OFFCURVE",
"191 65 CURVE SMOOTH"
);
},
{
closed = 1;
nodes = (
"175 471 OFFCURVE",
"160 530 OFFCURVE",
"160 575 CURVE SMOOTH",
"160 629 OFFCURVE",
"177 658 OFFCURVE",
"204 658 CURVE SMOOTH",
"235 658 OFFCURVE",
"252 631 OFFCURVE",
"252 576 CURVE SMOOTH",
"252 518 OFFCURVE",
"238 469 OFFCURVE",
"200 433 CURVE"
);
}
);
width = 477;
},
{
layerId = "F54E95EF-1D6D-47A7-87BE-6145FFFB0374";
name = "SemiBold Condensed";
paths = (
{
closed = 1;
nodes = (
"276 -10 OFFCURVE",
"327 14 OFFCURVE",
"375 57 CURVE",
"411 0 LINE",
"565 0 LINE",
"461 142 LINE",
"502 209 OFFCURVE",
"528 295 OFFCURVE",
"537 371 CURVE",
"409 371 LINE",
"404 321 OFFCURVE",
"395 280 OFFCURVE",
"380 250 CURVE",
"297 376 LINE",
"360 428 OFFCURVE",
"395 487 OFFCURVE",
"395 563 CURVE SMOOTH",
"395 663 OFFCURVE",
"340 723 OFFCURVE",
"241 723 CURVE SMOOTH",
"145 723 OFFCURVE",
"83 660 OFFCURVE",
"83 564 CURVE SMOOTH",
"83 496 OFFCURVE",
"102 448 OFFCURVE",
"142 391 CURVE",
"62 339 OFFCURVE",
"26 275 OFFCURVE",
"26 189 CURVE SMOOTH",
"26 71 OFFCURVE",
"85 -10 OFFCURVE",
"203 -10 CURVE SMOOTH"
);
},
{
closed = 1;
nodes = (
"178 100 OFFCURVE",
"151 141 OFFCURVE",
"151 197 CURVE SMOOTH",
"151 247 OFFCURVE",
"165 281 OFFCURVE",
"200 313 CURVE",
"308 149 LINE",
"283 116 OFFCURVE",
"258 100 OFFCURVE",
"223 100 CURVE SMOOTH"
);
},
{
closed = 1;
nodes = (
"212 487 OFFCURVE",
"198 530 OFFCURVE",
"198 564 CURVE SMOOTH",
"198 609 OFFCURVE",
"215 631 OFFCURVE",
"240 631 CURVE SMOOTH",
"266 631 OFFCURVE",
"282 610 OFFCURVE",
"282 568 CURVE SMOOTH",
"282 524 OFFCURVE",
"268 482 OFFCURVE",
"236 454 CURVE"
);
}
);
width = 561;
},
{
layerId = "9DAA8A68-E7B0-43B5-9380-0F5125A6FB33";
name = "Bold Condensed";
paths = (
{
closed = 1;
nodes = (
"305 -10 OFFCURVE",
"360 8 OFFCURVE",
"411 42 CURVE",
"441 0 LINE",
"650 0 LINE",
"530 150 LINE",
"578 227 OFFCURVE",
"607 315 OFFCURVE",
"621 402 CURVE",
"449 402 LINE",
"441 355 OFFCURVE",
"432 318 OFFCURVE",
"420 292 CURVE",
"353 375 LINE",
"419 424 OFFCURVE",
"461 481 OFFCURVE",
"461 553 CURVE SMOOTH",
"461 658 OFFCURVE",
"396 723 OFFCURVE",
"276 723 CURVE SMOOTH",
"159 723 OFFCURVE",
"84 653 OFFCURVE",
"84 553 CURVE SMOOTH",
"84 489 OFFCURVE",
"104 441 OFFCURVE",
"143 394 CURVE",
"62 349 OFFCURVE",
"22 284 OFFCURVE",
"22 198 CURVE SMOOTH",
"22 71 OFFCURVE",
"91 -10 OFFCURVE",
"226 -10 CURVE SMOOTH"
);
},
{
closed = 1;
nodes = (
"213 134 OFFCURVE",
"190 172 OFFCURVE",
"190 208 CURVE SMOOTH",
"190 246 OFFCURVE",
"200 274 OFFCURVE",
"221 294 CURVE",
"322 159 LINE",
"301 144 OFFCURVE",
"282 134 OFFCURVE",
"254 134 CURVE SMOOTH"
);
},
{
closed = 1;
nodes = (
"248 502 OFFCURVE",
"237 529 OFFCURVE",
"237 554 CURVE SMOOTH",
"237 589 OFFCURVE",
"254 604 OFFCURVE",
"275 604 CURVE SMOOTH",
"297 604 OFFCURVE",
"313 590 OFFCURVE",
"313 560 CURVE SMOOTH",
"313 529 OFFCURVE",
"298 495 OFFCURVE",
"271 474 CURVE"
);
}
);
width = 645;
}
);
unicode = 0026;
},
{
color = 6;
export = 0;
glyphname = quotesingle;
lastChange = "2015-12-19 18:56:45 +0000";
layers = (
{
layerId = "F44648F3-14F4-405A-9B69-DB2444BD1A35";
name = Light;
paths = (
{
closed = 1;
nodes = (
"89 456 LINE",
"93 714 LINE",
"65 714 LINE",
"69 456 LINE"
);
}
);
width = 157;
},
{
layerId = "69591BDA-B7BB-4EAA-A50D-6786E2902B45";
name = Regular;
paths = (
{
closed = 1;
nodes = (
"140 456 LINE",
"160 714 LINE",
"65 714 LINE",
"85 456 LINE"
);
}
);
width = 225;
},
{
layerId = "85A3B11B-C6C2-4ADD-AADC-206FDA180DDF";
name = SemiBold;
paths = (
{
closed = 1;
nodes = (
"174 456 LINE",
"194 714 LINE",
"65 714 LINE",
"85 456 LINE"
);
}
);
width = 259;
},
{
layerId = "5D72C1FF-7D23-4150-B678-34DACF742A97";
name = Bold;
paths = (
{
closed = 1;
nodes = (
"214 456 LINE",
"234 714 LINE",
"59 714 LINE",
"79 456 LINE"
);
}
);
width = 293;
},
{
layerId = "E4D2B44F-BF62-4CBA-BED8-29547F064017";
name = "Light Condensed";
paths = (
{
closed = 1;
nodes = (
"93 456 LINE",
"97 714 LINE",
"65 714 LINE",
"71 456 LINE"
);
}
);
width = 161;
},
{
layerId = "0AADB627-CDB3-4A4A-B404-1AEF21746836";
name = Condensed;
paths = (
{
closed = 1;
nodes = (
"136 456 LINE",
"152 714 LINE",
"58 714 LINE",
"75 456 LINE"
);
}
);
width = 208;
},
{
layerId = "F54E95EF-1D6D-47A7-87BE-6145FFFB0374";
name = "SemiBold Condensed";
paths = (
{
closed = 1;
nodes = (
"164 456 LINE",
"183 714 LINE",
"48 714 LINE",
"67 456 LINE"
);
}
);
width = 231;
},
{
layerId = "9DAA8A68-E7B0-43B5-9380-0F5125A6FB33";
name = "Bold Condensed";
paths = (
{
closed = 1;
nodes = (
"194 456 LINE",
"214 714 LINE",
"39 714 LINE",
"59 456 LINE"
);
}
);
width = 252;
}
);
leftKerningGroup = quote.right;
rightKerningGroup = quote.left;
unicode = 0027;
},
{
color = 6;
export = 0;
glyphname = parenleft;
lastChange = "2015-12-19 18:56:45 +0000";
layers = (
{
layerId = "F44648F3-14F4-405A-9B69-DB2444BD1A35";
name = Light;
paths = (
{
closed = 1;
nodes = (
"229 -158 LINE",
"128 -39 OFFCURVE",
"78 109 OFFCURVE",
"78 275 CURVE SMOOTH",
"78 443 OFFCURVE",
"126 596 OFFCURVE",
"229 714 CURVE",
"196 714 LINE",
"105 606 OFFCURVE",
"51 451 OFFCURVE",
"51 274 CURVE SMOOTH",
"51 99 OFFCURVE",
"105 -46 OFFCURVE",
"196 -158 CURVE"
);
}
);
width = 269;
},
{
layerId = "69591BDA-B7BB-4EAA-A50D-6786E2902B45";
name = Regular;
paths = (
{
closed = 1;
nodes = (
"269 -158 LINE",
"177 -33 OFFCURVE",
"129 120 OFFCURVE",
"129 275 CURVE SMOOTH",
"129 433 OFFCURVE",
"177 589 OFFCURVE",
"270 714 CURVE",
"187 714 LINE",
"86 593 OFFCURVE",
"40 437 OFFCURVE",
"40 274 CURVE SMOOTH",
"40 113 OFFCURVE",
"86 -41 OFFCURVE",
"187 -158 CURVE"
);
}
);
width = 300;
},
{
layerId = "85A3B11B-C6C2-4ADD-AADC-206FDA180DDF";
name = SemiBold;
paths = (
{
closed = 1;
nodes = (
"302 -158 LINE",
"211 -35 OFFCURVE",
"163 120 OFFCURVE",
"163 275 CURVE SMOOTH",
"163 433 OFFCURVE",
"211 589 OFFCURVE",
"303 714 CURVE",
"187 714 LINE",
"86 593 OFFCURVE",
"40 437 OFFCURVE",
"40 274 CURVE SMOOTH",
"40 113 OFFCURVE",
"86 -41 OFFCURVE",
"187 -158 CURVE"
);
}
);
width = 333;
},
{
layerId = "5D72C1FF-7D23-4150-B678-34DACF742A97";
name = Bold;
paths = (
{
closed = 1;
nodes = (
"332 -158 LINE",
"243 -36 OFFCURVE",
"205 130 OFFCURVE",
"205 285 CURVE SMOOTH",
"205 443 OFFCURVE",
"243 610 OFFCURVE",
"333 735 CURVE",
"173 735 LINE",
"72 614 OFFCURVE",
"36 447 OFFCURVE",
"36 284 CURVE SMOOTH",
"36 123 OFFCURVE",
"72 -41 OFFCURVE",
"173 -158 CURVE"
);
}
);
width = 360;
},
{
layerId = "E4D2B44F-BF62-4CBA-BED8-29547F064017";
name = "Light Condensed";
paths = (
{
closed = 1;
nodes = (
"223 -158 LINE",
"140 -53 OFFCURVE",
"78 99 OFFCURVE",
"78 278 CURVE SMOOTH",
"78 449 OFFCURVE",
"134 600 OFFCURVE",
"223 714 CURVE",
"195 714 LINE",
"100 599 OFFCURVE",
"51 444 OFFCURVE",
"51 278 CURVE SMOOTH",
"51 95 OFFCURVE",
"110 -55 OFFCURVE",
"194 -158 CURVE"
);
}
);
width = 263;
},
{
layerId = "0AADB627-CDB3-4A4A-B404-1AEF21746836";
name = Condensed;
paths = (
{
closed = 1;
nodes = (
"261 -158 LINE",
"177 -34 OFFCURVE",
"131 122 OFFCURVE",
"131 278 CURVE SMOOTH",
"131 436 OFFCURVE",
"175 589 OFFCURVE",
"262 720 CURVE",
"191 720 LINE",
"100 604 OFFCURVE",
"49 446 OFFCURVE",
"49 277 CURVE SMOOTH",
"49 110 OFFCURVE",
"97 -44 OFFCURVE",
"191 -158 CURVE"
);
}
);
width = 291;
},
{
layerId = "F54E95EF-1D6D-47A7-87BE-6145FFFB0374";
name = "SemiBold Condensed";
paths = (
{
closed = 1;
nodes = (
"293 -158 LINE",
"210 -26 OFFCURVE",
"164 119 OFFCURVE",
"164 281 CURVE SMOOTH",
"164 448 OFFCURVE",
"207 597 OFFCURVE",
"294 727 CURVE",
"183 727 LINE",
"100 613 OFFCURVE",
"46 459 OFFCURVE",
"46 280 CURVE SMOOTH",
"46 103 OFFCURVE",
"97 -43 OFFCURVE",
"183 -158 CURVE"
);
}
);
width = 309;
},
{
layerId = "9DAA8A68-E7B0-43B5-9380-0F5125A6FB33";
name = "Bold Condensed";
paths = (
{
closed = 1;
nodes = (
"325 -158 LINE",
"244 -17 OFFCURVE",
"198 117 OFFCURVE",
"198 285 CURVE SMOOTH",
"198 459 OFFCURVE",
"239 604 OFFCURVE",
"325 734 CURVE",
"176 734 LINE",
"101 623 OFFCURVE",
"43 473 OFFCURVE",
"43 284 CURVE SMOOTH",
"43 97 OFFCURVE",
"97 -43 OFFCURVE",
"176 -158 CURVE"
);
}
);
width = 326;
}
);
rightKerningGroup = paren.left;
unicode = 0028;
},
{
color = 6;
export = 0;
glyphname = parenright;
lastChange = "2015-12-19 18:56:45 +0000";
layers = (
{
layerId = "F44648F3-14F4-405A-9B69-DB2444BD1A35";
name = Light;
paths = (
{
closed = 1;
nodes = (
"73 -158 LINE",
"164 -50 OFFCURVE",
"218 105 OFFCURVE",
"218 282 CURVE SMOOTH",
"218 457 OFFCURVE",
"164 602 OFFCURVE",
"73 714 CURVE",
"40 714 LINE",
"141 595 OFFCURVE",
"191 447 OFFCURVE",
"191 281 CURVE SMOOTH",
"191 113 OFFCURVE",
"143 -40 OFFCURVE",
"40 -158 CURVE"
);
}
);
width = 269;
},
{
layerId = "69591BDA-B7BB-4EAA-A50D-6786E2902B45";
name = Regular;
paths = (
{
closed = 1;
nodes = (
"113 -158 LINE",
"214 -41 OFFCURVE",
"260 113 OFFCURVE",
"260 274 CURVE SMOOTH",
"260 437 OFFCURVE",
"214 593 OFFCURVE",
"113 714 CURVE",
"30 714 LINE",
"123 589 OFFCURVE",
"171 433 OFFCURVE",
"171 275 CURVE SMOOTH",
"171 120 OFFCURVE",
"123 -33 OFFCURVE",
"31 -158 CURVE"
);
}
);
width = 300;
},
{
layerId = "85A3B11B-C6C2-4ADD-AADC-206FDA180DDF";
name = SemiBold;
paths = (
{
closed = 1;
nodes = (
"146 -158 LINE",
"247 -41 OFFCURVE",
"293 113 OFFCURVE",
"293 274 CURVE SMOOTH",
"293 437 OFFCURVE",
"247 593 OFFCURVE",
"146 714 CURVE",
"30 714 LINE",
"121 589 OFFCURVE",
"169 433 OFFCURVE",
"169 275 CURVE SMOOTH",
"169 120 OFFCURVE",
"121 -35 OFFCURVE",
"31 -158 CURVE"
);
}
);
width = 333;
},
{
layerId = "5D72C1FF-7D23-4150-B678-34DACF742A97";
name = Bold;
paths = (
{
closed = 1;
nodes = (
"187 -158 LINE",
"288 -41 OFFCURVE",
"324 123 OFFCURVE",
"324 284 CURVE SMOOTH",
"324 447 OFFCURVE",
"288 614 OFFCURVE",
"187 735 CURVE",
"27 735 LINE",
"117 610 OFFCURVE",
"155 443 OFFCURVE",
"155 285 CURVE SMOOTH",
"155 130 OFFCURVE",
"117 -36 OFFCURVE",
"28 -158 CURVE"
);
}
);
width = 360;
},
{
layerId = "E4D2B44F-BF62-4CBA-BED8-29547F064017";
name = "Light Condensed";
paths = (
{
closed = 1;
nodes = (
"69 -158 LINE",
"159 -55 OFFCURVE",
"212 119 OFFCURVE",
"212 283 CURVE SMOOTH",
"212 450 OFFCURVE",
"157 604 OFFCURVE",
"69 714 CURVE",
"40 714 LINE",
"122 606 OFFCURVE",
"185 450 OFFCURVE",
"185 282 CURVE SMOOTH",
"185 120 OFFCURVE",
"126 -55 OFFCURVE",
"40 -158 CURVE"
);
}
);
width = 263;
},
{
layerId = "0AADB627-CDB3-4A4A-B404-1AEF21746836";
name = Condensed;
paths = (
{
closed = 1;
nodes = (
"100 -158 LINE",
"192 -45 OFFCURVE",
"242 111 OFFCURVE",
"242 277 CURVE SMOOTH",
"242 442 OFFCURVE",
"192 604 OFFCURVE",
"100 720 CURVE",
"29 720 LINE",
"115 590 OFFCURVE",
"160 439 OFFCURVE",
"160 278 CURVE SMOOTH",
"160 123 OFFCURVE",
"114 -33 OFFCURVE",
"30 -158 CURVE"
);
}
);
width = 291;
},
{
layerId = "F54E95EF-1D6D-47A7-87BE-6145FFFB0374";
name = "SemiBold Condensed";
paths = (
{
closed = 1;
nodes = (
"125 -158 LINE",
"211 -44 OFFCURVE",
"264 104 OFFCURVE",
"264 280 CURVE SMOOTH",
"264 458 OFFCURVE",
"210 613 OFFCURVE",
"125 727 CURVE",
"16 727 LINE",
"102 597 OFFCURVE",
"144 449 OFFCURVE",
"144 281 CURVE SMOOTH",
"144 120 OFFCURVE",
"98 -25 OFFCURVE",
"16 -158 CURVE"
);
}
);
width = 309;
},
{
layerId = "9DAA8A68-E7B0-43B5-9380-0F5125A6FB33";
name = "Bold Condensed";
paths = (
{
closed = 1;
nodes = (
"149 -158 LINE",
"229 -43 OFFCURVE",
"283 97 OFFCURVE",
"283 284 CURVE SMOOTH",
"283 473 OFFCURVE",
"225 623 OFFCURVE",
"149 734 CURVE",
"2 734 LINE",
"87 604 OFFCURVE",
"128 459 OFFCURVE",
"128 285 CURVE SMOOTH",
"128 117 OFFCURVE",
"83 -17 OFFCURVE",
"2 -158 CURVE"
);
}
);
width = 326;
}
);
leftKerningGroup = Paren.right;
unicode = 0029;
},
{
color = 6;
export = 0;
glyphname = asterisk;
lastChange = "2015-12-19 18:56:45 +0000";
layers = (
{
layerId = "F44648F3-14F4-405A-9B69-DB2444BD1A35";
name = Light;
paths = (
{
closed = 1;
nodes = (
"395 374 LINE",
"270 537 LINE",
"466 594 LINE",
"458 621 LINE",
"264 552 LINE",
"270 758 LINE",
"242 758 LINE",
"248 552 LINE",
"54 621 LINE",
"45 594 LINE",
"243 537 LINE",
"118 374 LINE",
"141 358 LINE",
"256 527 LINE",
"372 357 LINE"
);
}
);
width = 512;
},
{
layerId = "69591BDA-B7BB-4EAA-A50D-6786E2902B45";
name = Regular;
paths = (
{
closed = 1;
nodes = (
"272 485 LINE",
"357 310 LINE",
"443 357 LINE",
"324 515 LINE",
"508 530 LINE",
"494 622 LINE",
"302 568 LINE",
"322 760 LINE",
"224 760 LINE",
"245 568 LINE",
"55 622 LINE",
"41 530 LINE",
"223 515 LINE",
"106 357 LINE",
"195 310 LINE"
);
}
);
width = 551;
},
{
layerId = "85A3B11B-C6C2-4ADD-AADC-206FDA180DDF";
name = SemiBold;
paths = (
{
closed = 1;
nodes = (
"455 352 LINE",
"344 499 LINE",
"513 512 LINE",
"497 630 LINE",
"314 578 LINE",
"334 760 LINE",
"211 760 LINE",
"231 578 LINE",
"51 630 LINE",
"33 512 LINE",
"200 499 LINE",
"91 352 LINE",
"202 296 LINE",
"270 452 LINE",
"348 295 LINE"
);
}
);
width = 546;
},
{
layerId = "5D72C1FF-7D23-4150-B678-34DACF742A97";
name = Bold;
paths = (
{
closed = 1;
nodes = (
"464 347 LINE",
"363 483 LINE",
"516 493 LINE",
"498 637 LINE",
"324 588 LINE",
"343 760 LINE",
"195 760 LINE",
"214 588 LINE",
"44 637 LINE",
"22 495 LINE",
"174 483 LINE",
"74 347 LINE",
"207 281 LINE",
"267 417 LINE",
"337 280 LINE"
);
}
);
width = 537;
},
{
layerId = "E4D2B44F-BF62-4CBA-BED8-29547F064017";
name = "Light Condensed";
paths = (
{
closed = 1;
nodes = (
"171 608 LINE",
"250 504 LINE",
"265 517 LINE",
"184 618 LINE",
"293 660 LINE",
"287 678 LINE",
"178 634 LINE",
"182 760 LINE",
"161 760 LINE",
"164 634 LINE",
"52 677 LINE",
"45 660 LINE",
"158 618 LINE",
"73 516 LINE",
"89 504 LINE"
);
}
);
width = 339;
},
{
layerId = "0AADB627-CDB3-4A4A-B404-1AEF21746836";
name = Condensed;
paths = (
{
closed = 1;
nodes = (
"199 550 LINE",
"258 428 LINE",
"327 469 LINE",
"242 580 LINE",
"361 589 LINE",
"346 667 LINE",
"226 631 LINE",
"241 761 LINE",
"157 761 LINE",
"171 631 LINE",
"52 666 LINE",
"36 588 LINE",
"153 580 LINE",
"71 469 LINE",
"138 428 LINE"
);
}
);
width = 397;
},
{
layerId = "F54E95EF-1D6D-47A7-87BE-6145FFFB0374";
name = "SemiBold Condensed";
paths = (
{
closed = 1;
nodes = (
"218 497 LINE",
"284 370 LINE",
"379 434 LINE",
"284 544 LINE",
"413 558 LINE",
"387 667 LINE",
"259 622 LINE",
"277 762 LINE",
"160 762 LINE",
"177 622 LINE",
"49 667 LINE",
"23 557 LINE",
"151 544 LINE",
"58 434 LINE",
"151 369 LINE"
);
}
);
width = 437;
},
{
layerId = "9DAA8A68-E7B0-43B5-9380-0F5125A6FB33";
name = "Bold Condensed";
paths = (
{
closed = 1;
nodes = (
"237 446 LINE",
"311 313 LINE",
"430 399 LINE",
"326 509 LINE",
"464 527 LINE",
"429 668 LINE",
"293 613 LINE",
"312 763 LINE",
"164 763 LINE",
"183 613 LINE",
"47 668 LINE",
"12 527 LINE",
"150 509 LINE",
"46 399 LINE",
"165 313 LINE"
);
}
);
width = 476;
}
);
unicode = 002A;
},
{
color = 6;
export = 0;
glyphname = plus;
lastChange = "2015-12-19 18:56:45 +0000";
layers = (
{
layerId = "F44648F3-14F4-405A-9B69-DB2444BD1A35";
name = Light;
paths = (
{
closed = 1;
nodes = (
"271 123 LINE",
"271 341 LINE",
"489 341 LINE",
"489 365 LINE",
"271 365 LINE",
"271 583 LINE",
"247 583 LINE",
"247 365 LINE",
"29 365 LINE",
"29 341 LINE",
"247 341 LINE",
"247 123 LINE"
);
}
);
width = 519;
},
{
layerId = "69591BDA-B7BB-4EAA-A50D-6786E2902B45";
name = Regular;
paths = (
{
closed = 1;
nodes = (
"321 111 LINE",
"321 317 LINE",
"520 317 LINE",
"520 388 LINE",
"321 388 LINE",
"321 595 LINE",
"249 595 LINE",
"249 388 LINE",
"50 388 LINE",
"50 317 LINE",
"249 317 LINE",
"249 111 LINE"
);
}
);
width = 572;
},
{
layerId = "85A3B11B-C6C2-4ADD-AADC-206FDA180DDF";
name = SemiBold;
paths = (
{
closed = 1;
nodes = (
"336 111 LINE",
"336 302 LINE",
"527 302 LINE",
"527 403 LINE",
"336 403 LINE",
"336 596 LINE",
"235 596 LINE",
"235 403 LINE",
"44 403 LINE",
"44 302 LINE",
"235 302 LINE",
"235 111 LINE"
);
}
);
width = 572;
},
{
layerId = "5D72C1FF-7D23-4150-B678-34DACF742A97";
name = Bold;
paths = (
{
closed = 1;
nodes = (
"348 111 LINE",
"348 287 LINE",
"530 287 LINE",
"530 418 LINE",
"348 418 LINE",
"348 597 LINE",
"217 597 LINE",
"217 418 LINE",
"35 418 LINE",
"35 287 LINE",
"217 287 LINE",
"217 111 LINE"
);
}
);
width = 566;
},
{
layerId = "E4D2B44F-BF62-4CBA-BED8-29547F064017";
name = "Light Condensed";
paths = (
{
closed = 1;
nodes = (
"212 123 LINE",
"212 339 LINE",
"369 339 LINE",
"369 363 LINE",
"212 363 LINE",
"212 583 LINE",
"188 583 LINE",
"188 363 LINE",
"29 363 LINE",
"29 339 LINE",
"188 339 LINE",
"188 123 LINE"
);
}
);
width = 399;
},
{
layerId = "0AADB627-CDB3-4A4A-B404-1AEF21746836";
name = Condensed;
paths = (
{
closed = 1;
nodes = (
"249 119 LINE",
"249 319 LINE",
"398 319 LINE",
"398 387 LINE",
"249 387 LINE",
"249 588 LINE",
"180 588 LINE",
"180 387 LINE",
"30 387 LINE",
"30 319 LINE",
"180 319 LINE",
"180 119 LINE"
);
}
);
width = 430;
},
{
layerId = "F54E95EF-1D6D-47A7-87BE-6145FFFB0374";
name = "SemiBold Condensed";
paths = (
{
closed = 1;
nodes = (
"284 115 LINE",
"284 303 LINE",
"433 303 LINE",
"433 403 LINE",
"284 403 LINE",
"284 593 LINE",
"183 593 LINE",
"183 403 LINE",
"33 403 LINE",
"33 303 LINE",
"183 303 LINE",
"183 115 LINE"
);
}
);
width = 466;
},
{
layerId = "9DAA8A68-E7B0-43B5-9380-0F5125A6FB33";
name = "Bold Condensed";
paths = (
{
closed = 1;
nodes = (
"318 111 LINE",
"318 287 LINE",
"467 287 LINE",
"467 418 LINE",
"318 418 LINE",
"318 597 LINE",
"183 597 LINE",
"183 418 LINE",
"34 418 LINE",
"34 287 LINE",
"183 287 LINE",
"183 111 LINE"
);
}
);
width = 501;
}
);
unicode = 002B;
},
{
color = 6;
export = 0;
glyphname = comma;
lastChange = "2015-12-19 18:56:45 +0000";
layers = (
{
layerId = "F44648F3-14F4-405A-9B69-DB2444BD1A35";
name = Light;
paths = (
{
closed = 1;
nodes = (
"60 -129 LINE",
"88 -60 OFFCURVE",
"110 30 OFFCURVE",
"125 104 CURVE",
"122 116 LINE",
"94 116 LINE",
"83 40 OFFCURVE",
"67 -32 OFFCURVE",
"38 -129 CURVE"
);
}
);
width = 181;
},
{
layerId = "69591BDA-B7BB-4EAA-A50D-6786E2902B45";
name = Regular;
paths = (
{
closed = 1;
nodes = (
"106 -129 LINE",
"138 -57 OFFCURVE",
"174 34 OFFCURVE",
"192 105 CURVE",
"185 116 LINE",
"91 116 LINE",
"81 46 OFFCURVE",
"60 -53 OFFCURVE",
"41 -129 CURVE"
);
}
);
width = 268;
},
{
layerId = "85A3B11B-C6C2-4ADD-AADC-206FDA180DDF";
name = SemiBold;
paths = (
{
closed = 1;
nodes = (
"133 -129 LINE",
"166 -56 OFFCURVE",
"201 34 OFFCURVE",
"219 105 CURVE",
"212 116 LINE",
"82 116 LINE",
"72 47 OFFCURVE",
"52 -50 OFFCURVE",
"33 -129 CURVE"
);
}
);
width = 282;
},
{
layerId = "5D72C1FF-7D23-4150-B678-34DACF742A97";
name = Bold;
paths = (
{
closed = 1;
nodes = (
"165 -139 LINE",
"198 -65 OFFCURVE",
"233 64 OFFCURVE",
"251 136 CURVE",
"244 147 LINE",
"76 147 LINE",
"67 66 OFFCURVE",
"47 -48 OFFCURVE",
"28 -139 CURVE"
);
}
);
width = 310;
},
{
layerId = "E4D2B44F-BF62-4CBA-BED8-29547F064017";
name = "Light Condensed";
paths = (
{
closed = 1;
nodes = (
"60 -129 LINE",
"89 -58 OFFCURVE",
"109 26 OFFCURVE",
"120 88 CURVE",
"116 101 LINE",
"89 101 LINE",
"81 29 OFFCURVE",
"66 -38 OFFCURVE",
"38 -129 CURVE"
);
}
);
width = 176;
},
{
layerId = "0AADB627-CDB3-4A4A-B404-1AEF21746836";
name = Condensed;
paths = (
{
closed = 1;
nodes = (
"98 -132 LINE",
"130 -60 OFFCURVE",
"154 19 OFFCURVE",
"174 103 CURVE",
"167 114 LINE",
"81 114 LINE",
"74 42 OFFCURVE",
"57 -51 OFFCURVE",
"36 -132 CURVE"
);
}
);
width = 226;
},
{
layerId = "F54E95EF-1D6D-47A7-87BE-6145FFFB0374";
name = "SemiBold Condensed";
paths = (
{
closed = 1;
nodes = (
"132 -135 LINE",
"163 -63 OFFCURVE",
"185 22 OFFCURVE",
"202 119 CURVE",
"196 130 LINE",
"74 130 LINE",
"69 57 OFFCURVE",
"51 -57 OFFCURVE",
"33 -135 CURVE"
);
}
);
width = 250;
},
{
layerId = "9DAA8A68-E7B0-43B5-9380-0F5125A6FB33";
name = "Bold Condensed";
paths = (
{
closed = 1;
nodes = (
"166 -139 LINE",
"195 -66 OFFCURVE",
"216 25 OFFCURVE",
"231 135 CURVE",
"226 146 LINE",
"67 146 LINE",
"63 71 OFFCURVE",
"45 -62 OFFCURVE",
"31 -139 CURVE"
);
}
);
width = 273;
}
);
leftKerningGroup = period.right;
rightKerningGroup = period.left;
unicode = 002C;
},
{
color = 6;
export = 0;
glyphname = hyphen;
lastChange = "2015-12-19 18:56:45 +0000";
layers = (
{
layerId = "F44648F3-14F4-405A-9B69-DB2444BD1A35";
name = Light;
paths = (
{
closed = 1;
nodes = (
"268 259 LINE",
"268 284 LINE",
"26 284 LINE",
"26 259 LINE"
);
}
);
width = 294;
},
{
layerId = "69591BDA-B7BB-4EAA-A50D-6786E2902B45";
name = Regular;
paths = (
{
closed = 1;
nodes = (
"282 229 LINE",
"282 307 LINE",
"40 307 LINE",
"40 229 LINE"
);
}
);
width = 322;
},
{
layerId = "85A3B11B-C6C2-4ADD-AADC-206FDA180DDF";
name = SemiBold;
paths = (
{
closed = 1;
nodes = (
"290 211 LINE",
"290 325 LINE",
"32 325 LINE",
"32 211 LINE"
);
}
);
width = 322;
},
{
layerId = "5D72C1FF-7D23-4150-B678-34DACF742A97";
name = Bold;
paths = (
{
closed = 1;
nodes = (
"297 192 LINE",
"297 344 LINE",
"21 344 LINE",
"21 192 LINE"
);
}
);
width = 318;
},
{
layerId = "E4D2B44F-BF62-4CBA-BED8-29547F064017";
name = "Light Condensed";
paths = (
{
closed = 1;
nodes = (
"237 259 LINE",
"237 286 LINE",
"26 286 LINE",
"26 259 LINE"
);
}
);
width = 263;
},
{
layerId = "0AADB627-CDB3-4A4A-B404-1AEF21746836";
name = Condensed;
paths = (
{
closed = 1;
nodes = (
"247 229 LINE",
"247 310 LINE",
"27 310 LINE",
"27 229 LINE"
);
}
);
width = 274;
},
{
layerId = "F54E95EF-1D6D-47A7-87BE-6145FFFB0374";
name = "SemiBold Condensed";
paths = (
{
closed = 1;
nodes = (
"272 210 LINE",
"272 328 LINE",
"28 328 LINE",
"28 210 LINE"
);
}
);
width = 300;
},
{
layerId = "9DAA8A68-E7B0-43B5-9380-0F5125A6FB33";
name = "Bold Condensed";
paths = (
{
closed = 1;
nodes = (
"296 192 LINE",
"296 344 LINE",
"29 344 LINE",
"29 192 LINE"
);
}
);
width = 326;
}
);
leftKerningGroup = hyphen.right;
rightKerningGroup = hyphen.left;
unicode = 002D;
},
{
color = 6;
export = 0;
glyphname = period;
lastChange = "2015-12-19 18:56:45 +0000";
layers = (
{
layerId = "F44648F3-14F4-405A-9B69-DB2444BD1A35";
name = Light;
paths = (
{
closed = 1;
nodes = (
"114 -8 OFFCURVE",
"117 6 OFFCURVE",
"117 23 CURVE SMOOTH",
"117 39 OFFCURVE",
"114 54 OFFCURVE",
"90 54 CURVE SMOOTH",
"70 54 OFFCURVE",
"65 39 OFFCURVE",
"65 23 CURVE SMOOTH",
"65 6 OFFCURVE",
"70 -8 OFFCURVE",
"90 -8 CURVE SMOOTH"
);
}
);
width = 181;
},
{
layerId = "69591BDA-B7BB-4EAA-A50D-6786E2902B45";
name = Regular;
paths = (
{
closed = 1;
nodes = (
"167 -14 OFFCURVE",
"196 6 OFFCURVE",
"196 54 CURVE SMOOTH",
"196 103 OFFCURVE",
"167 121 OFFCURVE",
"133 121 CURVE SMOOTH",
"99 121 OFFCURVE",
"72 103 OFFCURVE",
"72 54 CURVE SMOOTH",
"72 6 OFFCURVE",
"99 -14 OFFCURVE",
"133 -14 CURVE SMOOTH"
);
}
);
width = 268;
},
{
layerId = "85A3B11B-C6C2-4ADD-AADC-206FDA180DDF";
name = SemiBold;
paths = (
{
closed = 1;
nodes = (
"185 -13 OFFCURVE",
"223 10 OFFCURVE",
"223 67 CURVE SMOOTH",
"223 126 OFFCURVE",
"185 148 OFFCURVE",
"141 148 CURVE SMOOTH",
"96 148 OFFCURVE",
"59 126 OFFCURVE",
"59 67 CURVE SMOOTH",
"59 10 OFFCURVE",
"96 -13 OFFCURVE",
"141 -13 CURVE SMOOTH"
);
}
);
width = 282;
},
{
layerId = "5D72C1FF-7D23-4150-B678-34DACF742A97";
name = Bold;
paths = (
{
closed = 1;
nodes = (
"200 -12 OFFCURVE",
"246 15 OFFCURVE",
"246 81 CURVE SMOOTH",
"246 150 OFFCURVE",
"200 176 OFFCURVE",
"146 176 CURVE SMOOTH",
"89 176 OFFCURVE",
"42 150 OFFCURVE",
"42 81 CURVE SMOOTH",
"42 15 OFFCURVE",
"89 -12 OFFCURVE",
"146 -12 CURVE SMOOTH"
);
}
);
width = 289;
},
{
layerId = "E4D2B44F-BF62-4CBA-BED8-29547F064017";
name = "Light Condensed";
paths = (
{
closed = 1;
nodes = (
"108 -6 OFFCURVE",
"116 7 OFFCURVE",
"116 30 CURVE SMOOTH",
"116 53 OFFCURVE",
"109 65 OFFCURVE",
"90 65 CURVE SMOOTH",
"70 65 OFFCURVE",
"65 49 OFFCURVE",
"65 30 CURVE SMOOTH",
"65 9 OFFCURVE",
"70 -6 OFFCURVE",
"90 -6 CURVE SMOOTH"
);
}
);
width = 180;
},
{
layerId = "0AADB627-CDB3-4A4A-B404-1AEF21746836";
name = Condensed;
paths = (
{
closed = 1;
nodes = (
"145 -9 OFFCURVE",
"167 11 OFFCURVE",
"167 55 CURVE SMOOTH",
"167 100 OFFCURVE",
"146 119 OFFCURVE",
"113 119 CURVE SMOOTH",
"78 119 OFFCURVE",
"59 97 OFFCURVE",
"59 55 CURVE SMOOTH",
"59 13 OFFCURVE",
"79 -9 OFFCURVE",
"113 -9 CURVE SMOOTH"
);
}
);
width = 226;
},
{
layerId = "F54E95EF-1D6D-47A7-87BE-6145FFFB0374";
name = "SemiBold Condensed";
paths = (
{
closed = 1;
nodes = (
"171 -11 OFFCURVE",
"199 17 OFFCURVE",
"199 68 CURVE SMOOTH",
"199 121 OFFCURVE",
"172 147 OFFCURVE",
"126 147 CURVE SMOOTH",
"78 147 OFFCURVE",
"52 120 OFFCURVE",
"52 68 CURVE SMOOTH",
"52 17 OFFCURVE",
"81 -11 OFFCURVE",
"126 -11 CURVE SMOOTH"
);
}
);
width = 250;
},
{
layerId = "9DAA8A68-E7B0-43B5-9380-0F5125A6FB33";
name = "Bold Condensed";
paths = (
{
closed = 1;
nodes = (
"195 -12 OFFCURVE",
"229 22 OFFCURVE",
"229 81 CURVE SMOOTH",
"229 141 OFFCURVE",
"196 176 OFFCURVE",
"138 176 CURVE SMOOTH",
"78 176 OFFCURVE",
"45 141 OFFCURVE",
"45 81 CURVE SMOOTH",
"45 22 OFFCURVE",
"81 -12 OFFCURVE",
"138 -12 CURVE SMOOTH"
);
}
);
width = 273;
}
);
leftKerningGroup = period.right;
rightKerningGroup = period.left;
unicode = 002E;
},
{
color = 6;
export = 0;
glyphname = slash;
lastChange = "2015-12-19 18:56:45 +0000";
layers = (
{
layerId = "F44648F3-14F4-405A-9B69-DB2444BD1A35";
name = Light;
paths = (
{
closed = 1;
nodes = (
"53 0 LINE",
"321 714 LINE",
"293 714 LINE",
"25 0 LINE"
);
}
);
width = 339;
},
{
layerId = "69591BDA-B7BB-4EAA-A50D-6786E2902B45";
name = Regular;
paths = (
{
closed = 1;
nodes = (
"96 0 LINE",
"362 714 LINE",
"276 714 LINE",
"10 0 LINE"
);
}
);
width = 372;
},
{
layerId = "85A3B11B-C6C2-4ADD-AADC-206FDA180DDF";
name = SemiBold;
paths = (
{
closed = 1;
nodes = (
"134 0 LINE",
"400 714 LINE",
"273 714 LINE",
"7 0 LINE"
);
}
);
width = 406;
},
{
layerId = "5D72C1FF-7D23-4150-B678-34DACF742A97";
name = Bold;
paths = (
{
closed = 1;
nodes = (
"175 -10 LINE",
"441 724 LINE",
"271 724 LINE",
"5 -10 LINE"
);
}
);
width = 443;
},
{
layerId = "E4D2B44F-BF62-4CBA-BED8-29547F064017";
name = "Light Condensed";
paths = (
{
closed = 1;
nodes = (
"53 0 LINE",
"310 714 LINE",
"284 714 LINE",
"25 0 LINE"
);
}
);
width = 328;
},
{
layerId = "0AADB627-CDB3-4A4A-B404-1AEF21746836";
name = Condensed;
paths = (
{
closed = 1;
nodes = (
"96 -3 LINE",
"358 717 LINE",
"282 717 LINE",
"19 -3 LINE"
);
}
);
width = 371;
},
{
layerId = "F54E95EF-1D6D-47A7-87BE-6145FFFB0374";
name = "SemiBold Condensed";
paths = (
{
closed = 1;
nodes = (
"120 -6 LINE",
"391 720 LINE",
"282 720 LINE",
"11 -6 LINE"
);
}
);
width = 399;
},
{
layerId = "9DAA8A68-E7B0-43B5-9380-0F5125A6FB33";
name = "Bold Condensed";
paths = (
{
closed = 1;
nodes = (
"144 -10 LINE",
"424 724 LINE",
"282 724 LINE",
"3 -10 LINE"
);
}
);
width = 426;
}
);
unicode = 002F;
},
{
color = 6;
export = 0;
glyphname = zero;
lastChange = "2015-12-19 18:57:17 +0000";
layers = (
{
layerId = "F44648F3-14F4-405A-9B69-DB2444BD1A35";
name = Light;
paths = (
{
closed = 1;
nodes = (
"417 -10 OFFCURVE",
"488 112 OFFCURVE",
"488 360 CURVE SMOOTH",
"488 577 OFFCURVE",
"440 725 OFFCURVE",
"267 725 CURVE SMOOTH",
"99 725 OFFCURVE",
"43 571 OFFCURVE",
"43 360 CURVE SMOOTH",
"43 106 OFFCURVE",
"122 -10 OFFCURVE",
"266 -10 CURVE SMOOTH"
);
},
{
closed = 1;
nodes = (
"136 15 OFFCURVE",
"70 125 OFFCURVE",
"70 360 CURVE SMOOTH",
"70 557 OFFCURVE",
"117 700 OFFCURVE",
"267 700 CURVE SMOOTH",
"421 700 OFFCURVE",
"461 564 OFFCURVE",
"461 360 CURVE SMOOTH",
"461 127 OFFCURVE",
"403 15 OFFCURVE",
"266 15 CURVE SMOOTH"
);
}
);
width = 532;
},
{
layerId = "69591BDA-B7BB-4EAA-A50D-6786E2902B45";
name = Regular;
paths = (
{
closed = 1;
nodes = (
"456 -10 OFFCURVE",
"523 127 OFFCURVE",
"523 358 CURVE SMOOTH",
"523 590 OFFCURVE",
"445 725 OFFCURVE",
"285 725 CURVE SMOOTH",
"114 725 OFFCURVE",
"49 589 OFFCURVE",
"49 358 CURVE SMOOTH",
"49 127 OFFCURVE",
"124 -10 OFFCURVE",
"285 -10 CURVE SMOOTH"
);
},
{
closed = 1;
nodes = (
"177 65 OFFCURVE",
"137 162 OFFCURVE",
"137 358 CURVE SMOOTH",
"137 553 OFFCURVE",
"177 650 OFFCURVE",
"285 650 CURVE SMOOTH",
"392 650 OFFCURVE",
"434 553 OFFCURVE",
"434 358 CURVE SMOOTH",
"434 161 OFFCURVE",
"392 65 OFFCURVE",
"285 65 CURVE SMOOTH"
);
}
);
width = 572;
},
{
layerId = "85A3B11B-C6C2-4ADD-AADC-206FDA180DDF";
name = SemiBold;
paths = (
{
closed = 1;
nodes = (
"466 -10 OFFCURVE",
"533 127 OFFCURVE",
"533 357 CURVE SMOOTH",
"533 589 OFFCURVE",
"454 725 OFFCURVE",
"285 725 CURVE SMOOTH",
"104 725 OFFCURVE",
"38 588 OFFCURVE",
"38 357 CURVE SMOOTH",
"38 127 OFFCURVE",
"115 -10 OFFCURVE",
"285 -10 CURVE SMOOTH"
);
},
{
closed = 1;
nodes = (
"204 104 OFFCURVE",
"178 189 OFFCURVE",
"178 357 CURVE SMOOTH",
"178 525 OFFCURVE",
"204 611 OFFCURVE",
"285 611 CURVE SMOOTH",
"365 611 OFFCURVE",
"393 525 OFFCURVE",
"393 357 CURVE SMOOTH",
"393 188 OFFCURVE",
"365 104 OFFCURVE",
"285 104 CURVE SMOOTH"
);
}
);
width = 572;
},
{
layerId = "5D72C1FF-7D23-4150-B678-34DACF742A97";
name = Bold;
paths = (
{
closed = 1;
nodes = (
"484 -10 OFFCURVE",
"551 127 OFFCURVE",
"551 356 CURVE SMOOTH",
"551 588 OFFCURVE",
"471 724 OFFCURVE",
"293 724 CURVE SMOOTH",
"102 724 OFFCURVE",
"35 587 OFFCURVE",
"35 356 CURVE SMOOTH",
"35 127 OFFCURVE",
"114 -10 OFFCURVE",
"293 -10 CURVE SMOOTH"
);
},
{
closed = 1;
nodes = (
"240 145 OFFCURVE",
"228 217 OFFCURVE",
"228 356 CURVE SMOOTH",
"228 496 OFFCURVE",
"240 569 OFFCURVE",
"293 569 CURVE SMOOTH",
"346 569 OFFCURVE",
"358 496 OFFCURVE",
"358 356 CURVE SMOOTH",
"358 216 OFFCURVE",
"346 145 OFFCURVE",
"293 145 CURVE SMOOTH"
);
}
);
width = 586;
},
{
layerId = "E4D2B44F-BF62-4CBA-BED8-29547F064017";
name = "Light Condensed";
paths = (
{
closed = 1;
nodes = (
"308 -6 OFFCURVE",
"343 142 OFFCURVE",
"343 358 CURVE SMOOTH",
"343 570 OFFCURVE",
"308 724 OFFCURVE",
"197 724 CURVE SMOOTH",
"85 724 OFFCURVE",
"43 573 OFFCURVE",
"43 355 CURVE SMOOTH",
"43 139 OFFCURVE",
"86 -6 OFFCURVE",
"197 -6 CURVE SMOOTH"
);
},
{
closed = 1;
nodes = (
"106 19 OFFCURVE",
"69 157 OFFCURVE",
"69 358 CURVE SMOOTH",
"69 559 OFFCURVE",
"104 699 OFFCURVE",
"197 699 CURVE SMOOTH",
"288 699 OFFCURVE",
"317 554 OFFCURVE",
"317 357 CURVE SMOOTH",
"317 160 OFFCURVE",
"289 19 OFFCURVE",
"198 19 CURVE SMOOTH"
);
}
);
width = 387;
},
{
layerId = "0AADB627-CDB3-4A4A-B404-1AEF21746836";
name = Condensed;
paths = (
{
closed = 1;
nodes = (
"337 -10 OFFCURVE",
"387 126 OFFCURVE",
"387 357 CURVE SMOOTH",
"387 603 OFFCURVE",
"331 724 OFFCURVE",
"214 724 CURVE SMOOTH",
"98 724 OFFCURVE",
"41 604 OFFCURVE",
"41 357 CURVE SMOOTH",
"41 71 OFFCURVE",
"106 -10 OFFCURVE",
"214 -10 CURVE SMOOTH"
);
},
{
closed = 1;
nodes = (
"151 66 OFFCURVE",
"126 161 OFFCURVE",
"126 357 CURVE SMOOTH",
"126 553 OFFCURVE",
"151 648 OFFCURVE",
"214 648 CURVE SMOOTH",
"276 648 OFFCURVE",
"303 551 OFFCURVE",
"303 357 CURVE SMOOTH",
"303 162 OFFCURVE",
"276 66 OFFCURVE",
"214 66 CURVE SMOOTH"
);
}
);
width = 429;
},
{
layerId = "F54E95EF-1D6D-47A7-87BE-6145FFFB0374";
name = "SemiBold Condensed";
paths = (
{
closed = 1;
nodes = (
"378 -10 OFFCURVE",
"424 139 OFFCURVE",
"424 357 CURVE SMOOTH",
"424 601 OFFCURVE",
"359 724 OFFCURVE",
"231 724 CURVE SMOOTH",
"101 724 OFFCURVE",
"38 607 OFFCURVE",
"38 357 CURVE SMOOTH",
"38 93 OFFCURVE",
"105 -10 OFFCURVE",
"231 -10 CURVE SMOOTH"
);
},
{
closed = 1;
nodes = (
"180 102 OFFCURVE",
"164 183 OFFCURVE",
"164 357 CURVE SMOOTH",
"164 528 OFFCURVE",
"181 612 OFFCURVE",
"231 612 CURVE SMOOTH",
"281 612 OFFCURVE",
"297 527 OFFCURVE",
"297 357 CURVE SMOOTH",
"297 183 OFFCURVE",
"281 102 OFFCURVE",
"231 102 CURVE SMOOTH"
);
}
);
width = 462;
},
{
layerId = "9DAA8A68-E7B0-43B5-9380-0F5125A6FB33";
name = "Bold Condensed";
paths = (
{
closed = 1;
nodes = (
"418 -10 OFFCURVE",
"461 150 OFFCURVE",
"461 356 CURVE SMOOTH",
"461 600 OFFCURVE",
"389 724 OFFCURVE",
"247 724 CURVE SMOOTH",
"103 724 OFFCURVE",
"35 610 OFFCURVE",
"35 356 CURVE SMOOTH",
"35 114 OFFCURVE",
"106 -10 OFFCURVE",
"247 -10 CURVE SMOOTH"
);
},
{
closed = 1;
nodes = (
"210 138 OFFCURVE",
"203 203 OFFCURVE",
"203 356 CURVE SMOOTH",
"203 504 OFFCURVE",
"212 576 OFFCURVE",
"247 576 CURVE SMOOTH",
"286 576 OFFCURVE",
"293 504 OFFCURVE",
"293 356 CURVE SMOOTH",
"293 203 OFFCURVE",
"286 138 OFFCURVE",
"247 138 CURVE SMOOTH"
);
}
);
width = 496;
}
);
unicode = 0030;
},
{
color = 6;
export = 0;
glyphname = one;
lastChange = "2015-12-19 18:57:17 +0000";
layers = (
{
layerId = "F44648F3-14F4-405A-9B69-DB2444BD1A35";
name = Light;
paths = (
{
closed = 1;
nodes = (
"290 0 LINE",
"290 714 LINE",
"267 714 LINE",
"72 572 LINE",
"88 551 LINE",
"211 642 LINE SMOOTH",
"236 661 OFFCURVE",
"249 671 OFFCURVE",
"265 685 CURVE",
"264 658 OFFCURVE",
"264 620 OFFCURVE",
"264 563 CURVE SMOOTH",
"264 0 LINE"
);
}
);
width = 440;
},
{
layerId = "69591BDA-B7BB-4EAA-A50D-6786E2902B45";
name = Regular;
paths = (
{
closed = 1;
nodes = (
"355 0 LINE",
"355 714 LINE",
"282 714 LINE",
"89 564 LINE",
"135 505 LINE",
"211 567 LINE SMOOTH",
"237 589 OFFCURVE",
"252 600 OFFCURVE",
"273 622 CURVE",
"270 584 OFFCURVE",
"269 556 OFFCURVE",
"269 499 CURVE SMOOTH",
"269 0 LINE"
);
}
);
width = 572;
},
{
layerId = "85A3B11B-C6C2-4ADD-AADC-206FDA180DDF";
name = SemiBold;
paths = (
{
closed = 1;
nodes = (
"403 0 LINE",
"403 714 LINE",
"288 714 LINE",
"64 536 LINE",
"132 451 LINE",
"213 516 LINE SMOOTH",
"233 532 OFFCURVE",
"258 556 OFFCURVE",
"267 566 CURVE",
"265 524 OFFCURVE",
"263 465 OFFCURVE",
"263 427 CURVE SMOOTH",
"263 0 LINE"
);
}
);
width = 572;
},
{
layerId = "5D72C1FF-7D23-4150-B678-34DACF742A97";
name = Bold;
paths = (
{
closed = 1;
nodes = (
"461 0 LINE",
"461 714 LINE",
"286 714 LINE",
"41 514 LINE",
"141 390 LINE",
"222 457 LINE SMOOTH",
"236 469 OFFCURVE",
"250 482 OFFCURVE",
"267 503 CURVE",
"264 451 OFFCURVE",
"264 370 OFFCURVE",
"264 351 CURVE SMOOTH",
"264 0 LINE"
);
}
);
width = 586;
},
{
layerId = "E4D2B44F-BF62-4CBA-BED8-29547F064017";
name = "Light Condensed";
paths = (
{
closed = 1;
nodes = (
"234 0 LINE",
"234 714 LINE",
"212 714 LINE",
"72 588 LINE",
"89 569 LINE",
"168 640 LINE SMOOTH",
"184 654 OFFCURVE",
"195 664 OFFCURVE",
"208 681 CURVE",
"207 637 OFFCURVE",
"207 608 OFFCURVE",
"207 566 CURVE SMOOTH",
"207 0 LINE"
);
}
);
width = 384;
},
{
layerId = "0AADB627-CDB3-4A4A-B404-1AEF21746836";
name = Condensed;
paths = (
{
closed = 1;
nodes = (
"294 0 LINE",
"294 714 LINE",
"222 714 LINE",
"62 557 LINE",
"109 506 LINE",
"171 566 LINE SMOOTH",
"193 588 OFFCURVE",
"207 604 OFFCURVE",
"215 615 CURVE",
"213 570 OFFCURVE",
"211 524 OFFCURVE",
"211 481 CURVE SMOOTH",
"211 0 LINE"
);
}
);
width = 429;
},
{
layerId = "F54E95EF-1D6D-47A7-87BE-6145FFFB0374";
name = "SemiBold Condensed";
paths = (
{
closed = 1;
nodes = (
"348 0 LINE",
"348 714 LINE",
"236 714 LINE",
"49 521 LINE",
"124 447 LINE",
"186 510 LINE SMOOTH",
"204 529 OFFCURVE",
"216 545 OFFCURVE",
"225 557 CURVE",
"223 516 OFFCURVE",
"222 472 OFFCURVE",
"222 427 CURVE SMOOTH",
"222 0 LINE"
);
}
);
width = 462;
},
{
layerId = "9DAA8A68-E7B0-43B5-9380-0F5125A6FB33";
name = "Bold Condensed";
paths = (
{
closed = 1;
nodes = (
"401 0 LINE",
"401 714 LINE",
"250 714 LINE",
"38 486 LINE",
"139 389 LINE",
"201 456 LINE SMOOTH",
"215 472 OFFCURVE",
"226 487 OFFCURVE",
"235 501 CURVE",
"234 463 OFFCURVE",
"233 421 OFFCURVE",
"233 375 CURVE SMOOTH",
"233 0 LINE"
);
}
);
width = 496;
}
);
unicode = 0031;
},
{
color = 6;
export = 0;
glyphname = two;
lastChange = "2015-12-19 18:57:17 +0000";
layers = (
{
layerId = "F44648F3-14F4-405A-9B69-DB2444BD1A35";
name = Light;
paths = (
{
closed = 1;
nodes = (
"468 0 LINE",
"468 25 LINE",
"72 25 LINE",
"72 27 LINE",
"280 246 LINE SMOOTH",
"377 348 OFFCURVE",
"435 419 OFFCURVE",
"435 539 CURVE SMOOTH",
"435 652 OFFCURVE",
"362 724 OFFCURVE",
"247 724 CURVE SMOOTH",
"185 724 OFFCURVE",
"118 705 OFFCURVE",
"57 655 CURVE",
"72 635 LINE",
"125 678 OFFCURVE",
"188 699 OFFCURVE",
"245 699 CURVE SMOOTH",
"347 699 OFFCURVE",
"408 639 OFFCURVE",
"408 539 CURVE SMOOTH",
"408 428 OFFCURVE",
"357 362 OFFCURVE",
"260 260 CURVE SMOOTH",
"36 23 LINE",
"36 0 LINE"
);
}
);
width = 512;
},
{
layerId = "69591BDA-B7BB-4EAA-A50D-6786E2902B45";
name = Regular;
paths = (
{
closed = 1;
nodes = (
"520 0 LINE",
"520 80 LINE",
"159 80 LINE",
"159 84 LINE",
"308 231 LINE SMOOTH",
"418 339 OFFCURVE",
"491 422 OFFCURVE",
"491 534 CURVE SMOOTH",
"491 652 OFFCURVE",
"408 724 OFFCURVE",
"275 724 CURVE SMOOTH",
"184 724 OFFCURVE",
"112 687 OFFCURVE",
"56 640 CURVE",
"103 581 LINE",
"158 624 OFFCURVE",
"205 649 OFFCURVE",
"275 649 CURVE SMOOTH",
"350 649 OFFCURVE",
"401 607 OFFCURVE",
"401 529 CURVE SMOOTH",
"401 432 OFFCURVE",
"342 370 OFFCURVE",
"235 262 CURVE SMOOTH",
"48 73 LINE",
"48 0 LINE"
);
}
);
width = 572;
},
{
layerId = "85A3B11B-C6C2-4ADD-AADC-206FDA180DDF";
name = SemiBold;
paths = (
{
closed = 1;
nodes = (
"536 0 LINE",
"536 119 LINE",
"217 119 LINE",
"217 126 LINE",
"317 222 LINE SMOOTH",
"438 338 OFFCURVE",
"514 414 OFFCURVE",
"514 531 CURVE SMOOTH",
"514 643 OFFCURVE",
"429 724 OFFCURVE",
"290 724 CURVE SMOOTH",
"168 724 OFFCURVE",
"101 677 OFFCURVE",
"41 625 CURVE",
"117 534 LINE",
"174 581 OFFCURVE",
"223 606 OFFCURVE",
"281 606 CURVE SMOOTH",
"337 606 OFFCURVE",
"374 576 OFFCURVE",
"374 516 CURVE SMOOTH",
"374 441 OFFCURVE",
"329 392 OFFCURVE",
"221 282 CURVE SMOOTH",
"41 100 LINE",
"41 0 LINE"
);
}
);
width = 572;
},
{
layerId = "5D72C1FF-7D23-4150-B678-34DACF742A97";
name = Bold;
paths = (
{
closed = 1;
nodes = (
"548 0 LINE",
"548 160 LINE",
"279 160 LINE",
"279 165 LINE",
"330 211 LINE SMOOTH",
"467 334 OFFCURVE",
"534 405 OFFCURVE",
"534 529 CURVE SMOOTH",
"534 641 OFFCURVE",
"441 724 OFFCURVE",
"296 724 CURVE SMOOTH",
"154 724 OFFCURVE",
"86 667 OFFCURVE",
"22 610 CURVE",
"128 485 LINE",
"186 535 OFFCURVE",
"229 561 OFFCURVE",
"274 561 CURVE SMOOTH",
"310 561 OFFCURVE",
"342 543 OFFCURVE",
"342 502 CURVE SMOOTH",
"342 450 OFFCURVE",
"313 414 OFFCURVE",
"203 303 CURVE SMOOTH",
"30 128 LINE",
"30 0 LINE"
);
}
);
width = 586;
},
{
layerId = "E4D2B44F-BF62-4CBA-BED8-29547F064017";
name = "Light Condensed";
paths = (
{
closed = 1;
nodes = (
"343 0 LINE",
"343 24 LINE",
"70 24 LINE",
"70 27 LINE",
"203 220 LINE SMOOTH",
"272 320 OFFCURVE",
"326 416 OFFCURVE",
"326 539 CURVE SMOOTH",
"326 661 OFFCURVE",
"270 724 OFFCURVE",
"179 724 CURVE SMOOTH",
"129 724 OFFCURVE",
"83 705 OFFCURVE",
"51 681 CURVE",
"66 660 LINE",
"95 682 OFFCURVE",
"136 699 OFFCURVE",
"179 699 CURVE SMOOTH",
"250 699 OFFCURVE",
"299 652 OFFCURVE",
"299 538 CURVE SMOOTH",
"299 426 OFFCURVE",
"251 334 OFFCURVE",
"183 234 CURVE SMOOTH",
"36 19 LINE",
"36 0 LINE"
);
}
);
width = 387;
},
{
layerId = "0AADB627-CDB3-4A4A-B404-1AEF21746836";
name = Condensed;
paths = (
{
closed = 1;
nodes = (
"382 0 LINE",
"382 75 LINE",
"131 75 LINE",
"131 79 LINE",
"247 244 LINE SMOOTH",
"327 358 OFFCURVE",
"368 431 OFFCURVE",
"368 545 CURVE SMOOTH",
"368 651 OFFCURVE",
"304 724 OFFCURVE",
"197 724 CURVE SMOOTH",
"134 724 OFFCURVE",
"89 705 OFFCURVE",
"38 657 CURVE",
"81 599 LINE",
"117 635 OFFCURVE",
"148 649 OFFCURVE",
"190 649 CURVE SMOOTH",
"251 649 OFFCURVE",
"284 606 OFFCURVE",
"284 542 CURVE SMOOTH",
"284 450 OFFCURVE",
"259 393 OFFCURVE",
"174 269 CURVE SMOOTH",
"33 62 LINE",
"33 0 LINE"
);
}
);
width = 429;
},
{
layerId = "F54E95EF-1D6D-47A7-87BE-6145FFFB0374";
name = "SemiBold Condensed";
paths = (
{
closed = 1;
nodes = (
"412 0 LINE",
"412 111 LINE",
"179 111 LINE",
"179 116 LINE",
"277 247 LINE SMOOTH",
"366 366 OFFCURVE",
"401 436 OFFCURVE",
"401 534 CURVE SMOOTH",
"401 648 OFFCURVE",
"326 724 OFFCURVE",
"214 724 CURVE SMOOTH",
"140 724 OFFCURVE",
"86 699 OFFCURVE",
"29 633 CURVE",
"91 549 LINE",
"131 597 OFFCURVE",
"161 613 OFFCURVE",
"199 613 CURVE SMOOTH",
"248 613 OFFCURVE",
"274 579 OFFCURVE",
"274 527 CURVE SMOOTH",
"274 458 OFFCURVE",
"252 408 OFFCURVE",
"166 285 CURVE SMOOTH",
"30 91 LINE",
"30 0 LINE"
);
}
);
width = 462;
},
{
layerId = "9DAA8A68-E7B0-43B5-9380-0F5125A6FB33";
name = "Bold Condensed";
paths = (
{
closed = 1;
nodes = (
"443 0 LINE",
"443 147 LINE",
"227 147 LINE",
"227 152 LINE",
"309 250 LINE SMOOTH",
"410 371 OFFCURVE",
"433 441 OFFCURVE",
"433 524 CURVE SMOOTH",
"433 645 OFFCURVE",
"346 724 OFFCURVE",
"229 724 CURVE SMOOTH",
"146 724 OFFCURVE",
"84 694 OFFCURVE",
"20 610 CURVE",
"101 500 LINE",
"145 559 OFFCURVE",
"175 577 OFFCURVE",
"209 577 CURVE SMOOTH",
"247 577 OFFCURVE",
"265 552 OFFCURVE",
"265 513 CURVE SMOOTH",
"265 465 OFFCURVE",
"251 421 OFFCURVE",
"161 300 CURVE SMOOTH",
"26 120 LINE",
"26 0 LINE"
);
}
);
width = 496;
}
);
unicode = 0032;
},
{
color = 6;
export = 0;
glyphname = three;
lastChange = "2015-12-19 18:57:17 +0000";
layers = (
{
layerId = "F44648F3-14F4-405A-9B69-DB2444BD1A35";
name = Light;
paths = (
{
closed = 1;
nodes = (
"397 -10 OFFCURVE",
"482 72 OFFCURVE",
"482 194 CURVE SMOOTH",
"482 300 OFFCURVE",
"419 358 OFFCURVE",
"308 373 CURVE",
"308 375 LINE",
"395 390 OFFCURVE",
"460 457 OFFCURVE",
"460 551 CURVE SMOOTH",
"460 665 OFFCURVE",
"383 724 OFFCURVE",
"263 724 CURVE SMOOTH",
"175 724 OFFCURVE",
"104 695 OFFCURVE",
"45 650 CURVE",
"59 629 LINE",
"124 676 OFFCURVE",
"188 699 OFFCURVE",
"263 699 CURVE SMOOTH",
"365 699 OFFCURVE",
"433 651 OFFCURVE",
"433 551 CURVE SMOOTH",
"433 435 OFFCURVE",
"335 384 OFFCURVE",
"229 384 CURVE SMOOTH",
"146 384 LINE",
"146 359 LINE",
"229 359 LINE SMOOTH",
"362 359 OFFCURVE",
"455 314 OFFCURVE",
"455 194 CURVE SMOOTH",
"455 85 OFFCURVE",
"381 15 OFFCURVE",
"237 15 CURVE SMOOTH",
"163 15 OFFCURVE",
"87 35 OFFCURVE",
"37 60 CURVE",
"37 32 LINE",
"88 8 OFFCURVE",
"155 -10 OFFCURVE",
"237 -10 CURVE SMOOTH"
);
}
);
width = 531;
},
{
layerId = "69591BDA-B7BB-4EAA-A50D-6786E2902B45";
name = Regular;
paths = (
{
closed = 1;
nodes = (
"430 -10 OFFCURVE",
"515 78 OFFCURVE",
"515 203 CURVE SMOOTH",
"515 297 OFFCURVE",
"459 358 OFFCURVE",
"345 372 CURVE",
"345 376 LINE",
"435 394 OFFCURVE",
"493 451 OFFCURVE",
"493 547 CURVE SMOOTH",
"493 649 OFFCURVE",
"421 724 OFFCURVE",
"272 724 CURVE SMOOTH",
"176 724 OFFCURVE",
"100 690 OFFCURVE",
"49 650 CURVE",
"93 590 LINE",
"146 625 OFFCURVE",
"196 650 OFFCURVE",
"273 650 CURVE SMOOTH",
"353 650 OFFCURVE",
"403 610 OFFCURVE",
"403 541 CURVE SMOOTH",
"403 460 OFFCURVE",
"341 406 OFFCURVE",
"224 406 CURVE SMOOTH",
"154 406 LINE",
"154 331 LINE",
"223 331 LINE SMOOTH",
"349 331 OFFCURVE",
"423 294 OFFCURVE",
"423 205 CURVE SMOOTH",
"423 117 OFFCURVE",
"370 64 OFFCURVE",
"242 64 CURVE SMOOTH",
"178 64 OFFCURVE",
"105 81 OFFCURVE",
"45 111 CURVE",
"45 29 LINE",
"104 0 OFFCURVE",
"166 -10 OFFCURVE",
"241 -10 CURVE SMOOTH"
);
}
);
width = 572;
},
{
layerId = "85A3B11B-C6C2-4ADD-AADC-206FDA180DDF";
name = SemiBold;
paths = (
{
closed = 1;
nodes = (
"442 -10 OFFCURVE",
"529 82 OFFCURVE",
"529 207 CURVE SMOOTH",
"529 301 OFFCURVE",
"469 359 OFFCURVE",
"355 373 CURVE",
"355 376 LINE",
"443 397 OFFCURVE",
"508 454 OFFCURVE",
"508 553 CURVE SMOOTH",
"508 660 OFFCURVE",
"419 724 OFFCURVE",
"272 724 CURVE SMOOTH",
"169 724 OFFCURVE",
"96 693 OFFCURVE",
"41 653 CURVE",
"106 557 LINE",
"143 581 OFFCURVE",
"193 610 OFFCURVE",
"263 610 CURVE SMOOTH",
"337 610 OFFCURVE",
"370 578 OFFCURVE",
"370 524 CURVE SMOOTH",
"370 464 OFFCURVE",
"336 422 OFFCURVE",
"206 422 CURVE SMOOTH",
"149 422 LINE",
"149 313 LINE",
"205 313 LINE SMOOTH",
"338 313 OFFCURVE",
"382 279 OFFCURVE",
"382 215 CURVE SMOOTH",
"382 144 OFFCURVE",
"342 102 OFFCURVE",
"230 102 CURVE SMOOTH",
"171 102 OFFCURVE",
"100 119 OFFCURVE",
"39 149 CURVE",
"39 29 LINE",
"99 3 OFFCURVE",
"165 -10 OFFCURVE",
"244 -10 CURVE SMOOTH"
);
}
);
width = 572;
},
{
layerId = "5D72C1FF-7D23-4150-B678-34DACF742A97";
name = Bold;
paths = (
{
closed = 1;
nodes = (
"454 -10 OFFCURVE",
"545 87 OFFCURVE",
"545 204 CURVE SMOOTH",
"545 305 OFFCURVE",
"480 359 OFFCURVE",
"366 373 CURVE",
"366 376 LINE",
"451 399 OFFCURVE",
"524 457 OFFCURVE",
"524 559 CURVE SMOOTH",
"524 662 OFFCURVE",
"434 724 OFFCURVE",
"287 724 CURVE SMOOTH",
"163 724 OFFCURVE",
"94 692 OFFCURVE",
"35 652 CURVE",
"115 522 LINE",
"136 535 OFFCURVE",
"192 568 OFFCURVE",
"257 568 CURVE SMOOTH",
"304 568 OFFCURVE",
"336 550 OFFCURVE",
"336 513 CURVE SMOOTH",
"336 469 OFFCURVE",
"298 438 OFFCURVE",
"190 438 CURVE SMOOTH",
"145 438 LINE",
"145 293 LINE",
"189 293 LINE SMOOTH",
"311 293 OFFCURVE",
"340 264 OFFCURVE",
"340 216 CURVE SMOOTH",
"340 172 OFFCURVE",
"312 143 OFFCURVE",
"219 143 CURVE SMOOTH",
"165 143 OFFCURVE",
"96 158 OFFCURVE",
"34 190 CURVE",
"34 29 LINE",
"95 5 OFFCURVE",
"155 -10 OFFCURVE",
"247 -10 CURVE SMOOTH"
);
}
);
width = 586;
},
{
layerId = "E4D2B44F-BF62-4CBA-BED8-29547F064017";
name = "Light Condensed";
paths = (
{
closed = 1;
nodes = (
"288 -10 OFFCURVE",
"344 69 OFFCURVE",
"344 183 CURVE SMOOTH",
"344 292 OFFCURVE",
"293 351 OFFCURVE",
"219 370 CURVE",
"219 373 LINE",
"276 394 OFFCURVE",
"335 453 OFFCURVE",
"335 554 CURVE SMOOTH",
"335 660 OFFCURVE",
"271 724 OFFCURVE",
"176 724 CURVE SMOOTH",
"115 724 OFFCURVE",
"71 698 OFFCURVE",
"37 666 CURVE",
"53 647 LINE",
"86 678 OFFCURVE",
"125 700 OFFCURVE",
"176 700 CURVE SMOOTH",
"255 700 OFFCURVE",
"308 647 OFFCURVE",
"308 554 CURVE SMOOTH",
"308 447 OFFCURVE",
"239 383 OFFCURVE",
"157 383 CURVE SMOOTH",
"113 383 LINE",
"113 358 LINE",
"155 358 LINE SMOOTH",
"239 358 OFFCURVE",
"316 313 OFFCURVE",
"316 184 CURVE SMOOTH",
"316 77 OFFCURVE",
"263 14 OFFCURVE",
"169 14 CURVE SMOOTH",
"122 14 OFFCURVE",
"74 30 OFFCURVE",
"41 46 CURVE",
"41 19 LINE",
"79 1 OFFCURVE",
"124 -10 OFFCURVE",
"169 -10 CURVE SMOOTH"
);
}
);
width = 393;
},
{
layerId = "0AADB627-CDB3-4A4A-B404-1AEF21746836";
name = Condensed;
paths = (
{
closed = 1;
nodes = (
"309 -10 OFFCURVE",
"381 73 OFFCURVE",
"381 196 CURVE SMOOTH",
"381 290 OFFCURVE",
"335 353 OFFCURVE",
"251 371 CURVE",
"251 375 LINE",
"329 403 OFFCURVE",
"369 466 OFFCURVE",
"369 550 CURVE SMOOTH",
"369 657 OFFCURVE",
"306 724 OFFCURVE",
"202 724 CURVE SMOOTH",
"137 724 OFFCURVE",
"87 706 OFFCURVE",
"35 658 CURVE",
"75 600 LINE",
"113 634 OFFCURVE",
"144 651 OFFCURVE",
"191 651 CURVE SMOOTH",
"252 651 OFFCURVE",
"286 611 OFFCURVE",
"286 541 CURVE SMOOTH",
"286 460 OFFCURVE",
"236 405 OFFCURVE",
"152 405 CURVE SMOOTH",
"113 405 LINE",
"113 332 LINE",
"149 332 LINE SMOOTH",
"247 332 OFFCURVE",
"294 285 OFFCURVE",
"294 200 CURVE SMOOTH",
"294 119 OFFCURVE",
"257 63 OFFCURVE",
"177 63 CURVE SMOOTH",
"129 63 OFFCURVE",
"81 76 OFFCURVE",
"38 102 CURVE",
"38 19 LINE",
"81 -1 OFFCURVE",
"126 -10 OFFCURVE",
"185 -10 CURVE SMOOTH"
);
}
);
width = 429;
},
{
layerId = "F54E95EF-1D6D-47A7-87BE-6145FFFB0374";
name = "SemiBold Condensed";
paths = (
{
closed = 1;
nodes = (
"335 -10 OFFCURVE",
"418 72 OFFCURVE",
"418 200 CURVE SMOOTH",
"418 293 OFFCURVE",
"372 353 OFFCURVE",
"284 372 CURVE",
"284 375 LINE",
"362 404 OFFCURVE",
"404 466 OFFCURVE",
"404 544 CURVE SMOOTH",
"404 660 OFFCURVE",
"334 724 OFFCURVE",
"221 724 CURVE SMOOTH",
"146 724 OFFCURVE",
"91 706 OFFCURVE",
"33 658 CURVE",
"84 567 LINE",
"123 599 OFFCURVE",
"157 615 OFFCURVE",
"198 615 CURVE SMOOTH",
"251 615 OFFCURVE",
"280 585 OFFCURVE",
"280 530 CURVE SMOOTH",
"280 462 OFFCURVE",
"235 420 OFFCURVE",
"152 420 CURVE SMOOTH",
"115 420 LINE",
"115 314 LINE",
"151 314 LINE SMOOTH",
"244 314 OFFCURVE",
"286 279 OFFCURVE",
"286 206 CURVE SMOOTH",
"286 139 OFFCURVE",
"252 99 OFFCURVE",
"178 99 CURVE SMOOTH",
"132 99 OFFCURVE",
"82 114 OFFCURVE",
"34 142 CURVE",
"34 23 LINE",
"89 -2 OFFCURVE",
"134 -10 OFFCURVE",
"196 -10 CURVE SMOOTH"
);
}
);
width = 462;
},
{
layerId = "9DAA8A68-E7B0-43B5-9380-0F5125A6FB33";
name = "Bold Condensed";
paths = (
{
closed = 1;
nodes = (
"359 -10 OFFCURVE",
"454 71 OFFCURVE",
"454 204 CURVE SMOOTH",
"454 297 OFFCURVE",
"408 353 OFFCURVE",
"315 373 CURVE",
"315 376 LINE",
"394 405 OFFCURVE",
"438 466 OFFCURVE",
"438 538 CURVE SMOOTH",
"438 663 OFFCURVE",
"362 724 OFFCURVE",
"239 724 CURVE SMOOTH",
"154 724 OFFCURVE",
"94 706 OFFCURVE",
"31 657 CURVE",
"92 534 LINE",
"132 564 OFFCURVE",
"169 579 OFFCURVE",
"203 579 CURVE SMOOTH",
"250 579 OFFCURVE",
"273 561 OFFCURVE",
"273 520 CURVE SMOOTH",
"273 463 OFFCURVE",
"233 435 OFFCURVE",
"152 435 CURVE SMOOTH",
"115 435 LINE",
"115 296 LINE",
"151 296 LINE SMOOTH",
"241 296 OFFCURVE",
"276 273 OFFCURVE",
"276 211 CURVE SMOOTH",
"276 158 OFFCURVE",
"246 135 OFFCURVE",
"179 135 CURVE SMOOTH",
"135 135 OFFCURVE",
"81 150 OFFCURVE",
"30 182 CURVE",
"30 27 LINE",
"95 -2 OFFCURVE",
"141 -10 OFFCURVE",
"206 -10 CURVE SMOOTH"
);
}
);
width = 496;
}
);
unicode = 0033;
},
{
color = 6;
export = 0;
glyphname = four;
lastChange = "2015-12-19 18:57:17 +0000";
layers = (
{
layerId = "F44648F3-14F4-405A-9B69-DB2444BD1A35";
name = Light;
paths = (
{
closed = 1;
nodes = (
"419 0 LINE",
"419 194 LINE",
"553 194 LINE",
"553 219 LINE",
"419 219 LINE",
"419 718 LINE",
"391 718 LINE",
"18 212 LINE",
"18 194 LINE",
"393 194 LINE",
"393 0 LINE"
);
},
{
closed = 1;
nodes = (
"328 592 LINE SMOOTH",
"358 633 OFFCURVE",
"369 650 OFFCURVE",
"392 686 CURVE",
"394 686 LINE",
"393 635 OFFCURVE",
"393 610 OFFCURVE",
"393 524 CURVE SMOOTH",
"393 219 LINE",
"54 219 LINE"
);
}
);
width = 566;
},
{
layerId = "69591BDA-B7BB-4EAA-A50D-6786E2902B45";
name = Regular;
paths = (
{
closed = 1;
nodes = (
"448 0 LINE",
"448 162 LINE",
"552 162 LINE",
"552 241 LINE",
"448 241 LINE",
"448 718 LINE",
"357 718 LINE",
"21 237 LINE",
"21 162 LINE",
"363 162 LINE",
"363 0 LINE"
);
},
{
closed = 1;
nodes = (
"321 546 LINE SMOOTH",
"335 566 OFFCURVE",
"353 599 OFFCURVE",
"364 624 CURVE",
"368 624 LINE",
"366 580 OFFCURVE",
"363 535 OFFCURVE",
"363 466 CURVE SMOOTH",
"363 241 LINE",
"107 241 LINE"
);
}
);
width = 572;
},
{
layerId = "85A3B11B-C6C2-4ADD-AADC-206FDA180DDF";
name = SemiBold;
paths = (
{
closed = 1;
nodes = (
"466 0 LINE",
"466 150 LINE",
"555 150 LINE",
"555 261 LINE",
"466 261 LINE",
"466 715 LINE",
"334 715 LINE",
"18 250 LINE",
"18 150 LINE",
"329 150 LINE",
"329 0 LINE"
);
},
{
closed = 1;
nodes = (
"288 477 LINE SMOOTH",
"305 502 OFFCURVE",
"319 528 OFFCURVE",
"331 555 CURVE",
"335 555 LINE",
"333 532 OFFCURVE",
"329 449 OFFCURVE",
"329 399 CURVE SMOOTH",
"329 261 LINE",
"143 261 LINE"
);
}
);
width = 572;
},
{
layerId = "5D72C1FF-7D23-4150-B678-34DACF742A97";
name = Bold;
paths = (
{
closed = 1;
nodes = (
"493 0 LINE",
"493 138 LINE",
"571 138 LINE",
"571 282 LINE",
"493 282 LINE",
"493 714 LINE",
"314 714 LINE",
"17 281 LINE",
"17 138 LINE",
"301 138 LINE",
"301 0 LINE"
);
},
{
closed = 1;
nodes = (
"263 398 LINE SMOOTH",
"280 424 OFFCURVE",
"287 439 OFFCURVE",
"300 468 CURVE",
"305 468 LINE",
"302 438 OFFCURVE",
"301 394 OFFCURVE",
"301 364 CURVE SMOOTH",
"301 282 LINE",
"185 282 LINE"
);
}
);
width = 586;
},
{
layerId = "E4D2B44F-BF62-4CBA-BED8-29547F064017";
name = "Light Condensed";
paths = (
{
closed = 1;
nodes = (
"298 0 LINE",
"298 176 LINE",
"388 176 LINE",
"388 201 LINE",
"298 201 LINE",
"298 718 LINE",
"270 718 LINE",
"18 201 LINE",
"18 176 LINE",
"272 176 LINE",
"272 0 LINE"
);
},
{
closed = 1;
nodes = (
"228 576 LINE SMOOTH",
"243 607 OFFCURVE",
"260 642 OFFCURVE",
"272 677 CURVE",
"273 677 LINE",
"272 655 OFFCURVE",
"272 642 OFFCURVE",
"272 617 CURVE SMOOTH",
"272 201 LINE",
"46 201 LINE"
);
}
);
width = 401;
},
{
layerId = "0AADB627-CDB3-4A4A-B404-1AEF21746836";
name = Condensed;
paths = (
{
closed = 1;
nodes = (
"341 0 LINE",
"341 155 LINE",
"415 155 LINE",
"415 226 LINE",
"341 226 LINE",
"341 720 LINE",
"252 720 LINE",
"17 223 LINE",
"17 155 LINE",
"259 155 LINE",
"259 0 LINE"
);
},
{
closed = 1;
nodes = (
"225 525 LINE SMOOTH",
"237 552 OFFCURVE",
"248 580 OFFCURVE",
"259 611 CURVE",
"262 611 LINE",
"261 583 OFFCURVE",
"259 529 OFFCURVE",
"259 498 CURVE SMOOTH",
"259 226 LINE",
"91 226 LINE"
);
}
);
width = 429;
},
{
layerId = "F54E95EF-1D6D-47A7-87BE-6145FFFB0374";
name = "SemiBold Condensed";
paths = (
{
closed = 1;
nodes = (
"378 0 LINE",
"378 147 LINE",
"450 147 LINE",
"450 251 LINE",
"378 251 LINE",
"378 717 LINE",
"252 717 LINE",
"17 248 LINE",
"17 147 LINE",
"254 147 LINE",
"254 0 LINE"
);
},
{
closed = 1;
nodes = (
"221 463 LINE SMOOTH",
"233 487 OFFCURVE",
"243 513 OFFCURVE",
"252 542 CURVE",
"256 542 LINE",
"255 527 OFFCURVE",
"253 455 OFFCURVE",
"253 434 CURVE SMOOTH",
"253 251 LINE",
"120 251 LINE"
);
}
);
width = 462;
},
{
layerId = "9DAA8A68-E7B0-43B5-9380-0F5125A6FB33";
name = "Bold Condensed";
paths = (
{
closed = 1;
nodes = (
"413 0 LINE",
"413 138 LINE",
"483 138 LINE",
"483 275 LINE",
"413 275 LINE",
"413 714 LINE",
"252 714 LINE",
"16 272 LINE",
"16 138 LINE",
"248 138 LINE",
"248 0 LINE"
);
},
{
closed = 1;
nodes = (
"218 405 LINE SMOOTH",
"229 425 OFFCURVE",
"239 448 OFFCURVE",
"247 476 CURVE",
"251 476 LINE",
"250 473 OFFCURVE",
"248 383 OFFCURVE",
"248 371 CURVE SMOOTH",
"248 275 LINE",
"150 275 LINE"
);
}
);
width = 496;
}
);
unicode = 0034;
},
{
color = 6;
export = 0;
glyphname = five;
lastChange = "2015-12-19 18:57:17 +0000";
layers = (
{
layerId = "F44648F3-14F4-405A-9B69-DB2444BD1A35";
name = Light;
paths = (
{
closed = 1;
nodes = (
"380 -10 OFFCURVE",
"479 76 OFFCURVE",
"479 217 CURVE SMOOTH",
"479 354 OFFCURVE",
"394 426 OFFCURVE",
"248 426 CURVE SMOOTH",
"180 426 OFFCURVE",
"133 415 OFFCURVE",
"100 408 CURVE",
"125 689 LINE",
"436 689 LINE",
"436 714 LINE",
"102 714 LINE",
"72 393 LINE",
"91 378 LINE",
"140 392 OFFCURVE",
"186 401 OFFCURVE",
"248 401 CURVE SMOOTH",
"382 401 OFFCURVE",
"452 331 OFFCURVE",
"452 217 CURVE SMOOTH",
"452 90 OFFCURVE",
"363 15 OFFCURVE",
"227 15 CURVE SMOOTH",
"154 15 OFFCURVE",
"93 35 OFFCURVE",
"48 62 CURVE",
"48 32 LINE",
"90 8 OFFCURVE",
"148 -10 OFFCURVE",
"227 -10 CURVE SMOOTH"
);
}
);
width = 524;
},
{
layerId = "69591BDA-B7BB-4EAA-A50D-6786E2902B45";
name = Regular;
paths = (
{
closed = 1;
nodes = (
"416 -10 OFFCURVE",
"515 80 OFFCURVE",
"515 228 CURVE SMOOTH",
"515 361 OFFCURVE",
"421 438 OFFCURVE",
"275 438 CURVE SMOOTH",
"228 438 OFFCURVE",
"188 431 OFFCURVE",
"165 427 CURVE",
"182 634 LINE",
"465 634 LINE",
"465 714 LINE",
"107 714 LINE",
"80 377 LINE",
"124 349 LINE",
"153 356 OFFCURVE",
"208 364 OFFCURVE",
"246 364 CURVE SMOOTH",
"370 364 OFFCURVE",
"425 312 OFFCURVE",
"425 219 CURVE SMOOTH",
"425 114 OFFCURVE",
"354 65 OFFCURVE",
"249 65 CURVE SMOOTH",
"186 65 OFFCURVE",
"111 83 OFFCURVE",
"63 112 CURVE",
"63 29 LINE",
"107 3 OFFCURVE",
"174 -10 OFFCURVE",
"248 -10 CURVE SMOOTH"
);
}
);
width = 572;
},
{
layerId = "85A3B11B-C6C2-4ADD-AADC-206FDA180DDF";
name = SemiBold;
paths = (
{
closed = 1;
nodes = (
"427 -10 OFFCURVE",
"524 83 OFFCURVE",
"524 237 CURVE SMOOTH",
"524 377 OFFCURVE",
"429 453 OFFCURVE",
"296 453 CURVE SMOOTH",
"249 453 OFFCURVE",
"224 447 OFFCURVE",
"202 443 CURVE",
"215 594 LINE",
"475 594 LINE",
"475 714 LINE",
"93 714 LINE",
"66 354 LINE",
"123 323 LINE",
"150 330 OFFCURVE",
"196 339 OFFCURVE",
"233 339 CURVE SMOOTH",
"335 339 OFFCURVE",
"382 299 OFFCURVE",
"382 225 CURVE SMOOTH",
"382 142 OFFCURVE",
"330 105 OFFCURVE",
"238 105 CURVE SMOOTH",
"177 105 OFFCURVE",
"100 125 OFFCURVE",
"51 151 CURVE",
"51 29 LINE",
"99 3 OFFCURVE",
"167 -10 OFFCURVE",
"242 -10 CURVE SMOOTH"
);
}
);
width = 572;
},
{
layerId = "5D72C1FF-7D23-4150-B678-34DACF742A97";
name = Bold;
paths = (
{
closed = 1;
nodes = (
"445 -10 OFFCURVE",
"540 78 OFFCURVE",
"540 238 CURVE SMOOTH",
"540 385 OFFCURVE",
"443 468 OFFCURVE",
"325 468 CURVE SMOOTH",
"278 468 OFFCURVE",
"262 463 OFFCURVE",
"241 459 CURVE",
"250 552 LINE",
"492 552 LINE",
"492 714 LINE",
"85 714 LINE",
"58 337 LINE",
"129 302 LINE",
"155 310 OFFCURVE",
"191 319 OFFCURVE",
"227 319 CURVE SMOOTH",
"305 319 OFFCURVE",
"344 286 OFFCURVE",
"344 232 CURVE SMOOTH",
"344 174 OFFCURVE",
"304 143 OFFCURVE",
"234 143 CURVE SMOOTH",
"175 143 OFFCURVE",
"96 165 OFFCURVE",
"46 188 CURVE",
"46 29 LINE",
"99 3 OFFCURVE",
"167 -10 OFFCURVE",
"250 -10 CURVE SMOOTH"
);
}
);
width = 586;
},
{
layerId = "E4D2B44F-BF62-4CBA-BED8-29547F064017";
name = "Light Condensed";
paths = (
{
closed = 1;
nodes = (
"292 -9 OFFCURVE",
"350 92 OFFCURVE",
"350 222 CURVE SMOOTH",
"350 341 OFFCURVE",
"302 425 OFFCURVE",
"182 425 CURVE SMOOTH",
"141 425 OFFCURVE",
"104 415 OFFCURVE",
"81 407 CURVE",
"102 688 LINE",
"313 688 LINE",
"313 714 LINE",
"79 714 LINE",
"55 392 LINE",
"71 377 LINE",
"96 388 OFFCURVE",
"138 399 OFFCURVE",
"180 399 CURVE SMOOTH",
"285 399 OFFCURVE",
"322 329 OFFCURVE",
"322 222 CURVE SMOOTH",
"322 109 OFFCURVE",
"274 17 OFFCURVE",
"162 17 CURVE SMOOTH",
"115 17 OFFCURVE",
"74 33 OFFCURVE",
"48 50 CURVE",
"48 19 LINE",
"75 3 OFFCURVE",
"117 -9 OFFCURVE",
"162 -9 CURVE SMOOTH"
);
}
);
width = 395;
},
{
layerId = "0AADB627-CDB3-4A4A-B404-1AEF21746836";
name = Condensed;
paths = (
{
closed = 1;
nodes = (
"313 -10 OFFCURVE",
"385 87 OFFCURVE",
"385 230 CURVE SMOOTH",
"385 354 OFFCURVE",
"319 439 OFFCURVE",
"211 439 CURVE SMOOTH",
"187 439 OFFCURVE",
"160 436 OFFCURVE",
"132 430 CURVE",
"146 638 LINE",
"346 638 LINE",
"346 714 LINE",
"76 714 LINE",
"55 384 LINE",
"88 352 LINE",
"120 362 OFFCURVE",
"151 368 OFFCURVE",
"182 368 CURVE SMOOTH",
"256 368 OFFCURVE",
"300 320 OFFCURVE",
"300 227 CURVE SMOOTH",
"300 138 OFFCURVE",
"259 63 OFFCURVE",
"174 63 CURVE SMOOTH",
"131 63 OFFCURVE",
"87 78 OFFCURVE",
"49 103 CURVE",
"49 20 LINE",
"82 0 OFFCURVE",
"125 -10 OFFCURVE",
"180 -10 CURVE SMOOTH"
);
}
);
width = 429;
},
{
layerId = "F54E95EF-1D6D-47A7-87BE-6145FFFB0374";
name = "SemiBold Condensed";
paths = (
{
closed = 1;
nodes = (
"343 -10 OFFCURVE",
"418 82 OFFCURVE",
"418 234 CURVE SMOOTH",
"418 364 OFFCURVE",
"349 454 OFFCURVE",
"245 454 CURVE SMOOTH",
"225 454 OFFCURVE",
"202 452 OFFCURVE",
"173 445 CURVE",
"184 602 LINE",
"381 602 LINE",
"381 714 LINE",
"78 714 LINE",
"57 364 LINE",
"100 330 LINE",
"129 341 OFFCURVE",
"158 347 OFFCURVE",
"185 347 CURVE SMOOTH",
"253 347 OFFCURVE",
"290 306 OFFCURVE",
"290 230 CURVE SMOOTH",
"290 153 OFFCURVE",
"255 99 OFFCURVE",
"185 99 CURVE SMOOTH",
"140 99 OFFCURVE",
"90 116 OFFCURVE",
"49 141 CURVE",
"49 23 LINE",
"88 1 OFFCURVE",
"135 -10 OFFCURVE",
"193 -10 CURVE SMOOTH"
);
}
);
width = 462;
},
{
layerId = "9DAA8A68-E7B0-43B5-9380-0F5125A6FB33";
name = "Bold Condensed";
paths = (
{
closed = 1;
nodes = (
"374 -10 OFFCURVE",
"453 78 OFFCURVE",
"453 238 CURVE SMOOTH",
"453 374 OFFCURVE",
"380 468 OFFCURVE",
"280 468 CURVE SMOOTH",
"265 468 OFFCURVE",
"243 467 OFFCURVE",
"215 459 CURVE",
"222 566 LINE",
"417 566 LINE",
"417 714 LINE",
"80 714 LINE",
"59 345 LINE",
"112 310 LINE",
"140 321 OFFCURVE",
"165 327 OFFCURVE",
"189 327 CURVE SMOOTH",
"251 327 OFFCURVE",
"282 292 OFFCURVE",
"282 232 CURVE SMOOTH",
"282 167 OFFCURVE",
"251 135 OFFCURVE",
"196 135 CURVE SMOOTH",
"150 135 OFFCURVE",
"95 154 OFFCURVE",
"50 180 CURVE",
"50 27 LINE",
"94 2 OFFCURVE",
"146 -10 OFFCURVE",
"207 -10 CURVE SMOOTH"
);
}
);
width = 496;
}
);
unicode = 0035;
},
{
color = 6;
export = 0;
glyphname = six;
lastChange = "2015-12-19 18:57:17 +0000";
layers = (
{
layerId = "F44648F3-14F4-405A-9B69-DB2444BD1A35";
name = Light;
paths = (
{
closed = 1;
nodes = (
"416 -10 OFFCURVE",
"494 86 OFFCURVE",
"494 225 CURVE SMOOTH",
"494 355 OFFCURVE",
"419 439 OFFCURVE",
"287 439 CURVE SMOOTH",
"172 439 OFFCURVE",
"102 378 OFFCURVE",
"76 322 CURVE",
"74 322 LINE",
"80 604 OFFCURVE",
"199 701 OFFCURVE",
"348 701 CURVE SMOOTH",
"388 701 OFFCURVE",
"422 695 OFFCURVE",
"446 686 CURVE",
"446 713 LINE",
"419 721 OFFCURVE",
"388 726 OFFCURVE",
"348 726 CURVE SMOOTH",
"177 726 OFFCURVE",
"49 608 OFFCURVE",
"49 303 CURVE SMOOTH",
"49 147 OFFCURVE",
"108 -10 OFFCURVE",
"280 -10 CURVE SMOOTH"
);
},
{
closed = 1;
nodes = (
"118 15 OFFCURVE",
"81 179 OFFCURVE",
"81 258 CURVE SMOOTH",
"81 325 OFFCURVE",
"159 414 OFFCURVE",
"285 414 CURVE SMOOTH",
"407 414 OFFCURVE",
"467 342 OFFCURVE",
"467 225 CURVE SMOOTH",
"467 95 OFFCURVE",
"401 15 OFFCURVE",
"280 15 CURVE SMOOTH"
);
}
);
width = 538;
},
{
layerId = "69591BDA-B7BB-4EAA-A50D-6786E2902B45";
name = Regular;
paths = (
{
closed = 1;
nodes = (
"437 -10 OFFCURVE",
"525 81 OFFCURVE",
"525 230 CURVE SMOOTH",
"525 368 OFFCURVE",
"442 447 OFFCURVE",
"318 447 CURVE SMOOTH",
"232 447 OFFCURVE",
"179 410 OFFCURVE",
"149 363 CURVE",
"143 363 LINE",
"150 519 OFFCURVE",
"199 652 OFFCURVE",
"384 652 CURVE SMOOTH",
"414 652 OFFCURVE",
"446 648 OFFCURVE",
"470 640 CURVE",
"470 715 LINE",
"448 721 OFFCURVE",
"410 724 OFFCURVE",
"382 724 CURVE SMOOTH",
"113 724 OFFCURVE",
"55 510 OFFCURVE",
"55 305 CURVE SMOOTH",
"55 91 OFFCURVE",
"162 -10 OFFCURVE",
"298 -10 CURVE SMOOTH"
);
},
{
closed = 1;
nodes = (
"196 64 OFFCURVE",
"144 160 OFFCURVE",
"144 247 CURVE SMOOTH",
"144 310 OFFCURVE",
"206 378 OFFCURVE",
"300 378 CURVE SMOOTH",
"392 378 OFFCURVE",
"438 321 OFFCURVE",
"438 230 CURVE SMOOTH",
"438 117 OFFCURVE",
"381 64 OFFCURVE",
"297 64 CURVE SMOOTH"
);
}
);
width = 572;
},
{
layerId = "85A3B11B-C6C2-4ADD-AADC-206FDA180DDF";
name = SemiBold;
paths = (
{
closed = 1;
nodes = (
"444 -10 OFFCURVE",
"537 83 OFFCURVE",
"537 237 CURVE SMOOTH",
"537 380 OFFCURVE",
"457 461 OFFCURVE",
"332 461 CURVE SMOOTH",
"251 461 OFFCURVE",
"202 425 OFFCURVE",
"175 378 CURVE",
"169 378 LINE",
"175 514 OFFCURVE",
"221 612 OFFCURVE",
"400 612 CURVE SMOOTH",
"429 612 OFFCURVE",
"460 608 OFFCURVE",
"486 602 CURVE",
"486 715 LINE",
"461 720 OFFCURVE",
"419 722 OFFCURVE",
"391 722 CURVE SMOOTH",
"99 722 OFFCURVE",
"38 508 OFFCURVE",
"38 303 CURVE SMOOTH",
"38 89 OFFCURVE",
"152 -10 OFFCURVE",
"296 -10 CURVE SMOOTH"
);
},
{
closed = 1;
nodes = (
"218 103 OFFCURVE",
"178 179 OFFCURVE",
"178 249 CURVE SMOOTH",
"178 299 OFFCURVE",
"225 353 OFFCURVE",
"297 353 CURVE SMOOTH",
"366 353 OFFCURVE",
"400 308 OFFCURVE",
"400 235 CURVE SMOOTH",
"400 145 OFFCURVE",
"357 103 OFFCURVE",
"294 103 CURVE SMOOTH"
);
}
);
width = 572;
},
{
layerId = "5D72C1FF-7D23-4150-B678-34DACF742A97";
name = Bold;
paths = (
{
closed = 1;
nodes = (
"459 -10 OFFCURVE",
"555 84 OFFCURVE",
"555 244 CURVE SMOOTH",
"555 392 OFFCURVE",
"481 476 OFFCURVE",
"356 476 CURVE SMOOTH",
"280 476 OFFCURVE",
"240 440 OFFCURVE",
"215 393 CURVE",
"209 393 LINE",
"215 506 OFFCURVE",
"260 573 OFFCURVE",
"404 573 CURVE SMOOTH",
"453 573 OFFCURVE",
"484 569 OFFCURVE",
"511 564 CURVE",
"511 716 LINE",
"483 720 OFFCURVE",
"436 724 OFFCURVE",
"408 724 CURVE SMOOTH",
"92 724 OFFCURVE",
"34 507 OFFCURVE",
"34 302 CURVE SMOOTH",
"34 88 OFFCURVE",
"150 -10 OFFCURVE",
"303 -10 CURVE SMOOTH"
);
},
{
closed = 1;
nodes = (
"249 144 OFFCURVE",
"227 199 OFFCURVE",
"227 250 CURVE SMOOTH",
"227 288 OFFCURVE",
"254 326 OFFCURVE",
"301 326 CURVE SMOOTH",
"348 326 OFFCURVE",
"367 294 OFFCURVE",
"367 240 CURVE SMOOTH",
"367 174 OFFCURVE",
"340 144 OFFCURVE",
"299 144 CURVE SMOOTH"
);
}
);
width = 586;
},
{
layerId = "E4D2B44F-BF62-4CBA-BED8-29547F064017";
name = "Light Condensed";
paths = (
{
closed = 1;
nodes = (
"298 -14 OFFCURVE",
"350 68 OFFCURVE",
"350 217 CURVE SMOOTH",
"350 350 OFFCURVE",
"309 436 OFFCURVE",
"209 436 CURVE SMOOTH",
"120 436 OFFCURVE",
"85 369 OFFCURVE",
"77 334 CURVE",
"76 334 LINE",
"76 567 OFFCURVE",
"136 694 OFFCURVE",
"248 694 CURVE SMOOTH",
"273 694 OFFCURVE",
"301 688 OFFCURVE",
"320 681 CURVE",
"320 707 LINE",
"303 715 OFFCURVE",
"274 720 OFFCURVE",
"248 720 CURVE SMOOTH",
"137 720 OFFCURVE",
"49 626 OFFCURVE",
"49 307 CURVE SMOOTH",
"49 91 OFFCURVE",
"92 -14 OFFCURVE",
"204 -14 CURVE SMOOTH"
);
},
{
closed = 1;
nodes = (
"95 11 OFFCURVE",
"79 158 OFFCURVE",
"79 237 CURVE SMOOTH",
"79 344 OFFCURVE",
"126 410 OFFCURVE",
"206 410 CURVE SMOOTH",
"293 410 OFFCURVE",
"322 332 OFFCURVE",
"322 219 CURVE SMOOTH",
"322 85 OFFCURVE",
"281 11 OFFCURVE",
"202 11 CURVE SMOOTH"
);
}
);
width = 394;
},
{
layerId = "0AADB627-CDB3-4A4A-B404-1AEF21746836";
name = Condensed;
paths = (
{
closed = 1;
nodes = (
"333 -10 OFFCURVE",
"388 93 OFFCURVE",
"388 226 CURVE SMOOTH",
"388 352 OFFCURVE",
"340 452 OFFCURVE",
"240 452 CURVE SMOOTH",
"189 452 OFFCURVE",
"150 422 OFFCURVE",
"128 372 CURVE",
"124 372 LINE",
"130 556 OFFCURVE",
"183 650 OFFCURVE",
"280 650 CURVE SMOOTH",
"306 650 OFFCURVE",
"330 646 OFFCURVE",
"351 639 CURVE",
"351 714 LINE",
"330 720 OFFCURVE",
"305 724 OFFCURVE",
"277 724 CURVE SMOOTH",
"110 724 OFFCURVE",
"44 568 OFFCURVE",
"44 303 CURVE SMOOTH",
"44 102 OFFCURVE",
"107 -10 OFFCURVE",
"221 -10 CURVE SMOOTH"
);
},
{
closed = 1;
nodes = (
"153 65 OFFCURVE",
"129 173 OFFCURVE",
"129 255 CURVE SMOOTH",
"129 319 OFFCURVE",
"160 378 OFFCURVE",
"220 378 CURVE SMOOTH",
"276 378 OFFCURVE",
"305 325 OFFCURVE",
"305 224 CURVE SMOOTH",
"305 117 OFFCURVE",
"273 65 OFFCURVE",
"220 65 CURVE SMOOTH"
);
}
);
width = 429;
},
{
layerId = "F54E95EF-1D6D-47A7-87BE-6145FFFB0374";
name = "SemiBold Condensed";
paths = (
{
closed = 1;
nodes = (
"361 -10 OFFCURVE",
"427 90 OFFCURVE",
"427 235 CURVE SMOOTH",
"427 371 OFFCURVE",
"373 465 OFFCURVE",
"273 465 CURVE SMOOTH",
"221 465 OFFCURVE",
"183 435 OFFCURVE",
"161 383 CURVE",
"157 383 LINE",
"162 542 OFFCURVE",
"213 617 OFFCURVE",
"313 617 CURVE SMOOTH",
"341 617 OFFCURVE",
"368 613 OFFCURVE",
"392 606 CURVE",
"392 715 LINE",
"364 721 OFFCURVE",
"334 724 OFFCURVE",
"303 724 CURVE SMOOTH",
"99 724 OFFCURVE",
"38 542 OFFCURVE",
"38 303 CURVE SMOOTH",
"38 105 OFFCURVE",
"112 -10 OFFCURVE",
"239 -10 CURVE SMOOTH"
);
},
{
closed = 1;
nodes = (
"187 100 OFFCURVE",
"166 179 OFFCURVE",
"166 253 CURVE SMOOTH",
"166 309 OFFCURVE",
"192 356 OFFCURVE",
"237 356 CURVE SMOOTH",
"280 356 OFFCURVE",
"302 314 OFFCURVE",
"302 232 CURVE SMOOTH",
"302 143 OFFCURVE",
"276 100 OFFCURVE",
"236 100 CURVE SMOOTH"
);
}
);
width = 462;
},
{
layerId = "9DAA8A68-E7B0-43B5-9380-0F5125A6FB33";
name = "Bold Condensed";
paths = (
{
closed = 1;
nodes = (
"388 -10 OFFCURVE",
"465 89 OFFCURVE",
"465 244 CURVE SMOOTH",
"465 390 OFFCURVE",
"405 476 OFFCURVE",
"305 476 CURVE SMOOTH",
"252 476 OFFCURVE",
"215 448 OFFCURVE",
"192 393 CURVE",
"188 393 LINE",
"192 528 OFFCURVE",
"242 583 OFFCURVE",
"345 583 CURVE SMOOTH",
"375 583 OFFCURVE",
"404 580 OFFCURVE",
"431 574 CURVE",
"431 716 LINE",
"397 721 OFFCURVE",
"363 724 OFFCURVE",
"329 724 CURVE SMOOTH",
"88 724 OFFCURVE",
"32 516 OFFCURVE",
"32 302 CURVE SMOOTH",
"32 106 OFFCURVE",
"116 -10 OFFCURVE",
"255 -10 CURVE SMOOTH"
);
},
{
closed = 1;
nodes = (
"221 135 OFFCURVE",
"202 184 OFFCURVE",
"202 252 CURVE SMOOTH",
"202 299 OFFCURVE",
"223 336 OFFCURVE",
"252 336 CURVE SMOOTH",
"284 336 OFFCURVE",
"299 304 OFFCURVE",
"299 241 CURVE SMOOTH",
"299 167 OFFCURVE",
"279 135 OFFCURVE",
"251 135 CURVE SMOOTH"
);
}
);
width = 496;
}
);
unicode = 0036;
},
{
color = 6;
export = 0;
glyphname = seven;
lastChange = "2015-12-19 18:57:17 +0000";
layers = (
{
layerId = "F44648F3-14F4-405A-9B69-DB2444BD1A35";
name = Light;
paths = (
{
closed = 1;
nodes = (
"182 0 LINE",
"480 697 LINE",
"480 714 LINE",
"28 714 LINE",
"28 689 LINE",
"448 689 LINE",
"153 0 LINE"
);
}
);
width = 516;
},
{
layerId = "69591BDA-B7BB-4EAA-A50D-6786E2902B45";
name = Regular;
paths = (
{
closed = 1;
nodes = (
"233 0 LINE",
"523 646 LINE",
"523 714 LINE",
"44 714 LINE",
"44 634 LINE",
"429 634 LINE",
"136 0 LINE"
);
}
);
width = 572;
},
{
layerId = "85A3B11B-C6C2-4ADD-AADC-206FDA180DDF";
name = SemiBold;
paths = (
{
closed = 1;
nodes = (
"263 0 LINE",
"536 623 LINE",
"536 714 LINE",
"30 714 LINE",
"30 595 LINE",
"387 595 LINE",
"115 0 LINE"
);
}
);
width = 572;
},
{
layerId = "5D72C1FF-7D23-4150-B678-34DACF742A97";
name = Bold;
paths = (
{
closed = 1;
nodes = (
"303 0 LINE",
"553 600 LINE",
"553 714 LINE",
"38 714 LINE",
"38 553 LINE",
"346 553 LINE",
"102 0 LINE"
);
}
);
width = 586;
},
{
layerId = "E4D2B44F-BF62-4CBA-BED8-29547F064017";
name = "Light Condensed";
paths = (
{
closed = 1;
nodes = (
"114 0 LINE",
"326 692 LINE",
"326 714 LINE",
"28 714 LINE",
"28 689 LINE",
"299 689 LINE",
"87 0 LINE"
);
}
);
width = 362;
},
{
layerId = "0AADB627-CDB3-4A4A-B404-1AEF21746836";
name = Condensed;
paths = (
{
closed = 1;
nodes = (
"180 0 LINE",
"393 652 LINE",
"393 714 LINE",
"31 714 LINE",
"31 637 LINE",
"309 637 LINE",
"93 0 LINE"
);
}
);
width = 429;
},
{
layerId = "F54E95EF-1D6D-47A7-87BE-6145FFFB0374";
name = "SemiBold Condensed";
paths = (
{
closed = 1;
nodes = (
"221 0 LINE",
"426 626 LINE",
"426 714 LINE",
"34 714 LINE",
"34 602 LINE",
"298 602 LINE",
"88 0 LINE"
);
}
);
width = 462;
},
{
layerId = "9DAA8A68-E7B0-43B5-9380-0F5125A6FB33";
name = "Bold Condensed";
paths = (
{
closed = 1;
nodes = (
"263 0 LINE",
"460 599 LINE",
"460 714 LINE",
"37 714 LINE",
"37 566 LINE",
"289 566 LINE",
"85 0 LINE"
);
}
);
width = 496;
}
);
unicode = 0037;
},
{
color = 6;
export = 0;
glyphname = eight;
lastChange = "2015-12-19 18:57:17 +0000";
layers = (
{
layerId = "F44648F3-14F4-405A-9B69-DB2444BD1A35";
name = Light;
paths = (
{
closed = 1;
nodes = (
"375 -10 OFFCURVE",
"474 59 OFFCURVE",
"474 181 CURVE SMOOTH",
"474 284 OFFCURVE",
"403 342 OFFCURVE",
"285 382 CURVE",
"386 422 OFFCURVE",
"450 473 OFFCURVE",
"450 561 CURVE SMOOTH",
"450 666 OFFCURVE",
"377 724 OFFCURVE",
"254 724 CURVE SMOOTH",
"139 724 OFFCURVE",
"58 659 OFFCURVE",
"58 559 CURVE SMOOTH",
"58 460 OFFCURVE",
"132 415 OFFCURVE",
"222 381 CURVE",
"109 340 OFFCURVE",
"35 284 OFFCURVE",
"35 175 CURVE SMOOTH",
"35 62 OFFCURVE",
"121 -10 OFFCURVE",
"250 -10 CURVE SMOOTH"
);
},
{
closed = 1;
nodes = (
"138 15 OFFCURVE",
"62 76 OFFCURVE",
"62 175 CURVE SMOOTH",
"62 282 OFFCURVE",
"146 333 OFFCURVE",
"252 368 CURVE",
"280 358 LINE SMOOTH",
"389 319 OFFCURVE",
"447 268 OFFCURVE",
"447 181 CURVE SMOOTH",
"447 72 OFFCURVE",
"364 15 OFFCURVE",
"250 15 CURVE SMOOTH"
);
},
{
closed = 1;
nodes = (
"153 430 OFFCURVE",
"85 474 OFFCURVE",
"85 559 CURVE SMOOTH",
"85 649 OFFCURVE",
"156 699 OFFCURVE",
"254 699 CURVE SMOOTH",
"360 699 OFFCURVE",
"423 653 OFFCURVE",
"423 561 CURVE SMOOTH",
"423 479 OFFCURVE",
"352 433 OFFCURVE",
"257 394 CURVE"
);
}
);
width = 508;
},
{
layerId = "69591BDA-B7BB-4EAA-A50D-6786E2902B45";
name = Regular;
paths = (
{
closed = 1;
nodes = (
"430 -10 OFFCURVE",
"522 65 OFFCURVE",
"522 185 CURVE SMOOTH",
"522 282 OFFCURVE",
"451 335 OFFCURVE",
"363 378 CURVE",
"437 416 OFFCURVE",
"499 467 OFFCURVE",
"499 553 CURVE SMOOTH",
"499 664 OFFCURVE",
"410 724 OFFCURVE",
"285 724 CURVE SMOOTH",
"163 724 OFFCURVE",
"72 663 OFFCURVE",
"72 554 CURVE SMOOTH",
"72 466 OFFCURVE",
"127 413 OFFCURVE",
"197 373 CURVE",
"118 337 OFFCURVE",
"49 279 OFFCURVE",
"49 182 CURVE SMOOTH",
"49 61 OFFCURVE",
"134 -10 OFFCURVE",
"288 -10 CURVE SMOOTH"
);
},
{
closed = 1;
nodes = (
"183 60 OFFCURVE",
"135 112 OFFCURVE",
"135 181 CURVE SMOOTH",
"135 254 OFFCURVE",
"182 299 OFFCURVE",
"270 337 CURVE",
"286 331 LINE SMOOTH",
"377 296 OFFCURVE",
"436 253 OFFCURVE",
"436 184 CURVE SMOOTH",
"436 111 OFFCURVE",
"383 60 OFFCURVE",
"286 60 CURVE SMOOTH"
);
},
{
closed = 1;
nodes = (
"216 443 OFFCURVE",
"158 476 OFFCURVE",
"158 550 CURVE SMOOTH",
"158 616 OFFCURVE",
"210 653 OFFCURVE",
"284 653 CURVE SMOOTH",
"361 653 OFFCURVE",
"412 616 OFFCURVE",
"412 550 CURVE SMOOTH",
"412 478 OFFCURVE",
"358 441 OFFCURVE",
"289 412 CURVE"
);
}
);
width = 572;
},
{
layerId = "85A3B11B-C6C2-4ADD-AADC-206FDA180DDF";
name = SemiBold;
paths = (
{
closed = 1;
nodes = (
"433 -10 OFFCURVE",
"534 66 OFFCURVE",
"534 185 CURVE SMOOTH",
"534 280 OFFCURVE",
"460 337 OFFCURVE",
"382 377 CURVE",
"455 413 OFFCURVE",
"512 465 OFFCURVE",
"512 551 CURVE SMOOTH",
"512 666 OFFCURVE",
"409 723 OFFCURVE",
"286 723 CURVE SMOOTH",
"165 723 OFFCURVE",
"59 665 OFFCURVE",
"59 552 CURVE SMOOTH",
"59 467 OFFCURVE",
"111 413 OFFCURVE",
"176 373 CURVE",
"100 336 OFFCURVE",
"37 279 OFFCURVE",
"37 181 CURVE SMOOTH",
"37 62 OFFCURVE",
"127 -10 OFFCURVE",
"286 -10 CURVE SMOOTH"
);
},
{
closed = 1;
nodes = (
"207 94 OFFCURVE",
"168 134 OFFCURVE",
"168 189 CURVE SMOOTH",
"168 246 OFFCURVE",
"211 285 OFFCURVE",
"278 315 CURVE",
"291 308 LINE SMOOTH",
"347 279 OFFCURVE",
"403 245 OFFCURVE",
"403 188 CURVE SMOOTH",
"403 132 OFFCURVE",
"363 94 OFFCURVE",
"284 94 CURVE SMOOTH"
);
},
{
closed = 1;
nodes = (
"235 460 OFFCURVE",
"192 489 OFFCURVE",
"192 542 CURVE SMOOTH",
"192 591 OFFCURVE",
"232 620 OFFCURVE",
"285 620 CURVE SMOOTH",
"339 620 OFFCURVE",
"379 591 OFFCURVE",
"379 542 CURVE SMOOTH",
"379 486 OFFCURVE",
"335 458 OFFCURVE",
"286 435 CURVE"
);
}
);
width = 572;
},
{
layerId = "5D72C1FF-7D23-4150-B678-34DACF742A97";
name = Bold;
paths = (
{
closed = 1;
nodes = (
"474 -10 OFFCURVE",
"554 75 OFFCURVE",
"554 190 CURVE SMOOTH",
"554 284 OFFCURVE",
"477 338 OFFCURVE",
"411 376 CURVE",
"483 411 OFFCURVE",
"533 464 OFFCURVE",
"533 550 CURVE SMOOTH",
"533 667 OFFCURVE",
"437 724 OFFCURVE",
"295 724 CURVE SMOOTH",
"154 724 OFFCURVE",
"54 666 OFFCURVE",
"54 551 CURVE SMOOTH",
"54 468 OFFCURVE",
"103 413 OFFCURVE",
"163 373 CURVE",
"88 335 OFFCURVE",
"33 287 OFFCURVE",
"33 188 CURVE SMOOTH",
"33 71 OFFCURVE",
"112 -10 OFFCURVE",
"293 -10 CURVE SMOOTH"
);
},
{
closed = 1;
nodes = (
"241 130 OFFCURVE",
"211 156 OFFCURVE",
"211 196 CURVE SMOOTH",
"211 239 OFFCURVE",
"248 268 OFFCURVE",
"291 290 CURVE",
"305 282 LINE SMOOTH",
"330 268 OFFCURVE",
"377 236 OFFCURVE",
"377 192 CURVE SMOOTH",
"377 153 OFFCURVE",
"350 130 OFFCURVE",
"291 130 CURVE SMOOTH"
);
},
{
closed = 1;
nodes = (
"261 477 OFFCURVE",
"236 502 OFFCURVE",
"236 533 CURVE SMOOTH",
"236 564 OFFCURVE",
"263 584 OFFCURVE",
"294 584 CURVE SMOOTH",
"325 584 OFFCURVE",
"351 564 OFFCURVE",
"351 533 CURVE SMOOTH",
"351 495 OFFCURVE",
"320 475 OFFCURVE",
"292 459 CURVE"
);
}
);
width = 586;
},
{
layerId = "E4D2B44F-BF62-4CBA-BED8-29547F064017";
name = "Light Condensed";
paths = (
{
closed = 1;
nodes = (
"298 -10 OFFCURVE",
"356 70 OFFCURVE",
"356 172 CURVE SMOOTH",
"356 268 OFFCURVE",
"293 327 OFFCURVE",
"216 378 CURVE",
"285 421 OFFCURVE",
"341 467 OFFCURVE",
"341 565 CURVE SMOOTH",
"341 661 OFFCURVE",
"289 723 OFFCURVE",
"198 723 CURVE SMOOTH",
"105 723 OFFCURVE",
"52 659 OFFCURVE",
"52 567 CURVE SMOOTH",
"52 482 OFFCURVE",
"101 426 OFFCURVE",
"172 379 CURVE",
"98 335 OFFCURVE",
"35 275 OFFCURVE",
"35 170 CURVE SMOOTH",
"35 64 OFFCURVE",
"96 -10 OFFCURVE",
"195 -10 CURVE SMOOTH"
);
},
{
closed = 1;
nodes = (
"119 16 OFFCURVE",
"63 75 OFFCURVE",
"63 169 CURVE SMOOTH",
"63 268 OFFCURVE",
"124 326 OFFCURVE",
"194 365 CURVE",
"208 356 LINE SMOOTH",
"297 299 OFFCURVE",
"328 237 OFFCURVE",
"328 170 CURVE SMOOTH",
"328 85 OFFCURVE",
"279 16 OFFCURVE",
"196 16 CURVE SMOOTH"
);
},
{
closed = 1;
nodes = (
"123 435 OFFCURVE",
"80 490 OFFCURVE",
"80 566 CURVE SMOOTH",
"80 645 OFFCURVE",
"124 697 OFFCURVE",
"198 697 CURVE SMOOTH",
"269 697 OFFCURVE",
"313 647 OFFCURVE",
"313 564 CURVE SMOOTH",
"313 474 OFFCURVE",
"262 432 OFFCURVE",
"195 390 CURVE"
);
}
);
width = 390;
},
{
layerId = "0AADB627-CDB3-4A4A-B404-1AEF21746836";
name = Condensed;
paths = (
{
closed = 1;
nodes = (
"326 -10 OFFCURVE",
"396 68 OFFCURVE",
"396 181 CURVE SMOOTH",
"396 268 OFFCURVE",
"344 322 OFFCURVE",
"269 373 CURVE",
"344 418 OFFCURVE",
"380 479 OFFCURVE",
"380 557 CURVE SMOOTH",
"380 659 OFFCURVE",
"319 724 OFFCURVE",
"216 724 CURVE SMOOTH",
"116 724 OFFCURVE",
"51 658 OFFCURVE",
"51 556 CURVE SMOOTH",
"51 485 OFFCURVE",
"83 425 OFFCURVE",
"151 372 CURVE",
"71 321 OFFCURVE",
"34 260 OFFCURVE",
"34 176 CURVE SMOOTH",
"34 64 OFFCURVE",
"101 -10 OFFCURVE",
"219 -10 CURVE SMOOTH"
);
},
{
closed = 1;
nodes = (
"151 60 OFFCURVE",
"116 109 OFFCURVE",
"116 176 CURVE SMOOTH",
"116 245 OFFCURVE",
"140 290 OFFCURVE",
"207 334 CURVE",
"227 320 LINE SMOOTH",
"287 277 OFFCURVE",
"313 232 OFFCURVE",
"313 181 CURVE SMOOTH",
"313 110 OFFCURVE",
"280 60 OFFCURVE",
"215 60 CURVE SMOOTH"
);
},
{
closed = 1;
nodes = (
"159 451 OFFCURVE",
"132 490 OFFCURVE",
"132 551 CURVE SMOOTH",
"132 615 OFFCURVE",
"164 654 OFFCURVE",
"214 654 CURVE SMOOTH",
"267 654 OFFCURVE",
"298 615 OFFCURVE",
"298 551 CURVE SMOOTH",
"298 494 OFFCURVE",
"274 452 OFFCURVE",
"214 413 CURVE"
);
}
);
width = 429;
},
{
layerId = "F54E95EF-1D6D-47A7-87BE-6145FFFB0374";
name = "SemiBold Condensed";
paths = (
{
closed = 1;
nodes = (
"354 -10 OFFCURVE",
"430 65 OFFCURVE",
"430 185 CURVE SMOOTH",
"430 264 OFFCURVE",
"390 319 OFFCURVE",
"309 375 CURVE",
"381 418 OFFCURVE",
"413 476 OFFCURVE",
"413 554 CURVE SMOOTH",
"413 660 OFFCURVE",
"347 724 OFFCURVE",
"232 724 CURVE SMOOTH",
"119 724 OFFCURVE",
"49 660 OFFCURVE",
"49 553 CURVE SMOOTH",
"49 483 OFFCURVE",
"79 424 OFFCURVE",
"143 373 CURVE",
"66 324 OFFCURVE",
"31 262 OFFCURVE",
"31 182 CURVE SMOOTH",
"31 62 OFFCURVE",
"104 -10 OFFCURVE",
"232 -10 CURVE SMOOTH"
);
},
{
closed = 1;
nodes = (
"179 92 OFFCURVE",
"153 129 OFFCURVE",
"153 184 CURVE SMOOTH",
"153 237 OFFCURVE",
"173 274 OFFCURVE",
"226 312 CURVE",
"241 301 LINE SMOOTH",
"293 261 OFFCURVE",
"310 224 OFFCURVE",
"310 184 CURVE SMOOTH",
"310 128 OFFCURVE",
"283 92 OFFCURVE",
"230 92 CURVE SMOOTH"
);
},
{
closed = 1;
nodes = (
"190 467 OFFCURVE",
"170 499 OFFCURVE",
"170 544 CURVE SMOOTH",
"170 592 OFFCURVE",
"194 622 OFFCURVE",
"232 622 CURVE SMOOTH",
"270 622 OFFCURVE",
"295 592 OFFCURVE",
"295 544 CURVE SMOOTH",
"295 502 OFFCURVE",
"278 470 OFFCURVE",
"231 436 CURVE"
);
}
);
width = 462;
},
{
layerId = "9DAA8A68-E7B0-43B5-9380-0F5125A6FB33";
name = "Bold Condensed";
paths = (
{
closed = 1;
nodes = (
"384 -10 OFFCURVE",
"465 63 OFFCURVE",
"465 190 CURVE SMOOTH",
"465 259 OFFCURVE",
"435 316 OFFCURVE",
"350 376 CURVE",
"418 418 OFFCURVE",
"447 474 OFFCURVE",
"447 550 CURVE SMOOTH",
"447 661 OFFCURVE",
"376 724 OFFCURVE",
"248 724 CURVE SMOOTH",
"124 724 OFFCURVE",
"48 661 OFFCURVE",
"48 551 CURVE SMOOTH",
"48 481 OFFCURVE",
"75 424 OFFCURVE",
"138 373 CURVE",
"61 325 OFFCURVE",
"30 264 OFFCURVE",
"30 188 CURVE SMOOTH",
"30 61 OFFCURVE",
"107 -10 OFFCURVE",
"246 -10 CURVE SMOOTH"
);
},
{
closed = 1;
nodes = (
"208 123 OFFCURVE",
"189 148 OFFCURVE",
"189 191 CURVE SMOOTH",
"189 228 OFFCURVE",
"204 259 OFFCURVE",
"245 291 CURVE",
"255 283 LINE",
"298 246 OFFCURVE",
"306 218 OFFCURVE",
"306 187 CURVE SMOOTH",
"306 144 OFFCURVE",
"286 123 OFFCURVE",
"245 123 CURVE SMOOTH"
);
},
{
closed = 1;
nodes = (
"219 482 OFFCURVE",
"206 508 OFFCURVE",
"206 538 CURVE SMOOTH",
"206 570 OFFCURVE",
"223 591 OFFCURVE",
"248 591 CURVE SMOOTH",
"271 591 OFFCURVE",
"290 571 OFFCURVE",
"290 538 CURVE SMOOTH",
"290 508 OFFCURVE",
"281 488 OFFCURVE",
"246 459 CURVE"
);
}
);
width = 496;
}
);
unicode = 0038;
},
{
color = 6;
export = 0;
glyphname = nine;
lastChange = "2015-12-19 18:57:17 +0000";
layers = (
{
layerId = "F44648F3-14F4-405A-9B69-DB2444BD1A35";
name = Light;
paths = (
{
closed = 1;
nodes = (
"357 -10 OFFCURVE",
"485 108 OFFCURVE",
"485 413 CURVE SMOOTH",
"485 569 OFFCURVE",
"426 726 OFFCURVE",
"254 726 CURVE SMOOTH",
"118 726 OFFCURVE",
"40 630 OFFCURVE",
"40 491 CURVE SMOOTH",
"40 361 OFFCURVE",
"115 277 OFFCURVE",
"247 277 CURVE SMOOTH",
"362 277 OFFCURVE",
"432 338 OFFCURVE",
"458 394 CURVE",
"460 394 LINE",
"454 112 OFFCURVE",
"335 15 OFFCURVE",
"186 15 CURVE SMOOTH",
"144 15 OFFCURVE",
"102 22 OFFCURVE",
"78 31 CURVE",
"78 3 LINE",
"105 -5 OFFCURVE",
"144 -10 OFFCURVE",
"186 -10 CURVE SMOOTH"
);
},
{
closed = 1;
nodes = (
"127 302 OFFCURVE",
"67 374 OFFCURVE",
"67 491 CURVE SMOOTH",
"67 621 OFFCURVE",
"133 701 OFFCURVE",
"254 701 CURVE SMOOTH",
"416 701 OFFCURVE",
"453 537 OFFCURVE",
"453 458 CURVE SMOOTH",
"453 391 OFFCURVE",
"375 302 OFFCURVE",
"249 302 CURVE SMOOTH"
);
}
);
width = 538;
},
{
layerId = "69591BDA-B7BB-4EAA-A50D-6786E2902B45";
name = Regular;
paths = (
{
closed = 1;
nodes = (
"462 -10 OFFCURVE",
"520 204 OFFCURVE",
"520 409 CURVE SMOOTH",
"520 622 OFFCURVE",
"414 724 OFFCURVE",
"278 724 CURVE SMOOTH",
"140 724 OFFCURVE",
"50 632 OFFCURVE",
"50 483 CURVE SMOOTH",
"50 345 OFFCURVE",
"132 267 OFFCURVE",
"255 267 CURVE SMOOTH",
"342 267 OFFCURVE",
"395 304 OFFCURVE",
"425 350 CURVE",
"431 350 LINE",
"425 194 OFFCURVE",
"376 62 OFFCURVE",
"190 62 CURVE SMOOTH",
"160 62 OFFCURVE",
"126 67 OFFCURVE",
"102 75 CURVE",
"102 0 LINE",
"124 -7 OFFCURVE",
"165 -10 OFFCURVE",
"192 -10 CURVE SMOOTH"
);
},
{
closed = 1;
nodes = (
"181 337 OFFCURVE",
"137 393 OFFCURVE",
"137 484 CURVE SMOOTH",
"137 596 OFFCURVE",
"195 650 OFFCURVE",
"278 650 CURVE SMOOTH",
"380 650 OFFCURVE",
"431 553 OFFCURVE",
"431 467 CURVE SMOOTH",
"431 403 OFFCURVE",
"370 337 OFFCURVE",
"274 337 CURVE SMOOTH"
);
}
);
width = 572;
},
{
layerId = "85A3B11B-C6C2-4ADD-AADC-206FDA180DDF";
name = SemiBold;
paths = (
{
closed = 1;
nodes = (
"473 -10 OFFCURVE",
"533 204 OFFCURVE",
"533 409 CURVE SMOOTH",
"533 623 OFFCURVE",
"420 722 OFFCURVE",
"275 722 CURVE SMOOTH",
"128 722 OFFCURVE",
"35 629 OFFCURVE",
"35 475 CURVE SMOOTH",
"35 332 OFFCURVE",
"114 251 OFFCURVE",
"237 251 CURVE SMOOTH",
"327 251 OFFCURVE",
"368 287 OFFCURVE",
"397 334 CURVE",
"403 334 LINE",
"397 198 OFFCURVE",
"351 100 OFFCURVE",
"172 100 CURVE SMOOTH",
"142 100 OFFCURVE",
"111 105 OFFCURVE",
"85 111 CURVE",
"85 -3 LINE",
"110 -8 OFFCURVE",
"152 -10 OFFCURVE",
"180 -10 CURVE SMOOTH"
);
},
{
closed = 1;
nodes = (
"205 360 OFFCURVE",
"171 405 OFFCURVE",
"171 477 CURVE SMOOTH",
"171 568 OFFCURVE",
"215 609 OFFCURVE",
"278 609 CURVE SMOOTH",
"354 609 OFFCURVE",
"393 533 OFFCURVE",
"393 464 CURVE SMOOTH",
"393 413 OFFCURVE",
"347 360 OFFCURVE",
"275 360 CURVE SMOOTH"
);
}
);
width = 572;
},
{
layerId = "5D72C1FF-7D23-4150-B678-34DACF742A97";
name = Bold;
paths = (
{
closed = 1;
nodes = (
"451 -10 OFFCURVE",
"553 120 OFFCURVE",
"553 386 CURVE SMOOTH",
"553 624 OFFCURVE",
"432 721 OFFCURVE",
"279 721 CURVE SMOOTH",
"122 721 OFFCURVE",
"26 627 OFFCURVE",
"26 468 CURVE SMOOTH",
"26 319 OFFCURVE",
"103 235 OFFCURVE",
"223 235 CURVE SMOOTH",
"318 235 OFFCURVE",
"347 270 OFFCURVE",
"373 318 CURVE",
"379 318 LINE",
"374 227 OFFCURVE",
"331 141 OFFCURVE",
"158 141 CURVE SMOOTH",
"128 141 OFFCURVE",
"102 144 OFFCURVE",
"74 149 CURVE",
"74 -5 LINE",
"101 -9 OFFCURVE",
"145 -10 OFFCURVE",
"174 -10 CURVE SMOOTH"
);
},
{
closed = 1;
nodes = (
"237 383 OFFCURVE",
"214 417 OFFCURVE",
"214 470 CURVE SMOOTH",
"214 537 OFFCURVE",
"243 566 OFFCURVE",
"284 566 CURVE SMOOTH",
"333 566 OFFCURVE",
"360 512 OFFCURVE",
"360 461 CURVE SMOOTH",
"360 423 OFFCURVE",
"329 383 OFFCURVE",
"282 383 CURVE SMOOTH"
);
}
);
width = 586;
},
{
layerId = "E4D2B44F-BF62-4CBA-BED8-29547F064017";
name = "Light Condensed";
paths = (
{
closed = 1;
nodes = (
"253 -10 OFFCURVE",
"341 84 OFFCURVE",
"341 403 CURVE SMOOTH",
"341 619 OFFCURVE",
"298 724 OFFCURVE",
"186 724 CURVE SMOOTH",
"92 724 OFFCURVE",
"40 642 OFFCURVE",
"40 493 CURVE SMOOTH",
"40 360 OFFCURVE",
"81 274 OFFCURVE",
"181 274 CURVE SMOOTH",
"270 274 OFFCURVE",
"305 341 OFFCURVE",
"313 376 CURVE",
"314 376 LINE",
"314 143 OFFCURVE",
"254 16 OFFCURVE",
"142 16 CURVE SMOOTH",
"117 16 OFFCURVE",
"89 22 OFFCURVE",
"70 29 CURVE",
"70 3 LINE",
"87 -5 OFFCURVE",
"116 -10 OFFCURVE",
"142 -10 CURVE SMOOTH"
);
},
{
closed = 1;
nodes = (
"97 300 OFFCURVE",
"68 378 OFFCURVE",
"68 491 CURVE SMOOTH",
"68 625 OFFCURVE",
"109 699 OFFCURVE",
"188 699 CURVE SMOOTH",
"295 699 OFFCURVE",
"311 552 OFFCURVE",
"311 473 CURVE SMOOTH",
"311 366 OFFCURVE",
"264 300 OFFCURVE",
"184 300 CURVE SMOOTH"
);
}
);
width = 394;
},
{
layerId = "0AADB627-CDB3-4A4A-B404-1AEF21746836";
name = Condensed;
paths = (
{
closed = 1;
nodes = (
"310 -10 OFFCURVE",
"381 150 OFFCURVE",
"381 417 CURVE SMOOTH",
"381 614 OFFCURVE",
"320 724 OFFCURVE",
"209 724 CURVE SMOOTH",
"92 724 OFFCURVE",
"37 621 OFFCURVE",
"37 488 CURVE SMOOTH",
"37 362 OFFCURVE",
"84 262 OFFCURVE",
"185 262 CURVE SMOOTH",
"236 262 OFFCURVE",
"275 292 OFFCURVE",
"297 342 CURVE",
"301 342 LINE",
"296 198 OFFCURVE",
"257 64 OFFCURVE",
"144 64 CURVE SMOOTH",
"114 64 OFFCURVE",
"90 68 OFFCURVE",
"69 76 CURVE",
"69 0 LINE",
"88 -5 OFFCURVE",
"122 -10 OFFCURVE",
"146 -10 CURVE SMOOTH"
);
},
{
closed = 1;
nodes = (
"150 336 OFFCURVE",
"121 389 OFFCURVE",
"121 490 CURVE SMOOTH",
"121 597 OFFCURVE",
"155 649 OFFCURVE",
"208 649 CURVE SMOOTH",
"281 649 OFFCURVE",
"297 534 OFFCURVE",
"297 467 CURVE SMOOTH",
"297 401 OFFCURVE",
"268 336 OFFCURVE",
"206 336 CURVE SMOOTH"
);
}
);
width = 429;
},
{
layerId = "F54E95EF-1D6D-47A7-87BE-6145FFFB0374";
name = "SemiBold Condensed";
paths = (
{
closed = 1;
nodes = (
"353 -10 OFFCURVE",
"423 168 OFFCURVE",
"423 415 CURVE SMOOTH",
"423 611 OFFCURVE",
"350 724 OFFCURVE",
"225 724 CURVE SMOOTH",
"100 724 OFFCURVE",
"34 624 OFFCURVE",
"34 479 CURVE SMOOTH",
"34 344 OFFCURVE",
"87 249 OFFCURVE",
"188 249 CURVE SMOOTH",
"239 249 OFFCURVE",
"278 279 OFFCURVE",
"300 331 CURVE",
"305 331 LINE",
"300 192 OFFCURVE",
"255 97 OFFCURVE",
"147 97 CURVE SMOOTH",
"118 97 OFFCURVE",
"91 101 OFFCURVE",
"67 109 CURVE",
"67 0 LINE",
"93 -6 OFFCURVE",
"127 -10 OFFCURVE",
"157 -10 CURVE SMOOTH"
);
},
{
closed = 1;
nodes = (
"181 358 OFFCURVE",
"159 400 OFFCURVE",
"159 482 CURVE SMOOTH",
"159 571 OFFCURVE",
"186 614 OFFCURVE",
"226 614 CURVE SMOOTH",
"285 614 OFFCURVE",
"295 514 OFFCURVE",
"295 464 CURVE SMOOTH",
"295 416 OFFCURVE",
"275 358 OFFCURVE",
"224 358 CURVE SMOOTH"
);
}
);
width = 462;
},
{
layerId = "9DAA8A68-E7B0-43B5-9380-0F5125A6FB33";
name = "Bold Condensed";
paths = (
{
closed = 1;
nodes = (
"395 -10 OFFCURVE",
"464 186 OFFCURVE",
"464 413 CURVE SMOOTH",
"464 608 OFFCURVE",
"379 724 OFFCURVE",
"240 724 CURVE SMOOTH",
"108 724 OFFCURVE",
"30 626 OFFCURVE",
"30 470 CURVE SMOOTH",
"30 326 OFFCURVE",
"89 238 OFFCURVE",
"191 238 CURVE SMOOTH",
"243 238 OFFCURVE",
"280 266 OFFCURVE",
"303 321 CURVE",
"308 321 LINE",
"304 187 OFFCURVE",
"254 131 OFFCURVE",
"151 131 CURVE SMOOTH",
"121 131 OFFCURVE",
"92 134 OFFCURVE",
"65 141 CURVE",
"65 -1 LINE",
"98 -7 OFFCURVE",
"132 -10 OFFCURVE",
"167 -10 CURVE SMOOTH"
);
},
{
closed = 1;
nodes = (
"212 378 OFFCURVE",
"196 410 OFFCURVE",
"196 473 CURVE SMOOTH",
"196 547 OFFCURVE",
"216 579 OFFCURVE",
"243 579 CURVE SMOOTH",
"289 579 OFFCURVE",
"294 494 OFFCURVE",
"294 462 CURVE SMOOTH",
"294 430 OFFCURVE",
"281 378 OFFCURVE",
"242 378 CURVE SMOOTH"
);
}
);
width = 496;
}
);
unicode = 0039;
},
{
color = 6;
export = 0;
glyphname = colon;
lastChange = "2015-12-19 18:57:17 +0000";
layers = (
{
layerId = "F44648F3-14F4-405A-9B69-DB2444BD1A35";
name = Light;
paths = (
{
closed = 1;
nodes = (
"114 470 OFFCURVE",
"117 484 OFFCURVE",
"117 501 CURVE SMOOTH",
"117 517 OFFCURVE",
"114 532 OFFCURVE",
"90 532 CURVE SMOOTH",
"70 532 OFFCURVE",
"65 517 OFFCURVE",
"65 501 CURVE SMOOTH",
"65 484 OFFCURVE",
"70 470 OFFCURVE",
"90 470 CURVE SMOOTH"
);
},
{
closed = 1;
nodes = (
"114 -8 OFFCURVE",
"117 6 OFFCURVE",
"117 23 CURVE SMOOTH",
"117 39 OFFCURVE",
"114 54 OFFCURVE",
"90 54 CURVE SMOOTH",
"70 54 OFFCURVE",
"65 39 OFFCURVE",
"65 23 CURVE SMOOTH",
"65 6 OFFCURVE",
"70 -8 OFFCURVE",
"90 -8 CURVE SMOOTH"
);
}
);
width = 181;
},
{
layerId = "69591BDA-B7BB-4EAA-A50D-6786E2902B45";
name = Regular;
paths = (
{
closed = 1;
nodes = (
"167 414 OFFCURVE",
"196 434 OFFCURVE",
"196 482 CURVE SMOOTH",
"196 532 OFFCURVE",
"167 550 OFFCURVE",
"133 550 CURVE SMOOTH",
"99 550 OFFCURVE",
"72 532 OFFCURVE",
"72 482 CURVE SMOOTH",
"72 434 OFFCURVE",
"99 414 OFFCURVE",
"133 414 CURVE SMOOTH"
);
},
{
closed = 1;
nodes = (
"167 -14 OFFCURVE",
"196 6 OFFCURVE",
"196 54 CURVE SMOOTH",
"196 103 OFFCURVE",
"167 121 OFFCURVE",
"133 121 CURVE SMOOTH",
"99 121 OFFCURVE",
"72 103 OFFCURVE",
"72 54 CURVE SMOOTH",
"72 6 OFFCURVE",
"99 -14 OFFCURVE",
"133 -14 CURVE SMOOTH"
);
}
);
width = 268;
},
{
layerId = "85A3B11B-C6C2-4ADD-AADC-206FDA180DDF";
name = SemiBold;
paths = (
{
closed = 1;
nodes = (
"185 394 OFFCURVE",
"223 417 OFFCURVE",
"223 474 CURVE SMOOTH",
"223 534 OFFCURVE",
"185 555 OFFCURVE",
"141 555 CURVE SMOOTH",
"96 555 OFFCURVE",
"59 534 OFFCURVE",
"59 474 CURVE SMOOTH",
"59 417 OFFCURVE",
"96 394 OFFCURVE",
"141 394 CURVE SMOOTH"
);
},
{
closed = 1;
nodes = (
"185 -13 OFFCURVE",
"223 10 OFFCURVE",
"223 67 CURVE SMOOTH",
"223 126 OFFCURVE",
"185 148 OFFCURVE",
"141 148 CURVE SMOOTH",
"96 148 OFFCURVE",
"59 126 OFFCURVE",
"59 67 CURVE SMOOTH",
"59 10 OFFCURVE",
"96 -13 OFFCURVE",
"141 -13 CURVE SMOOTH"
);
}
);
width = 282;
},
{
layerId = "5D72C1FF-7D23-4150-B678-34DACF742A97";
name = Bold;
paths = (
{
closed = 1;
nodes = (
"200 -12 OFFCURVE",
"246 15 OFFCURVE",
"246 81 CURVE SMOOTH",
"246 150 OFFCURVE",
"200 176 OFFCURVE",
"146 176 CURVE SMOOTH",
"89 176 OFFCURVE",
"42 150 OFFCURVE",
"42 81 CURVE SMOOTH",
"42 15 OFFCURVE",
"89 -12 OFFCURVE",
"146 -12 CURVE SMOOTH"
);
},
{
closed = 1;
nodes = (
"200 373 OFFCURVE",
"246 400 OFFCURVE",
"246 467 CURVE SMOOTH",
"246 535 OFFCURVE",
"200 560 OFFCURVE",
"146 560 CURVE SMOOTH",
"89 560 OFFCURVE",
"42 535 OFFCURVE",
"42 467 CURVE SMOOTH",
"42 400 OFFCURVE",
"89 373 OFFCURVE",
"146 373 CURVE SMOOTH"
);
}
);
width = 289;
},
{
layerId = "E4D2B44F-BF62-4CBA-BED8-29547F064017";
name = "Light Condensed";
paths = (
{
closed = 1;
nodes = (
"108 461 OFFCURVE",
"116 474 OFFCURVE",
"116 497 CURVE SMOOTH",
"116 521 OFFCURVE",
"109 532 OFFCURVE",
"91 532 CURVE SMOOTH",
"70 532 OFFCURVE",
"65 516 OFFCURVE",
"65 496 CURVE SMOOTH",
"65 476 OFFCURVE",
"70 461 OFFCURVE",
"90 461 CURVE SMOOTH"
);
},
{
closed = 1;
nodes = (
"112 -5 OFFCURVE",
"116 11 OFFCURVE",
"116 31 CURVE SMOOTH",
"116 50 OFFCURVE",
"112 66 OFFCURVE",
"90 66 CURVE SMOOTH",
"69 66 OFFCURVE",
"65 50 OFFCURVE",
"65 31 CURVE SMOOTH",
"65 12 OFFCURVE",
"67 -5 OFFCURVE",
"90 -5 CURVE SMOOTH"
);
}
);
width = 180;
},
{
layerId = "0AADB627-CDB3-4A4A-B404-1AEF21746836";
name = Condensed;
paths = (
{
closed = 1;
nodes = (
"145 411 OFFCURVE",
"168 432 OFFCURVE",
"168 476 CURVE SMOOTH",
"168 518 OFFCURVE",
"149 540 OFFCURVE",
"114 540 CURVE SMOOTH",
"78 540 OFFCURVE",
"60 518 OFFCURVE",
"60 476 CURVE SMOOTH",
"60 433 OFFCURVE",
"79 411 OFFCURVE",
"114 411 CURVE SMOOTH"
);
},
{
closed = 1;
nodes = (
"145 -9 OFFCURVE",
"168 11 OFFCURVE",
"168 55 CURVE SMOOTH",
"168 100 OFFCURVE",
"147 119 OFFCURVE",
"114 119 CURVE SMOOTH",
"78 119 OFFCURVE",
"60 97 OFFCURVE",
"60 55 CURVE SMOOTH",
"60 13 OFFCURVE",
"79 -9 OFFCURVE",
"114 -9 CURVE SMOOTH"
);
}
);
width = 228;
},
{
layerId = "F54E95EF-1D6D-47A7-87BE-6145FFFB0374";
name = "SemiBold Condensed";
paths = (
{
closed = 1;
nodes = (
"172 392 OFFCURVE",
"200 419 OFFCURVE",
"200 471 CURVE SMOOTH",
"200 522 OFFCURVE",
"175 551 OFFCURVE",
"128 551 CURVE SMOOTH",
"80 551 OFFCURVE",
"54 522 OFFCURVE",
"54 471 CURVE SMOOTH",
"54 420 OFFCURVE",
"82 392 OFFCURVE",
"128 392 CURVE SMOOTH"
);
},
{
closed = 1;
nodes = (
"172 -11 OFFCURVE",
"200 17 OFFCURVE",
"200 68 CURVE SMOOTH",
"200 121 OFFCURVE",
"174 147 OFFCURVE",
"128 147 CURVE SMOOTH",
"80 147 OFFCURVE",
"54 120 OFFCURVE",
"54 68 CURVE SMOOTH",
"54 17 OFFCURVE",
"82 -11 OFFCURVE",
"128 -11 CURVE SMOOTH"
);
}
);
width = 255;
},
{
layerId = "9DAA8A68-E7B0-43B5-9380-0F5125A6FB33";
name = "Bold Condensed";
paths = (
{
closed = 1;
nodes = (
"199 -12 OFFCURVE",
"232 22 OFFCURVE",
"232 81 CURVE SMOOTH",
"232 141 OFFCURVE",
"201 176 OFFCURVE",
"142 176 CURVE SMOOTH",
"81 176 OFFCURVE",
"49 141 OFFCURVE",
"49 81 CURVE SMOOTH",
"49 22 OFFCURVE",
"84 -12 OFFCURVE",
"142 -12 CURVE SMOOTH"
);
},
{
closed = 1;
nodes = (
"199 374 OFFCURVE",
"232 408 OFFCURVE",
"232 467 CURVE SMOOTH",
"232 527 OFFCURVE",
"201 561 OFFCURVE",
"142 561 CURVE SMOOTH",
"81 561 OFFCURVE",
"49 527 OFFCURVE",
"49 467 CURVE SMOOTH",
"49 408 OFFCURVE",
"84 374 OFFCURVE",
"142 374 CURVE SMOOTH"
);
}
);
width = 281;
}
);
leftKerningGroup = colon;
unicode = 003A;
},
{
color = 6;
export = 0;
glyphname = semicolon;
lastChange = "2015-12-19 18:57:17 +0000";
layers = (
{
layerId = "F44648F3-14F4-405A-9B69-DB2444BD1A35";
name = Light;
paths = (
{
closed = 1;
nodes = (
"60 -129 LINE",
"88 -60 OFFCURVE",
"110 30 OFFCURVE",
"125 104 CURVE",
"122 116 LINE",
"94 116 LINE",
"83 40 OFFCURVE",
"67 -32 OFFCURVE",
"38 -129 CURVE"
);
},
{
closed = 1;
nodes = (
"134 470 OFFCURVE",
"137 484 OFFCURVE",
"137 501 CURVE SMOOTH",
"137 517 OFFCURVE",
"134 532 OFFCURVE",
"110 532 CURVE SMOOTH",
"90 532 OFFCURVE",
"85 517 OFFCURVE",
"85 501 CURVE SMOOTH",
"85 484 OFFCURVE",
"90 470 OFFCURVE",
"110 470 CURVE SMOOTH"
);
}
);
width = 193;
},
{
layerId = "69591BDA-B7BB-4EAA-A50D-6786E2902B45";
name = Regular;
paths = (
{
closed = 1;
nodes = (
"97 -129 LINE",
"129 -58 OFFCURVE",
"165 35 OFFCURVE",
"183 105 CURVE",
"176 116 LINE",
"82 116 LINE",
"72 46 OFFCURVE",
"50 -54 OFFCURVE",
"31 -129 CURVE"
);
},
{
closed = 1;
nodes = (
"166 414 OFFCURVE",
"194 434 OFFCURVE",
"194 482 CURVE SMOOTH",
"194 532 OFFCURVE",
"166 550 OFFCURVE",
"131 550 CURVE SMOOTH",
"97 550 OFFCURVE",
"70 532 OFFCURVE",
"70 482 CURVE SMOOTH",
"70 434 OFFCURVE",
"97 414 OFFCURVE",
"131 414 CURVE SMOOTH"
);
}
);
width = 268;
},
{
layerId = "85A3B11B-C6C2-4ADD-AADC-206FDA180DDF";
name = SemiBold;
paths = (
{
closed = 1;
nodes = (
"131 -129 LINE",
"164 -56 OFFCURVE",
"199 34 OFFCURVE",
"217 105 CURVE",
"210 116 LINE",
"80 116 LINE",
"70 47 OFFCURVE",
"50 -51 OFFCURVE",
"31 -129 CURVE"
);
},
{
closed = 1;
nodes = (
"185 394 OFFCURVE",
"222 417 OFFCURVE",
"222 474 CURVE SMOOTH",
"222 534 OFFCURVE",
"185 555 OFFCURVE",
"141 555 CURVE SMOOTH",
"95 555 OFFCURVE",
"59 534 OFFCURVE",
"59 474 CURVE SMOOTH",
"59 417 OFFCURVE",
"95 394 OFFCURVE",
"141 394 CURVE SMOOTH"
);
}
);
width = 282;
},
{
layerId = "5D72C1FF-7D23-4150-B678-34DACF742A97";
name = Bold;
paths = (
{
closed = 1;
nodes = (
"165 -139 LINE",
"198 -65 OFFCURVE",
"233 64 OFFCURVE",
"251 136 CURVE",
"244 147 LINE",
"76 147 LINE",
"67 66 OFFCURVE",
"47 -48 OFFCURVE",
"28 -139 CURVE"
);
},
{
closed = 1;
nodes = (
"202 373 OFFCURVE",
"250 400 OFFCURVE",
"250 467 CURVE SMOOTH",
"250 535 OFFCURVE",
"202 560 OFFCURVE",
"148 560 CURVE SMOOTH",
"91 560 OFFCURVE",
"45 535 OFFCURVE",
"45 467 CURVE SMOOTH",
"45 400 OFFCURVE",
"91 373 OFFCURVE",
"148 373 CURVE SMOOTH"
);
}
);
width = 297;
},
{
layerId = "E4D2B44F-BF62-4CBA-BED8-29547F064017";
name = "Light Condensed";
paths = (
{
closed = 1;
nodes = (
"59 -129 LINE",
"88 -58 OFFCURVE",
"110 26 OFFCURVE",
"121 88 CURVE",
"117 101 LINE",
"89 101 LINE",
"79 22 OFFCURVE",
"72 -13 OFFCURVE",
"38 -129 CURVE"
);
},
{
closed = 1;
nodes = (
"113 461 OFFCURVE",
"121 474 OFFCURVE",
"121 497 CURVE SMOOTH",
"121 520 OFFCURVE",
"114 532 OFFCURVE",
"95 532 CURVE SMOOTH",
"75 532 OFFCURVE",
"70 516 OFFCURVE",
"70 497 CURVE SMOOTH",
"70 476 OFFCURVE",
"75 461 OFFCURVE",
"95 461 CURVE SMOOTH"
);
}
);
width = 177;
},
{
layerId = "0AADB627-CDB3-4A4A-B404-1AEF21746836";
name = Condensed;
paths = (
{
closed = 1;
nodes = (
"98 -132 LINE",
"130 -60 OFFCURVE",
"155 19 OFFCURVE",
"174 103 CURVE",
"167 114 LINE",
"82 114 LINE",
"74 42 OFFCURVE",
"58 -50 OFFCURVE",
"36 -132 CURVE"
);
},
{
closed = 1;
nodes = (
"145 411 OFFCURVE",
"168 432 OFFCURVE",
"168 476 CURVE SMOOTH",
"168 518 OFFCURVE",
"149 540 OFFCURVE",
"114 540 CURVE SMOOTH",
"78 540 OFFCURVE",
"60 518 OFFCURVE",
"60 476 CURVE SMOOTH",
"60 433 OFFCURVE",
"79 411 OFFCURVE",
"114 411 CURVE SMOOTH"
);
}
);
width = 228;
},
{
layerId = "F54E95EF-1D6D-47A7-87BE-6145FFFB0374";
name = "SemiBold Condensed";
paths = (
{
closed = 1;
nodes = (
"132 -135 LINE",
"162 -63 OFFCURVE",
"185 22 OFFCURVE",
"202 119 CURVE",
"196 130 LINE",
"74 130 LINE",
"67 55 OFFCURVE",
"51 -55 OFFCURVE",
"33 -135 CURVE"
);
},
{
closed = 1;
nodes = (
"172 392 OFFCURVE",
"200 419 OFFCURVE",
"200 471 CURVE SMOOTH",
"200 522 OFFCURVE",
"175 551 OFFCURVE",
"128 551 CURVE SMOOTH",
"80 551 OFFCURVE",
"54 522 OFFCURVE",
"54 471 CURVE SMOOTH",
"54 420 OFFCURVE",
"82 392 OFFCURVE",
"128 392 CURVE SMOOTH"
);
}
);
width = 255;
},
{
layerId = "9DAA8A68-E7B0-43B5-9380-0F5125A6FB33";
name = "Bold Condensed";
paths = (
{
closed = 1;
nodes = (
"166 -139 LINE",
"194 -66 OFFCURVE",
"216 25 OFFCURVE",
"231 135 CURVE",
"226 146 LINE",
"67 146 LINE",
"61 69 OFFCURVE",
"46 -60 OFFCURVE",
"30 -139 CURVE"
);
},
{
closed = 1;
nodes = (
"199 374 OFFCURVE",
"232 408 OFFCURVE",
"232 467 CURVE SMOOTH",
"232 527 OFFCURVE",
"201 561 OFFCURVE",
"142 561 CURVE SMOOTH",
"81 561 OFFCURVE",
"49 527 OFFCURVE",
"49 467 CURVE SMOOTH",
"49 408 OFFCURVE",
"84 374 OFFCURVE",
"142 374 CURVE SMOOTH"
);
}
);
width = 281;
}
);
leftKerningGroup = colon;
unicode = 003B;
},
{
color = 6;
export = 0;
glyphname = less;
lastChange = "2015-12-19 18:57:17 +0000";
layers = (
{
layerId = "F44648F3-14F4-405A-9B69-DB2444BD1A35";
name = Light;
paths = (
{
closed = 1;
nodes = (
"487 164 LINE",
"64 362 LINE",
"487 560 LINE",
"487 586 LINE",
"29 371 LINE",
"29 353 LINE",
"487 138 LINE"
);
}
);
width = 517;
},
{
layerId = "69591BDA-B7BB-4EAA-A50D-6786E2902B45";
name = Regular;
paths = (
{
closed = 1;
nodes = (
"521 194 LINE",
"144 352 LINE",
"521 530 LINE",
"521 608 LINE",
"50 373 LINE",
"50 323 LINE",
"521 116 LINE"
);
}
);
width = 572;
},
{
layerId = "85A3B11B-C6C2-4ADD-AADC-206FDA180DDF";
name = SemiBold;
paths = (
{
closed = 1;
nodes = (
"527 212 LINE",
"186 353 LINE",
"527 512 LINE",
"527 622 LINE",
"44 381 LINE",
"44 315 LINE",
"527 102 LINE"
);
}
);
width = 572;
},
{
layerId = "5D72C1FF-7D23-4150-B678-34DACF742A97";
name = Bold;
paths = (
{
closed = 1;
nodes = (
"529 231 LINE",
"227 354 LINE",
"529 492 LINE",
"529 637 LINE",
"35 390 LINE",
"35 306 LINE",
"529 87 LINE"
);
}
);
width = 566;
},
{
layerId = "E4D2B44F-BF62-4CBA-BED8-29547F064017";
name = "Light Condensed";
paths = (
{
closed = 1;
nodes = (
"369 176 LINE",
"58 366 LINE",
"369 530 LINE",
"369 558 LINE",
"29 377 LINE",
"29 355 LINE",
"369 148 LINE"
);
}
);
width = 399;
},
{
layerId = "0AADB627-CDB3-4A4A-B404-1AEF21746836";
name = Condensed;
paths = (
{
closed = 1;
nodes = (
"400 210 LINE",
"121 355 LINE",
"400 500 LINE",
"400 578 LINE",
"29 380 LINE",
"29 332 LINE",
"400 132 LINE"
);
}
);
width = 430;
},
{
layerId = "F54E95EF-1D6D-47A7-87BE-6145FFFB0374";
name = "SemiBold Condensed";
paths = (
{
closed = 1;
nodes = (
"433 233 LINE",
"171 358 LINE",
"433 482 LINE",
"433 594 LINE",
"29 392 LINE",
"29 325 LINE",
"433 122 LINE"
);
}
);
width = 466;
},
{
layerId = "9DAA8A68-E7B0-43B5-9380-0F5125A6FB33";
name = "Bold Condensed";
paths = (
{
closed = 1;
nodes = (
"467 256 LINE",
"221 361 LINE",
"467 464 LINE",
"467 609 LINE",
"29 403 LINE",
"29 319 LINE",
"467 112 LINE"
);
}
);
width = 501;
}
);
unicode = 003C;
},
{
color = 6;
export = 0;
glyphname = equal;
lastChange = "2015-12-19 18:57:17 +0000";
layers = (
{
layerId = "F44648F3-14F4-405A-9B69-DB2444BD1A35";
name = Light;
paths = (
{
closed = 1;
nodes = (
"489 443 LINE",
"489 467 LINE",
"29 467 LINE",
"29 443 LINE"
);
},
{
closed = 1;
nodes = (
"489 239 LINE",
"489 263 LINE",
"29 263 LINE",
"29 239 LINE"
);
}
);
width = 519;
},
{
layerId = "69591BDA-B7BB-4EAA-A50D-6786E2902B45";
name = Regular;
paths = (
{
closed = 1;
nodes = (
"514 416 LINE",
"514 487 LINE",
"56 487 LINE",
"56 416 LINE"
);
},
{
closed = 1;
nodes = (
"514 217 LINE",
"514 288 LINE",
"56 288 LINE",
"56 217 LINE"
);
}
);
width = 572;
},
{
layerId = "85A3B11B-C6C2-4ADD-AADC-206FDA180DDF";
name = SemiBold;
paths = (
{
closed = 1;
nodes = (
"526 206 LINE",
"526 307 LINE",
"45 307 LINE",
"45 206 LINE"
);
},
{
closed = 1;
nodes = (
"526 398 LINE",
"526 498 LINE",
"45 498 LINE",
"45 398 LINE"
);
}
);
width = 572;
},
{
layerId = "5D72C1FF-7D23-4150-B678-34DACF742A97";
name = Bold;
paths = (
{
closed = 1;
nodes = (
"531 174 LINE",
"531 307 LINE",
"35 307 LINE",
"35 174 LINE"
);
},
{
closed = 1;
nodes = (
"531 398 LINE",
"531 530 LINE",
"35 530 LINE",
"35 398 LINE"
);
}
);
width = 566;
},
{
layerId = "E4D2B44F-BF62-4CBA-BED8-29547F064017";
name = "Light Condensed";
paths = (
{
closed = 1;
nodes = (
"369 447 LINE",
"369 473 LINE",
"29 473 LINE",
"29 447 LINE"
);
},
{
closed = 1;
nodes = (
"369 232 LINE",
"369 258 LINE",
"29 258 LINE",
"29 232 LINE"
);
}
);
width = 399;
},
{
layerId = "0AADB627-CDB3-4A4A-B404-1AEF21746836";
name = Condensed;
paths = (
{
closed = 1;
nodes = (
"398 425 LINE",
"398 493 LINE",
"30 493 LINE",
"30 425 LINE"
);
},
{
closed = 1;
nodes = (
"398 211 LINE",
"398 279 LINE",
"30 279 LINE",
"30 211 LINE"
);
}
);
width = 430;
},
{
layerId = "F54E95EF-1D6D-47A7-87BE-6145FFFB0374";
name = "SemiBold Condensed";
paths = (
{
closed = 1;
nodes = (
"433 193 LINE",
"433 293 LINE",
"33 293 LINE",
"33 193 LINE"
);
},
{
closed = 1;
nodes = (
"433 412 LINE",
"433 511 LINE",
"33 511 LINE",
"33 412 LINE"
);
}
);
width = 466;
},
{
layerId = "9DAA8A68-E7B0-43B5-9380-0F5125A6FB33";
name = "Bold Condensed";
paths = (
{
closed = 1;
nodes = (
"467 175 LINE",
"467 307 LINE",
"34 307 LINE",
"34 175 LINE"
);
},
{
closed = 1;
nodes = (
"467 398 LINE",
"467 529 LINE",
"34 529 LINE",
"34 398 LINE"
);
}
);
width = 501;
}
);
unicode = 003D;
},
{
color = 6;
export = 0;
glyphname = greater;
lastChange = "2015-12-19 18:57:17 +0000";
layers = (
{
layerId = "F44648F3-14F4-405A-9B69-DB2444BD1A35";
name = Light;
paths = (
{
closed = 1;
nodes = (
"487 353 LINE",
"487 371 LINE",
"29 586 LINE",
"29 560 LINE",
"452 362 LINE",
"29 164 LINE",
"29 138 LINE"
);
}
);
width = 517;
},
{
layerId = "69591BDA-B7BB-4EAA-A50D-6786E2902B45";
name = Regular;
paths = (
{
closed = 1;
nodes = (
"521 323 LINE",
"521 373 LINE",
"50 608 LINE",
"50 530 LINE",
"427 351 LINE",
"50 194 LINE",
"50 116 LINE"
);
}
);
width = 572;
},
{
layerId = "85A3B11B-C6C2-4ADD-AADC-206FDA180DDF";
name = SemiBold;
paths = (
{
closed = 1;
nodes = (
"527 315 LINE",
"527 381 LINE",
"44 622 LINE",
"44 512 LINE",
"385 353 LINE",
"44 212 LINE",
"44 102 LINE"
);
}
);
width = 572;
},
{
layerId = "5D72C1FF-7D23-4150-B678-34DACF742A97";
name = Bold;
paths = (
{
closed = 1;
nodes = (
"529 306 LINE",
"529 390 LINE",
"35 637 LINE",
"35 492 LINE",
"337 354 LINE",
"35 231 LINE",
"35 87 LINE"
);
}
);
width = 566;
},
{
layerId = "E4D2B44F-BF62-4CBA-BED8-29547F064017";
name = "Light Condensed";
paths = (
{
closed = 1;
nodes = (
"369 355 LINE",
"369 377 LINE",
"29 558 LINE",
"29 530 LINE",
"342 365 LINE",
"29 176 LINE",
"29 148 LINE"
);
}
);
width = 399;
},
{
layerId = "0AADB627-CDB3-4A4A-B404-1AEF21746836";
name = Condensed;
paths = (
{
closed = 1;
nodes = (
"401 332 LINE",
"401 380 LINE",
"30 578 LINE",
"30 500 LINE",
"309 355 LINE",
"30 210 LINE",
"30 132 LINE"
);
}
);
width = 430;
},
{
layerId = "F54E95EF-1D6D-47A7-87BE-6145FFFB0374";
name = "SemiBold Condensed";
paths = (
{
closed = 1;
nodes = (
"436 325 LINE",
"436 392 LINE",
"32 594 LINE",
"32 482 LINE",
"294 358 LINE",
"32 233 LINE",
"32 122 LINE"
);
}
);
width = 466;
},
{
layerId = "9DAA8A68-E7B0-43B5-9380-0F5125A6FB33";
name = "Bold Condensed";
paths = (
{
closed = 1;
nodes = (
"472 319 LINE",
"472 403 LINE",
"34 609 LINE",
"34 464 LINE",
"280 361 LINE",
"34 256 LINE",
"34 112 LINE"
);
}
);
width = 501;
}
);
unicode = 003E;
},
{
color = 6;
export = 0;
glyphname = question;
lastChange = "2015-12-19 18:57:17 +0000";
layers = (
{
layerId = "F44648F3-14F4-405A-9B69-DB2444BD1A35";
name = Light;
paths = (
{
closed = 1;
nodes = (
"148 174 LINE",
"148 186 LINE SMOOTH",
"148 277 OFFCURVE",
"169 314 OFFCURVE",
"221 350 CURVE SMOOTH",
"300 405 OFFCURVE",
"353 454 OFFCURVE",
"353 554 CURVE SMOOTH",
"353 668 OFFCURVE",
"279 724 OFFCURVE",
"167 724 CURVE SMOOTH",
"113 724 OFFCURVE",
"75 715 OFFCURVE",
"17 691 CURVE",
"27 665 LINE",
"75 689 OFFCURVE",
"118 699 OFFCURVE",
"167 699 CURVE SMOOTH",
"260 699 OFFCURVE",
"326 654 OFFCURVE",
"326 554 CURVE SMOOTH",
"326 463 OFFCURVE",
"280 422 OFFCURVE",
"208 371 CURVE SMOOTH",
"139 322 OFFCURVE",
"123 285 OFFCURVE",
"123 186 CURVE SMOOTH",
"123 174 LINE"
);
},
{
closed = 1;
nodes = (
"161 -8 OFFCURVE",
"164 6 OFFCURVE",
"164 23 CURVE SMOOTH",
"164 39 OFFCURVE",
"161 54 OFFCURVE",
"137 54 CURVE SMOOTH",
"117 54 OFFCURVE",
"112 39 OFFCURVE",
"112 23 CURVE SMOOTH",
"112 6 OFFCURVE",
"117 -8 OFFCURVE",
"137 -8 CURVE SMOOTH"
);
}
);
width = 376;
},
{
layerId = "69591BDA-B7BB-4EAA-A50D-6786E2902B45";
name = Regular;
paths = (
{
closed = 1;
nodes = (
"210 201 LINE",
"210 218 LINE SMOOTH",
"210 275 OFFCURVE",
"222 302 OFFCURVE",
"290 358 CURVE SMOOTH",
"363 418 OFFCURVE",
"408 459 OFFCURVE",
"408 549 CURVE SMOOTH",
"408 657 OFFCURVE",
"336 724 OFFCURVE",
"209 724 CURVE SMOOTH",
"129 724 OFFCURVE",
"65 703 OFFCURVE",
"12 675 CURVE",
"43 605 LINE",
"89 627 OFFCURVE",
"137 647 OFFCURVE",
"203 647 CURVE SMOOTH",
"281 647 OFFCURVE",
"324 611 OFFCURVE",
"324 547 CURVE SMOOTH",
"324 487 OFFCURVE",
"301 463 OFFCURVE",
"224 398 CURVE SMOOTH",
"159 343 OFFCURVE",
"140 303 OFFCURVE",
"140 228 CURVE SMOOTH",
"140 201 LINE"
);
},
{
closed = 1;
nodes = (
"212 -14 OFFCURVE",
"240 6 OFFCURVE",
"240 54 CURVE SMOOTH",
"240 103 OFFCURVE",
"212 121 OFFCURVE",
"179 121 CURVE SMOOTH",
"143 121 OFFCURVE",
"117 103 OFFCURVE",
"117 54 CURVE SMOOTH",
"117 6 OFFCURVE",
"143 -14 OFFCURVE",
"179 -14 CURVE SMOOTH"
);
}
);
width = 434;
},
{
layerId = "85A3B11B-C6C2-4ADD-AADC-206FDA180DDF";
name = SemiBold;
paths = (
{
closed = 1;
nodes = (
"255 231 LINE",
"255 258 LINE SMOOTH",
"255 302 OFFCURVE",
"268 320 OFFCURVE",
"328 365 CURVE SMOOTH",
"404 422 OFFCURVE",
"446 464 OFFCURVE",
"446 547 CURVE SMOOTH",
"446 651 OFFCURVE",
"367 724 OFFCURVE",
"230 724 CURVE SMOOTH",
"141 724 OFFCURVE",
"68 700 OFFCURVE",
"4 665 CURVE",
"54 564 LINE",
"109 592 OFFCURVE",
"162 611 OFFCURVE",
"220 611 CURVE SMOOTH",
"279 611 OFFCURVE",
"314 586 OFFCURVE",
"314 540 CURVE SMOOTH",
"314 495 OFFCURVE",
"290 470 OFFCURVE",
"227 423 CURVE SMOOTH",
"160 373 OFFCURVE",
"136 333 OFFCURVE",
"136 266 CURVE SMOOTH",
"136 231 LINE"
);
},
{
closed = 1;
nodes = (
"245 -13 OFFCURVE",
"282 10 OFFCURVE",
"282 67 CURVE SMOOTH",
"282 126 OFFCURVE",
"245 148 OFFCURVE",
"201 148 CURVE SMOOTH",
"155 148 OFFCURVE",
"119 126 OFFCURVE",
"119 67 CURVE SMOOTH",
"119 10 OFFCURVE",
"155 -13 OFFCURVE",
"201 -13 CURVE SMOOTH"
);
}
);
width = 470;
},
{
layerId = "5D72C1FF-7D23-4150-B678-34DACF742A97";
name = Bold;
paths = (
{
closed = 1;
nodes = (
"295 252 LINE",
"295 277 LINE SMOOTH",
"295 308 OFFCURVE",
"313 324 OFFCURVE",
"372 362 CURVE SMOOTH",
"455 415 OFFCURVE",
"488 469 OFFCURVE",
"488 546 CURVE SMOOTH",
"488 653 OFFCURVE",
"403 724 OFFCURVE",
"255 724 CURVE SMOOTH",
"156 724 OFFCURVE",
"73 697 OFFCURVE",
"0 655 CURVE",
"68 521 LINE",
"134 555 OFFCURVE",
"192 573 OFFCURVE",
"240 573 CURVE SMOOTH",
"280 573 OFFCURVE",
"307 556 OFFCURVE",
"307 530 CURVE SMOOTH",
"307 503 OFFCURVE",
"299 481 OFFCURVE",
"233 439 CURVE SMOOTH",
"163 395 OFFCURVE",
"144 354 OFFCURVE",
"144 295 CURVE SMOOTH",
"144 252 LINE"
);
},
{
closed = 1;
nodes = (
"282 -12 OFFCURVE",
"328 15 OFFCURVE",
"328 81 CURVE SMOOTH",
"328 150 OFFCURVE",
"282 176 OFFCURVE",
"227 176 CURVE SMOOTH",
"169 176 OFFCURVE",
"123 150 OFFCURVE",
"123 81 CURVE SMOOTH",
"123 15 OFFCURVE",
"169 -12 OFFCURVE",
"227 -12 CURVE SMOOTH"
);
}
);
width = 506;
},
{
layerId = "E4D2B44F-BF62-4CBA-BED8-29547F064017";
name = "Light Condensed";
paths = (
{
closed = 1;
nodes = (
"109 170 LINE",
"109 192 LINE SMOOTH",
"109 259 OFFCURVE",
"114 294 OFFCURVE",
"161 363 CURVE SMOOTH",
"200 420 OFFCURVE",
"240 468 OFFCURVE",
"240 565 CURVE SMOOTH",
"240 674 OFFCURVE",
"189 724 OFFCURVE",
"115 724 CURVE SMOOTH",
"76 724 OFFCURVE",
"40 710 OFFCURVE",
"17 693 CURVE",
"30 672 LINE",
"54 689 OFFCURVE",
"83 699 OFFCURVE",
"114 699 CURVE SMOOTH",
"177 699 OFFCURVE",
"213 657 OFFCURVE",
"213 567 CURVE SMOOTH",
"213 483 OFFCURVE",
"182 437 OFFCURVE",
"138 373 CURVE SMOOTH",
"96 312 OFFCURVE",
"85 274 OFFCURVE",
"85 193 CURVE SMOOTH",
"85 170 LINE"
);
},
{
closed = 1;
nodes = (
"115 -6 OFFCURVE",
"123 7 OFFCURVE",
"123 31 CURVE SMOOTH",
"123 53 OFFCURVE",
"116 65 OFFCURVE",
"98 65 CURVE SMOOTH",
"77 65 OFFCURVE",
"72 49 OFFCURVE",
"72 29 CURVE SMOOTH",
"72 9 OFFCURVE",
"77 -6 OFFCURVE",
"97 -6 CURVE SMOOTH"
);
}
);
width = 263;
},
{
layerId = "0AADB627-CDB3-4A4A-B404-1AEF21746836";
name = Condensed;
paths = (
{
closed = 1;
nodes = (
"163 201 LINE",
"163 221 LINE SMOOTH",
"163 275 OFFCURVE",
"175 306 OFFCURVE",
"215 358 CURVE SMOOTH",
"272 433 OFFCURVE",
"297 474 OFFCURVE",
"297 560 CURVE SMOOTH",
"297 665 OFFCURVE",
"243 724 OFFCURVE",
"145 724 CURVE SMOOTH",
"98 724 OFFCURVE",
"54 709 OFFCURVE",
"12 678 CURVE",
"43 614 LINE",
"76 637 OFFCURVE",
"104 650 OFFCURVE",
"141 650 CURVE SMOOTH",
"188 650 OFFCURVE",
"216 617 OFFCURVE",
"216 553 CURVE SMOOTH",
"216 495 OFFCURVE",
"199 454 OFFCURVE",
"151 394 CURVE SMOOTH",
"109 342 OFFCURVE",
"98 298 OFFCURVE",
"98 230 CURVE SMOOTH",
"98 201 LINE"
);
},
{
closed = 1;
nodes = (
"164 -9 OFFCURVE",
"186 11 OFFCURVE",
"186 55 CURVE SMOOTH",
"186 100 OFFCURVE",
"165 119 OFFCURVE",
"132 119 CURVE SMOOTH",
"97 119 OFFCURVE",
"78 97 OFFCURVE",
"78 55 CURVE SMOOTH",
"78 13 OFFCURVE",
"98 -9 OFFCURVE",
"132 -9 CURVE SMOOTH"
);
}
);
width = 318;
},
{
layerId = "F54E95EF-1D6D-47A7-87BE-6145FFFB0374";
name = "SemiBold Condensed";
paths = (
{
closed = 1;
nodes = (
"204 227 LINE",
"204 249 LINE SMOOTH",
"204 291 OFFCURVE",
"211 312 OFFCURVE",
"256 360 CURVE SMOOTH",
"314 423 OFFCURVE",
"344 467 OFFCURVE",
"344 553 CURVE SMOOTH",
"344 660 OFFCURVE",
"282 724 OFFCURVE",
"168 724 CURVE SMOOTH",
"112 724 OFFCURVE",
"59 705 OFFCURVE",
"6 666 CURVE",
"48 571 LINE",
"88 599 OFFCURVE",
"122 614 OFFCURVE",
"158 614 CURVE SMOOTH",
"201 614 OFFCURVE",
"224 589 OFFCURVE",
"224 542 CURVE SMOOTH",
"224 495 OFFCURVE",
"210 463 OFFCURVE",
"164 417 CURVE SMOOTH",
"117 370 OFFCURVE",
"103 329 OFFCURVE",
"103 263 CURVE SMOOTH",
"103 227 LINE"
);
},
{
closed = 1;
nodes = (
"199 -11 OFFCURVE",
"227 17 OFFCURVE",
"227 68 CURVE SMOOTH",
"227 121 OFFCURVE",
"200 147 OFFCURVE",
"155 147 CURVE SMOOTH",
"106 147 OFFCURVE",
"81 120 OFFCURVE",
"81 68 CURVE SMOOTH",
"81 17 OFFCURVE",
"109 -11 OFFCURVE",
"155 -11 CURVE SMOOTH"
);
}
);
width = 361;
},
{
layerId = "9DAA8A68-E7B0-43B5-9380-0F5125A6FB33";
name = "Bold Condensed";
paths = (
{
closed = 1;
nodes = (
"244 253 LINE",
"244 278 LINE SMOOTH",
"244 306 OFFCURVE",
"247 317 OFFCURVE",
"296 362 CURVE SMOOTH",
"354 415 OFFCURVE",
"389 460 OFFCURVE",
"389 546 CURVE SMOOTH",
"389 655 OFFCURVE",
"320 724 OFFCURVE",
"189 724 CURVE SMOOTH",
"126 724 OFFCURVE",
"63 701 OFFCURVE",
"0 655 CURVE",
"52 527 LINE",
"98 561 OFFCURVE",
"138 579 OFFCURVE",
"173 579 CURVE SMOOTH",
"212 579 OFFCURVE",
"230 562 OFFCURVE",
"230 532 CURVE SMOOTH",
"230 494 OFFCURVE",
"215 476 OFFCURVE",
"175 440 CURVE SMOOTH",
"126 396 OFFCURVE",
"107 360 OFFCURVE",
"107 295 CURVE SMOOTH",
"107 253 LINE"
);
},
{
closed = 1;
nodes = (
"234 -12 OFFCURVE",
"267 22 OFFCURVE",
"267 81 CURVE SMOOTH",
"267 141 OFFCURVE",
"235 176 OFFCURVE",
"176 176 CURVE SMOOTH",
"116 176 OFFCURVE",
"83 141 OFFCURVE",
"83 81 CURVE SMOOTH",
"83 22 OFFCURVE",
"119 -12 OFFCURVE",
"176 -12 CURVE SMOOTH"
);
}
);
width = 403;
}
);
unicode = 003F;
},
{
color = 6;
export = 0;
glyphname = at;
lastChange = "2015-12-19 18:58:01 +0000";
layers = (
{
layerId = "F44648F3-14F4-405A-9B69-DB2444BD1A35";
name = Light;
paths = (
{
closed = 1;
nodes = (
"492 -100 OFFCURVE",
"560 -86 OFFCURVE",
"618 -62 CURVE",
"618 -34 LINE",
"554 -61 OFFCURVE",
"483 -75 OFFCURVE",
"416 -75 CURVE SMOOTH",
"206 -75 OFFCURVE",
"81 62 OFFCURVE",
"81 284 CURVE SMOOTH",
"81 539 OFFCURVE",
"242 681 OFFCURVE",
"469 681 CURVE SMOOTH",
"685 681 OFFCURVE",
"801 549 OFFCURVE",
"801 351 CURVE SMOOTH",
"801 223 OFFCURVE",
"761 132 OFFCURVE",
"672 132 CURVE SMOOTH",
"611 132 OFFCURVE",
"589 174 OFFCURVE",
"589 246 CURVE SMOOTH",
"589 280 OFFCURVE",
"592 317 OFFCURVE",
"593 341 CURVE SMOOTH",
"600 486 LINE",
"562 499 OFFCURVE",
"520 506 OFFCURVE",
"472 506 CURVE SMOOTH",
"346 506 OFFCURVE",
"260 412 OFFCURVE",
"260 284 CURVE SMOOTH",
"260 169 OFFCURVE",
"315 107 OFFCURVE",
"413 107 CURVE SMOOTH",
"477 107 OFFCURVE",
"537 137 OFFCURVE",
"568 212 CURVE",
"569 212 LINE",
"571 145 OFFCURVE",
"612 107 OFFCURVE",
"672 107 CURVE SMOOTH",
"778 107 OFFCURVE",
"828 214 OFFCURVE",
"828 351 CURVE SMOOTH",
"828 569 OFFCURVE",
"692 706 OFFCURVE",
"469 706 CURVE SMOOTH",
"224 706 OFFCURVE",
"54 556 OFFCURVE",
"54 284 CURVE SMOOTH",
"54 49 OFFCURVE",
"192 -100 OFFCURVE",
"416 -100 CURVE SMOOTH"
);
},
{
closed = 1;
nodes = (
"328 132 OFFCURVE",
"287 188 OFFCURVE",
"287 284 CURVE SMOOTH",
"287 405 OFFCURVE",
"363 481 OFFCURVE",
"472 481 CURVE SMOOTH",
"513 481 OFFCURVE",
"545 476 OFFCURVE",
"574 466 CURVE",
"566 316 LINE SMOOTH",
"559 189 OFFCURVE",
"506 132 OFFCURVE",
"413 132 CURVE SMOOTH"
);
}
);
width = 878;
},
{
layerId = "69591BDA-B7BB-4EAA-A50D-6786E2902B45";
name = Regular;
paths = (
{
closed = 1;
nodes = (
"519 -89 OFFCURVE",
"591 -72 OFFCURVE",
"648 -48 CURVE",
"648 20 LINE",
"591 -2 OFFCURVE",
"514 -23 OFFCURVE",
"433 -23 CURVE SMOOTH",
"237 -23 OFFCURVE",
"130 86 OFFCURVE",
"130 283 CURVE SMOOTH",
"130 495 OFFCURVE",
"254 648 OFFCURVE",
"482 648 CURVE SMOOTH",
"648 648 OFFCURVE",
"771 543 OFFCURVE",
"771 358 CURVE SMOOTH",
"771 255 OFFCURVE",
"736 171 OFFCURVE",
"674 171 CURVE SMOOTH",
"641 171 OFFCURVE",
"612 187 OFFCURVE",
"612 257 CURVE SMOOTH",
"612 261 OFFCURVE",
"612 269 OFFCURVE",
"613 293 CURVE SMOOTH",
"623 496 LINE",
"591 508 OFFCURVE",
"529 520 OFFCURVE",
"470 520 CURVE SMOOTH",
"340 520 OFFCURVE",
"258 426 OFFCURVE",
"258 295 CURVE SMOOTH",
"258 183 OFFCURVE",
"315 109 OFFCURVE",
"417 109 CURVE SMOOTH",
"488 109 OFFCURVE",
"534 147 OFFCURVE",
"558 196 CURVE",
"563 196 LINE",
"571 150 OFFCURVE",
"607 109 OFFCURVE",
"668 109 CURVE SMOOTH",
"784 109 OFFCURVE",
"841 235 OFFCURVE",
"841 357 CURVE SMOOTH",
"841 578 OFFCURVE",
"690 714 OFFCURVE",
"482 714 CURVE SMOOTH",
"218 714 OFFCURVE",
"58 529 OFFCURVE",
"58 280 CURVE SMOOTH",
"58 48 OFFCURVE",
"197 -89 OFFCURVE",
"433 -89 CURVE SMOOTH"
);
},
{
closed = 1;
nodes = (
"372 171 OFFCURVE",
"336 207 OFFCURVE",
"336 293 CURVE SMOOTH",
"336 375 OFFCURVE",
"372 457 OFFCURVE",
"471 457 CURVE SMOOTH",
"499 457 OFFCURVE",
"527 452 OFFCURVE",
"545 447 CURVE",
"539 322 LINE SMOOTH",
"535 232 OFFCURVE",
"504 171 OFFCURVE",
"430 171 CURVE SMOOTH"
);
}
);
width = 899;
},
{
layerId = "85A3B11B-C6C2-4ADD-AADC-206FDA180DDF";
name = SemiBold;
paths = (
{
closed = 1;
nodes = (
"529 -85 OFFCURVE",
"608 -68 OFFCURVE",
"671 -41 CURVE",
"671 48 LINE",
"603 23 OFFCURVE",
"516 4 OFFCURVE",
"438 4 CURVE SMOOTH",
"254 4 OFFCURVE",
"153 104 OFFCURVE",
"153 287 CURVE SMOOTH",
"153 483 OFFCURVE",
"267 626 OFFCURVE",
"480 626 CURVE SMOOTH",
"632 626 OFFCURVE",
"745 529 OFFCURVE",
"745 359 CURVE SMOOTH",
"745 267 OFFCURVE",
"720 190 OFFCURVE",
"672 190 CURVE SMOOTH",
"651 190 OFFCURVE",
"631 204 OFFCURVE",
"631 261 CURVE SMOOTH",
"631 265 OFFCURVE",
"631 280 OFFCURVE",
"632 296 CURVE SMOOTH",
"642 500 LINE",
"605 513 OFFCURVE",
"532 527 OFFCURVE",
"470 527 CURVE SMOOTH",
"327 527 OFFCURVE",
"238 432 OFFCURVE",
"238 298 CURVE SMOOTH",
"238 183 OFFCURVE",
"303 106 OFFCURVE",
"420 106 CURVE SMOOTH",
"484 106 OFFCURVE",
"528 137 OFFCURVE",
"555 173 CURVE",
"562 173 LINE",
"576 134 OFFCURVE",
"615 106 OFFCURVE",
"666 106 CURVE SMOOTH",
"788 106 OFFCURVE",
"846 234 OFFCURVE",
"846 358 CURVE SMOOTH",
"846 578 OFFCURVE",
"693 714 OFFCURVE",
"479 714 CURVE SMOOTH",
"217 714 OFFCURVE",
"51 527 OFFCURVE",
"51 284 CURVE SMOOTH",
"51 52 OFFCURVE",
"195 -85 OFFCURVE",
"441 -85 CURVE SMOOTH"
);
},
{
closed = 1;
nodes = (
"379 190 OFFCURVE",
"345 221 OFFCURVE",
"345 296 CURVE SMOOTH",
"345 369 OFFCURVE",
"380 442 OFFCURVE",
"475 442 CURVE SMOOTH",
"498 442 OFFCURVE",
"519 439 OFFCURVE",
"534 436 CURVE",
"528 325 LINE SMOOTH",
"524 244 OFFCURVE",
"499 190 OFFCURVE",
"431 190 CURVE SMOOTH"
);
}
);
width = 897;
},
{
layerId = "5D72C1FF-7D23-4150-B678-34DACF742A97";
name = Bold;
paths = (
{
closed = 1;
nodes = (
"535 -75 OFFCURVE",
"621 -58 OFFCURVE",
"690 -29 CURVE",
"690 84 LINE",
"610 55 OFFCURVE",
"513 37 OFFCURVE",
"439 37 CURVE SMOOTH",
"262 37 OFFCURVE",
"173 139 OFFCURVE",
"173 296 CURVE SMOOTH",
"173 481 OFFCURVE",
"277 614 OFFCURVE",
"475 614 CURVE SMOOTH",
"643 614 OFFCURVE",
"728 519 OFFCURVE",
"728 370 CURVE SMOOTH",
"728 290 OFFCURVE",
"707 221 OFFCURVE",
"671 221 CURVE SMOOTH",
"657 221 OFFCURVE",
"647 232 OFFCURVE",
"647 262 CURVE SMOOTH",
"647 280 OFFCURVE",
"648 301 OFFCURVE",
"648 308 CURVE",
"658 514 LINE",
"616 529 OFFCURVE",
"549 544 OFFCURVE",
"484 544 CURVE SMOOTH",
"321 544 OFFCURVE",
"234 444 OFFCURVE",
"234 312 CURVE SMOOTH",
"234 193 OFFCURVE",
"295 114 OFFCURVE",
"419 114 CURVE SMOOTH",
"474 114 OFFCURVE",
"516 139 OFFCURVE",
"546 172 CURVE",
"553 172 LINE",
"578 134 OFFCURVE",
"624 114 OFFCURVE",
"672 114 CURVE SMOOTH",
"792 114 OFFCURVE",
"857 244 OFFCURVE",
"857 369 CURVE SMOOTH",
"857 588 OFFCURVE",
"704 723 OFFCURVE",
"473 723 CURVE SMOOTH",
"209 723 OFFCURVE",
"40 538 OFFCURVE",
"40 298 CURVE SMOOTH",
"40 67 OFFCURVE",
"190 -75 OFFCURVE",
"446 -75 CURVE SMOOTH"
);
},
{
closed = 1;
nodes = (
"397 221 OFFCURVE",
"372 249 OFFCURVE",
"372 313 CURVE SMOOTH",
"372 380 OFFCURVE",
"407 437 OFFCURVE",
"486 437 CURVE SMOOTH",
"498 437 OFFCURVE",
"506 436 OFFCURVE",
"519 434 CURVE",
"514 359 LINE SMOOTH",
"508 260 OFFCURVE",
"489 221 OFFCURVE",
"436 221 CURVE SMOOTH"
);
}
);
width = 897;
},
{
layerId = "E4D2B44F-BF62-4CBA-BED8-29547F064017";
name = "Light Condensed";
paths = (
{
closed = 1;
nodes = (
"335 -92 OFFCURVE",
"377 -81 OFFCURVE",
"403 -63 CURVE",
"403 -36 LINE",
"379 -53 OFFCURVE",
"331 -66 OFFCURVE",
"290 -66 CURVE SMOOTH",
"155 -66 OFFCURVE",
"81 69 OFFCURVE",
"81 292 CURVE SMOOTH",
"81 537 OFFCURVE",
"170 693 OFFCURVE",
"313 693 CURVE SMOOTH",
"445 693 OFFCURVE",
"526 562 OFFCURVE",
"526 341 CURVE SMOOTH",
"526 196 OFFCURVE",
"491 138 OFFCURVE",
"443 138 CURVE SMOOTH",
"404 138 OFFCURVE",
"384 177 OFFCURVE",
"384 239 CURVE SMOOTH",
"384 258 OFFCURVE",
"386 293 OFFCURVE",
"387 313 CURVE SMOOTH",
"395 499 LINE",
"382 504 OFFCURVE",
"353 513 OFFCURVE",
"327 513 CURVE SMOOTH",
"251 513 OFFCURVE",
"197 435 OFFCURVE",
"197 288 CURVE SMOOTH",
"197 169 OFFCURVE",
"232 112 OFFCURVE",
"285 112 CURVE SMOOTH",
"322 112 OFFCURVE",
"352 140 OFFCURVE",
"366 219 CURVE",
"368 219 LINE",
"368 155 OFFCURVE",
"390 112 OFFCURVE",
"443 112 CURVE SMOOTH",
"515 112 OFFCURVE",
"553 191 OFFCURVE",
"553 341 CURVE SMOOTH",
"553 568 OFFCURVE",
"466 718 OFFCURVE",
"314 718 CURVE SMOOTH",
"158 718 OFFCURVE",
"54 560 OFFCURVE",
"54 293 CURVE SMOOTH",
"54 61 OFFCURVE",
"132 -92 OFFCURVE",
"292 -92 CURVE SMOOTH"
);
},
{
closed = 1;
nodes = (
"246 138 OFFCURVE",
"223 194 OFFCURVE",
"223 288 CURVE SMOOTH",
"223 418 OFFCURVE",
"268 489 OFFCURVE",
"327 489 CURVE SMOOTH",
"341 489 OFFCURVE",
"356 485 OFFCURVE",
"368 481 CURVE",
"360 325 LINE SMOOTH",
"353 189 OFFCURVE",
"323 138 OFFCURVE",
"286 138 CURVE SMOOTH"
);
}
);
width = 603;
},
{
layerId = "0AADB627-CDB3-4A4A-B404-1AEF21746836";
name = Condensed;
paths = (
{
closed = 1;
nodes = (
"375 -84 OFFCURVE",
"417 -73 OFFCURVE",
"459 -51 CURVE",
"459 12 LINE",
"422 -10 OFFCURVE",
"370 -26 OFFCURVE",
"320 -26 CURVE SMOOTH",
"176 -26 OFFCURVE",
"114 118 OFFCURVE",
"114 294 CURVE SMOOTH",
"114 463 OFFCURVE",
"176 662 OFFCURVE",
"343 662 CURVE SMOOTH",
"462 662 OFFCURVE",
"539 540 OFFCURVE",
"539 364 CURVE SMOOTH",
"539 232 OFFCURVE",
"519 174 OFFCURVE",
"479 174 CURVE SMOOTH",
"452 174 OFFCURVE",
"436 194 OFFCURVE",
"436 244 CURVE SMOOTH",
"436 256 OFFCURVE",
"437 279 OFFCURVE",
"438 299 CURVE SMOOTH",
"446 507 LINE",
"415 519 OFFCURVE",
"381 525 OFFCURVE",
"348 525 CURVE SMOOTH",
"252 525 OFFCURVE",
"200 443 OFFCURVE",
"200 294 CURVE SMOOTH",
"200 179 OFFCURVE",
"239 113 OFFCURVE",
"307 113 CURVE SMOOTH",
"349 113 OFFCURVE",
"376 142 OFFCURVE",
"391 204 CURVE",
"396 204 LINE",
"402 146 OFFCURVE",
"428 113 OFFCURVE",
"481 113 CURVE SMOOTH",
"560 113 OFFCURVE",
"606 202 OFFCURVE",
"606 362 CURVE SMOOTH",
"606 559 OFFCURVE",
"509 720 OFFCURVE",
"343 720 CURVE SMOOTH",
"166 720 OFFCURVE",
"48 552 OFFCURVE",
"48 287 CURVE SMOOTH",
"48 49 OFFCURVE",
"144 -84 OFFCURVE",
"318 -84 CURVE SMOOTH"
);
},
{
closed = 1;
nodes = (
"285 174 OFFCURVE",
"268 213 OFFCURVE",
"268 292 CURVE SMOOTH",
"268 408 OFFCURVE",
"296 470 OFFCURVE",
"343 470 CURVE SMOOTH",
"356 470 OFFCURVE",
"366 469 OFFCURVE",
"375 466 CURVE",
"368 336 LINE SMOOTH",
"362 222 OFFCURVE",
"347 174 OFFCURVE",
"317 174 CURVE SMOOTH"
);
}
);
width = 651;
},
{
layerId = "F54E95EF-1D6D-47A7-87BE-6145FFFB0374";
name = "SemiBold Condensed";
paths = (
{
closed = 1;
nodes = (
"424 -80 OFFCURVE",
"480 -67 OFFCURVE",
"532 -43 CURVE",
"532 40 LINE",
"479 15 OFFCURVE",
"414 -2 OFFCURVE",
"358 -2 CURVE SMOOTH",
"204 -2 OFFCURVE",
"132 121 OFFCURVE",
"132 298 CURVE SMOOTH",
"132 481 OFFCURVE",
"208 644 OFFCURVE",
"370 644 CURVE SMOOTH",
"505 644 OFFCURVE",
"580 530 OFFCURVE",
"580 367 CURVE SMOOTH",
"580 240 OFFCURVE",
"559 192 OFFCURVE",
"523 192 CURVE SMOOTH",
"501 192 OFFCURVE",
"489 209 OFFCURVE",
"489 247 CURVE SMOOTH",
"489 263 OFFCURVE",
"490 284 OFFCURVE",
"491 303 CURVE SMOOTH",
"499 510 LINE",
"462 526 OFFCURVE",
"417 535 OFFCURVE",
"379 535 CURVE SMOOTH",
"270 535 OFFCURVE",
"206 446 OFFCURVE",
"206 303 CURVE SMOOTH",
"206 183 OFFCURVE",
"252 114 OFFCURVE",
"334 114 CURVE SMOOTH",
"375 114 OFFCURVE",
"405 139 OFFCURVE",
"427 193 CURVE",
"433 193 LINE",
"444 142 OFFCURVE",
"475 114 OFFCURVE",
"528 114 CURVE SMOOTH",
"613 114 OFFCURVE",
"670 212 OFFCURVE",
"670 365 CURVE SMOOTH",
"670 572 OFFCURVE",
"554 722 OFFCURVE",
"370 722 CURVE SMOOTH",
"175 722 OFFCURVE",
"41 555 OFFCURVE",
"41 293 CURVE SMOOTH",
"41 57 OFFCURVE",
"155 -80 OFFCURVE",
"358 -80 CURVE SMOOTH"
);
},
{
closed = 1;
nodes = (
"318 192 OFFCURVE",
"301 226 OFFCURVE",
"301 302 CURVE SMOOTH",
"301 402 OFFCURVE",
"329 459 OFFCURVE",
"376 459 CURVE SMOOTH",
"385 459 OFFCURVE",
"394 458 OFFCURVE",
"403 455 CURVE",
"397 349 LINE SMOOTH",
"391 234 OFFCURVE",
"377 192 OFFCURVE",
"346 192 CURVE SMOOTH"
);
}
);
width = 710;
},
{
layerId = "9DAA8A68-E7B0-43B5-9380-0F5125A6FB33";
name = "Bold Condensed";
paths = (
{
closed = 1;
nodes = (
"473 -75 OFFCURVE",
"541 -62 OFFCURVE",
"602 -34 CURVE",
"602 69 LINE",
"534 39 OFFCURVE",
"458 21 OFFCURVE",
"395 21 CURVE SMOOTH",
"233 21 OFFCURVE",
"149 125 OFFCURVE",
"149 302 CURVE SMOOTH",
"149 499 OFFCURVE",
"239 628 OFFCURVE",
"397 628 CURVE SMOOTH",
"546 628 OFFCURVE",
"621 521 OFFCURVE",
"621 370 CURVE SMOOTH",
"621 249 OFFCURVE",
"598 208 OFFCURVE",
"567 208 CURVE SMOOTH",
"550 208 OFFCURVE",
"540 223 OFFCURVE",
"540 250 CURVE SMOOTH",
"540 269 OFFCURVE",
"541 289 OFFCURVE",
"542 308 CURVE SMOOTH",
"550 514 LINE",
"507 533 OFFCURVE",
"453 544 OFFCURVE",
"409 544 CURVE SMOOTH",
"288 544 OFFCURVE",
"212 448 OFFCURVE",
"212 312 CURVE SMOOTH",
"212 187 OFFCURVE",
"265 114 OFFCURVE",
"361 114 CURVE SMOOTH",
"401 114 OFFCURVE",
"435 136 OFFCURVE",
"462 182 CURVE",
"469 182 LINE",
"485 138 OFFCURVE",
"522 114 OFFCURVE",
"574 114 CURVE SMOOTH",
"665 114 OFFCURVE",
"734 221 OFFCURVE",
"734 369 CURVE SMOOTH",
"734 583 OFFCURVE",
"598 723 OFFCURVE",
"397 723 CURVE SMOOTH",
"182 723 OFFCURVE",
"34 558 OFFCURVE",
"34 298 CURVE SMOOTH",
"34 65 OFFCURVE",
"165 -75 OFFCURVE",
"397 -75 CURVE SMOOTH"
);
},
{
closed = 1;
nodes = (
"350 208 OFFCURVE",
"333 239 OFFCURVE",
"333 311 CURVE SMOOTH",
"333 397 OFFCURVE",
"363 449 OFFCURVE",
"408 449 CURVE SMOOTH",
"415 449 OFFCURVE",
"422 448 OFFCURVE",
"431 445 CURVE",
"427 361 LINE SMOOTH",
"421 245 OFFCURVE",
"408 208 OFFCURVE",
"376 208 CURVE SMOOTH"
);
}
);
width = 768;
}
);
unicode = 0040;
},
{
color = 6;
export = 0;
glyphname = A;
lastChange = "2015-12-19 18:58:01 +0000";
layers = (
{
layerId = "F44648F3-14F4-405A-9B69-DB2444BD1A35";
name = Light;
paths = (
{
closed = 1;
nodes = (
"28 0 LINE",
"135 271 LINE",
"445 271 LINE",
"549 0 LINE",
"577 0 LINE",
"307 716 LINE",
"282 716 LINE",
"0 0 LINE"
);
},
{
closed = 1;
nodes = (
"260 593 LINE SMOOTH",
"270 620 OFFCURVE",
"283 652 OFFCURVE",
"293 682 CURVE",
"306 645 OFFCURVE",
"317 617 OFFCURVE",
"325 594 CURVE SMOOTH",
"435 296 LINE",
"144 296 LINE"
);
}
);
width = 577;
},
{
layerId = "69591BDA-B7BB-4EAA-A50D-6786E2902B45";
name = Regular;
paths = (
{
closed = 1;
nodes = (
"91 0 LINE",
"176 221 LINE",
"459 221 LINE",
"545 0 LINE",
"638 0 LINE",
"360 717 LINE",
"279 717 LINE",
"0 0 LINE"
);
},
{
closed = 1;
nodes = (
"286 517 LINE SMOOTH",
"294 540 OFFCURVE",
"308 583 OFFCURVE",
"318 624 CURVE",
"325 599 OFFCURVE",
"346 533 OFFCURVE",
"352 517 CURVE SMOOTH",
"432 301 LINE",
"206 301 LINE"
);
}
);
width = 639;
},
{
layerId = "85A3B11B-C6C2-4ADD-AADC-206FDA180DDF";
name = SemiBold;
paths = (
{
closed = 1;
nodes = (
"151 0 LINE",
"209 178 LINE",
"472 178 LINE",
"530 0 LINE",
"681 0 LINE",
"424 717 LINE",
"256 717 LINE",
"0 0 LINE"
);
},
{
closed = 1;
nodes = (
"301 472 LINE SMOOTH",
"308 494 OFFCURVE",
"331 569 OFFCURVE",
"341 609 CURVE",
"350 571 OFFCURVE",
"371 501 OFFCURVE",
"381 471 CURVE SMOOTH",
"438 298 LINE",
"245 298 LINE"
);
}
);
width = 682;
},
{
layerId = "5D72C1FF-7D23-4150-B678-34DACF742A97";
name = Bold;
paths = (
{
closed = 1;
nodes = (
"213 0 LINE",
"249 133 LINE",
"480 133 LINE",
"515 0 LINE",
"727 0 LINE",
"491 717 LINE",
"233 717 LINE",
"0 0 LINE"
);
},
{
closed = 1;
nodes = (
"319 407 LINE SMOOTH",
"331 454 OFFCURVE",
"354 550 OFFCURVE",
"363 599 CURVE",
"372 550 OFFCURVE",
"400 446 OFFCURVE",
"410 408 CURVE SMOOTH",
"440 292 LINE",
"289 292 LINE"
);
}
);
width = 727;
},
{
layerId = "E4D2B44F-BF62-4CBA-BED8-29547F064017";
name = "Light Condensed";
paths = (
{
closed = 1;
nodes = (
"26 0 LINE",
"94 281 LINE",
"284 281 LINE",
"351 0 LINE",
"377 0 LINE",
"208 714 LINE",
"170 714 LINE",
"0 0 LINE"
);
},
{
closed = 1;
nodes = (
"170 612 LINE SMOOTH",
"178 646 OFFCURVE",
"183 666 OFFCURVE",
"189 695 CURVE",
"195 666 OFFCURVE",
"200 645 OFFCURVE",
"208 612 CURVE SMOOTH",
"278 306 LINE",
"100 306 LINE"
);
}
);
width = 377;
},
{
layerId = "0AADB627-CDB3-4A4A-B404-1AEF21746836";
name = Condensed;
paths = (
{
closed = 1;
nodes = (
"90 0 LINE",
"142 223 LINE",
"309 223 LINE",
"361 0 LINE",
"450 0 LINE",
"274 714 LINE",
"173 714 LINE",
"0 0 LINE"
);
},
{
closed = 1;
nodes = (
"206 536 LINE SMOOTH",
"214 571 OFFCURVE",
"220 607 OFFCURVE",
"223 638 CURVE",
"227 607 OFFCURVE",
"232 571 OFFCURVE",
"240 534 CURVE SMOOTH",
"293 301 LINE",
"155 301 LINE"
);
}
);
width = 450;
},
{
layerId = "F54E95EF-1D6D-47A7-87BE-6145FFFB0374";
name = "SemiBold Condensed";
paths = (
{
closed = 1;
nodes = (
"138 0 LINE",
"177 180 LINE",
"337 180 LINE",
"377 0 LINE",
"514 0 LINE",
"338 714 LINE",
"173 714 LINE",
"0 0 LINE"
);
},
{
closed = 1;
nodes = (
"236 491 LINE SMOOTH",
"245 535 OFFCURVE",
"253 579 OFFCURVE",
"256 613 CURVE",
"261 578 OFFCURVE",
"268 534 OFFCURVE",
"277 489 CURVE SMOOTH",
"317 293 LINE",
"197 293 LINE"
);
}
);
width = 514;
},
{
layerId = "9DAA8A68-E7B0-43B5-9380-0F5125A6FB33";
name = "Bold Condensed";
paths = (
{
closed = 1;
nodes = (
"185 0 LINE",
"212 138 LINE",
"366 138 LINE",
"392 0 LINE",
"575 0 LINE",
"399 714 LINE",
"174 714 LINE",
"0 0 LINE"
);
},
{
closed = 1;
nodes = (
"267 446 LINE SMOOTH",
"277 499 OFFCURVE",
"285 550 OFFCURVE",
"289 589 CURVE",
"294 548 OFFCURVE",
"303 497 OFFCURVE",
"312 444 CURVE SMOOTH",
"339 285 LINE",
"237 285 LINE"
);
}
);
width = 575;
}
);
leftKerningGroup = A.right;
rightKerningGroup = A.left;
unicode = 0041;
},
{
color = 6;
export = 0;
glyphname = B;
lastChange = "2015-12-19 18:58:01 +0000";
layers = (
{
layerId = "F44648F3-14F4-405A-9B69-DB2444BD1A35";
name = Light;
paths = (
{
closed = 1;
nodes = (
"278 0 LINE SMOOTH",
"424 0 OFFCURVE",
"532 56 OFFCURVE",
"532 203 CURVE SMOOTH",
"532 293 OFFCURVE",
"491 357 OFFCURVE",
"373 375 CURVE",
"373 377 LINE",
"465 393 OFFCURVE",
"514 461 OFFCURVE",
"514 542 CURVE SMOOTH",
"514 657 OFFCURVE",
"444 714 OFFCURVE",
"269 714 CURVE SMOOTH",
"78 714 LINE",
"78 0 LINE"
);
},
{
closed = 1;
nodes = (
"104 363 LINE",
"275 363 LINE SMOOTH",
"418 363 OFFCURVE",
"505 325 OFFCURVE",
"505 202 CURVE SMOOTH",
"505 79 OFFCURVE",
"422 25 OFFCURVE",
"286 25 CURVE SMOOTH",
"104 25 LINE"
);
},
{
closed = 1;
nodes = (
"104 689 LINE",
"266 689 LINE SMOOTH",
"421 689 OFFCURVE",
"487 646 OFFCURVE",
"487 541 CURVE SMOOTH",
"487 440 OFFCURVE",
"419 388 OFFCURVE",
"278 388 CURVE SMOOTH",
"104 388 LINE"
);
}
);
width = 571;
},
{
layerId = "69591BDA-B7BB-4EAA-A50D-6786E2902B45";
name = Regular;
paths = (
{
closed = 1;
nodes = (
"348 0 LINE SMOOTH",
"501 0 OFFCURVE",
"596 73 OFFCURVE",
"596 203 CURVE SMOOTH",
"596 314 OFFCURVE",
"526 359 OFFCURVE",
"436 374 CURVE",
"436 379 LINE",
"524 395 OFFCURVE",
"572 453 OFFCURVE",
"572 537 CURVE SMOOTH",
"572 667 OFFCURVE",
"479 714 OFFCURVE",
"301 714 CURVE SMOOTH",
"97 714 LINE",
"97 0 LINE"
);
},
{
closed = 1;
nodes = (
"187 335 LINE",
"324 335 LINE SMOOTH",
"456 335 OFFCURVE",
"500 285 OFFCURVE",
"500 210 CURVE SMOOTH",
"500 130 OFFCURVE",
"457 76 OFFCURVE",
"331 76 CURVE SMOOTH",
"187 76 LINE"
);
},
{
closed = 1;
nodes = (
"187 637 LINE",
"305 637 LINE SMOOTH",
"426 637 OFFCURVE",
"479 605 OFFCURVE",
"479 527 CURVE SMOOTH",
"479 450 OFFCURVE",
"441 410 OFFCURVE",
"319 410 CURVE SMOOTH",
"187 410 LINE"
);
}
);
width = 650;
},
{
layerId = "85A3B11B-C6C2-4ADD-AADC-206FDA180DDF";
name = SemiBold;
paths = (
{
closed = 1;
nodes = (
"356 0 LINE SMOOTH",
"516 0 OFFCURVE",
"615 76 OFFCURVE",
"615 206 CURVE SMOOTH",
"615 318 OFFCURVE",
"556 359 OFFCURVE",
"482 374 CURVE",
"482 379 LINE",
"555 392 OFFCURVE",
"596 452 OFFCURVE",
"596 534 CURVE SMOOTH",
"596 667 OFFCURVE",
"498 714 OFFCURVE",
"310 714 CURVE SMOOTH",
"91 714 LINE",
"91 0 LINE"
);
},
{
closed = 1;
nodes = (
"232 315 LINE",
"333 315 LINE SMOOTH",
"435 315 OFFCURVE",
"468 277 OFFCURVE",
"468 220 CURVE SMOOTH",
"468 158 OFFCURVE",
"435 117 OFFCURVE",
"339 117 CURVE SMOOTH",
"232 117 LINE"
);
},
{
closed = 1;
nodes = (
"232 598 LINE",
"318 598 LINE SMOOTH",
"410 598 OFFCURVE",
"451 574 OFFCURVE",
"451 515 CURVE SMOOTH",
"451 458 OFFCURVE",
"421 428 OFFCURVE",
"327 428 CURVE SMOOTH",
"232 428 LINE"
);
}
);
width = 668;
},
{
layerId = "5D72C1FF-7D23-4150-B678-34DACF742A97";
name = Bold;
paths = (
{
closed = 1;
nodes = (
"355 0 LINE SMOOTH",
"523 0 OFFCURVE",
"627 79 OFFCURVE",
"627 209 CURVE SMOOTH",
"627 323 OFFCURVE",
"559 359 OFFCURVE",
"501 374 CURVE",
"501 379 LINE",
"554 392 OFFCURVE",
"613 442 OFFCURVE",
"613 536 CURVE SMOOTH",
"613 651 OFFCURVE",
"533 714 OFFCURVE",
"326 714 CURVE SMOOTH",
"77 714 LINE",
"77 0 LINE"
);
},
{
closed = 1;
nodes = (
"271 299 LINE",
"334 299 LINE SMOOTH",
"405 299 OFFCURVE",
"427 263 OFFCURVE",
"427 225 CURVE SMOOTH",
"427 181 OFFCURVE",
"404 150 OFFCURVE",
"338 150 CURVE SMOOTH",
"271 150 LINE"
);
},
{
closed = 1;
nodes = (
"271 567 LINE",
"324 567 LINE SMOOTH",
"385 567 OFFCURVE",
"414 546 OFFCURVE",
"414 508 CURVE SMOOTH",
"414 470 OFFCURVE",
"391 440 OFFCURVE",
"328 440 CURVE SMOOTH",
"271 440 LINE"
);
}
);
width = 674;
},
{
layerId = "E4D2B44F-BF62-4CBA-BED8-29547F064017";
name = "Light Condensed";
paths = (
{
closed = 1;
nodes = (
"224 0 LINE SMOOTH",
"332 0 OFFCURVE",
"391 75 OFFCURVE",
"391 197 CURVE SMOOTH",
"391 293 OFFCURVE",
"355 356 OFFCURVE",
"274 376 CURVE",
"274 377 LINE",
"339 390 OFFCURVE",
"376 458 OFFCURVE",
"376 550 CURVE SMOOTH",
"376 659 OFFCURVE",
"324 714 OFFCURVE",
"217 714 CURVE SMOOTH",
"78 714 LINE",
"78 0 LINE"
);
},
{
closed = 1;
nodes = (
"104 363 LINE",
"213 363 LINE SMOOTH",
"301 363 OFFCURVE",
"364 322 OFFCURVE",
"364 198 CURVE SMOOTH",
"364 81 OFFCURVE",
"308 25 OFFCURVE",
"217 25 CURVE SMOOTH",
"104 25 LINE"
);
},
{
closed = 1;
nodes = (
"104 689 LINE",
"203 689 LINE SMOOTH",
"313 689 OFFCURVE",
"349 644 OFFCURVE",
"349 550 CURVE SMOOTH",
"349 441 OFFCURVE",
"301 388 OFFCURVE",
"210 388 CURVE SMOOTH",
"104 388 LINE"
);
}
);
width = 430;
},
{
layerId = "0AADB627-CDB3-4A4A-B404-1AEF21746836";
name = Condensed;
paths = (
{
closed = 1;
nodes = (
"256 0 LINE SMOOTH",
"373 0 OFFCURVE",
"438 81 OFFCURVE",
"438 205 CURVE SMOOTH",
"438 301 OFFCURVE",
"401 355 OFFCURVE",
"321 374 CURVE",
"321 378 LINE",
"388 393 OFFCURVE",
"424 450 OFFCURVE",
"424 542 CURVE SMOOTH",
"424 657 OFFCURVE",
"357 714 OFFCURVE",
"231 714 CURVE SMOOTH",
"73 714 LINE",
"73 0 LINE"
);
},
{
closed = 1;
nodes = (
"157 337 LINE",
"237 337 LINE SMOOTH",
"309 337 OFFCURVE",
"351 292 OFFCURVE",
"351 209 CURVE SMOOTH",
"351 118 OFFCURVE",
"316 73 OFFCURVE",
"247 73 CURVE SMOOTH",
"157 73 LINE"
);
},
{
closed = 1;
nodes = (
"157 642 LINE",
"230 642 LINE SMOOTH",
"301 642 OFFCURVE",
"338 604 OFFCURVE",
"338 534 CURVE SMOOTH",
"338 450 OFFCURVE",
"306 408 OFFCURVE",
"231 408 CURVE SMOOTH",
"157 408 LINE"
);
}
);
width = 477;
},
{
layerId = "F54E95EF-1D6D-47A7-87BE-6145FFFB0374";
name = "SemiBold Condensed";
paths = (
{
closed = 1;
nodes = (
"271 0 LINE SMOOTH",
"401 0 OFFCURVE",
"477 80 OFFCURVE",
"477 207 CURVE SMOOTH",
"477 298 OFFCURVE",
"444 353 OFFCURVE",
"367 374 CURVE",
"367 379 LINE",
"428 395 OFFCURVE",
"464 453 OFFCURVE",
"464 539 CURVE SMOOTH",
"464 657 OFFCURVE",
"392 714 OFFCURVE",
"249 714 CURVE SMOOTH",
"65 714 LINE",
"65 0 LINE"
);
},
{
closed = 1;
nodes = (
"194 319 LINE",
"255 319 LINE SMOOTH",
"313 319 OFFCURVE",
"346 283 OFFCURVE",
"346 217 CURVE SMOOTH",
"346 144 OFFCURVE",
"318 108 OFFCURVE",
"260 108 CURVE SMOOTH",
"194 108 LINE"
);
},
{
closed = 1;
nodes = (
"194 609 LINE",
"247 609 LINE SMOOTH",
"305 609 OFFCURVE",
"335 578 OFFCURVE",
"335 521 CURVE SMOOTH",
"335 456 OFFCURVE",
"307 422 OFFCURVE",
"249 422 CURVE SMOOTH",
"194 422 LINE"
);
}
);
width = 519;
},
{
layerId = "9DAA8A68-E7B0-43B5-9380-0F5125A6FB33";
name = "Bold Condensed";
paths = (
{
closed = 1;
nodes = (
"286 0 LINE SMOOTH",
"429 0 OFFCURVE",
"517 80 OFFCURVE",
"517 209 CURVE SMOOTH",
"517 296 OFFCURVE",
"486 351 OFFCURVE",
"412 374 CURVE",
"412 379 LINE",
"468 396 OFFCURVE",
"505 457 OFFCURVE",
"505 536 CURVE SMOOTH",
"505 658 OFFCURVE",
"428 714 OFFCURVE",
"266 714 CURVE SMOOTH",
"59 714 LINE",
"59 0 LINE"
);
},
{
closed = 1;
nodes = (
"230 303 LINE",
"271 303 LINE SMOOTH",
"317 303 OFFCURVE",
"342 274 OFFCURVE",
"342 223 CURVE SMOOTH",
"342 168 OFFCURVE",
"319 142 OFFCURVE",
"273 142 CURVE SMOOTH",
"230 142 LINE"
);
},
{
closed = 1;
nodes = (
"230 575 LINE",
"263 575 LINE SMOOTH",
"309 575 OFFCURVE",
"332 554 OFFCURVE",
"332 510 CURVE SMOOTH",
"332 461 OFFCURVE",
"308 436 OFFCURVE",
"266 436 CURVE SMOOTH",
"230 436 LINE"
);
}
);
width = 559;
}
);
unicode = 0042;
},
{
color = 6;
export = 0;
glyphname = C;
lastChange = "2015-12-19 18:58:01 +0000";
layers = (
{
layerId = "F44648F3-14F4-405A-9B69-DB2444BD1A35";
name = Light;
paths = (
{
closed = 1;
nodes = (
"456 -10 OFFCURVE",
"517 4 OFFCURVE",
"561 21 CURVE",
"561 44 LINE",
"513 27 OFFCURVE",
"454 15 OFFCURVE",
"377 15 CURVE SMOOTH",
"180 15 OFFCURVE",
"81 153 OFFCURVE",
"81 360 CURVE SMOOTH",
"81 555 OFFCURVE",
"195 699 OFFCURVE",
"396 699 CURVE SMOOTH",
"451 699 OFFCURVE",
"507 692 OFFCURVE",
"564 662 CURVE",
"574 687 LINE",
"519 712 OFFCURVE",
"461 724 OFFCURVE",
"396 724 CURVE SMOOTH",
"182 724 OFFCURVE",
"54 568 OFFCURVE",
"54 360 CURVE SMOOTH",
"54 139 OFFCURVE",
"165 -10 OFFCURVE",
"377 -10 CURVE SMOOTH"
);
}
);
width = 598;
},
{
layerId = "69591BDA-B7BB-4EAA-A50D-6786E2902B45";
name = Regular;
paths = (
{
closed = 1;
nodes = (
"468 -10 OFFCURVE",
"520 -1 OFFCURVE",
"573 19 CURVE",
"573 97 LINE",
"519 81 OFFCURVE",
"464 69 OFFCURVE",
"402 69 CURVE SMOOTH",
"238 69 OFFCURVE",
"156 180 OFFCURVE",
"156 357 CURVE SMOOTH",
"156 536 OFFCURVE",
"250 645 OFFCURVE",
"403 645 CURVE SMOOTH",
"467 645 OFFCURVE",
"521 626 OFFCURVE",
"565 606 CURVE",
"601 682 LINE",
"547 709 OFFCURVE",
"477 724 OFFCURVE",
"404 724 CURVE SMOOTH",
"183 724 OFFCURVE",
"61 574 OFFCURVE",
"61 358 CURVE SMOOTH",
"61 133 OFFCURVE",
"170 -10 OFFCURVE",
"389 -10 CURVE SMOOTH"
);
}
);
width = 632;
},
{
layerId = "85A3B11B-C6C2-4ADD-AADC-206FDA180DDF";
name = SemiBold;
paths = (
{
closed = 1;
nodes = (
"457 -10 OFFCURVE",
"513 1 OFFCURVE",
"575 26 CURVE",
"575 145 LINE",
"509 122 OFFCURVE",
"453 108 OFFCURVE",
"394 108 CURVE SMOOTH",
"263 108 OFFCURVE",
"204 199 OFFCURVE",
"204 355 CURVE SMOOTH",
"204 510 OFFCURVE",
"273 606 OFFCURVE",
"395 606 CURVE SMOOTH",
"449 606 OFFCURVE",
"503 584 OFFCURVE",
"555 560 CURVE",
"602 675 LINE",
"539 706 OFFCURVE",
"466 724 OFFCURVE",
"395 724 CURVE SMOOTH",
"178 724 OFFCURVE",
"58 572 OFFCURVE",
"58 356 CURVE SMOOTH",
"58 136 OFFCURVE",
"160 -10 OFFCURVE",
"381 -10 CURVE SMOOTH"
);
}
);
width = 636;
},
{
layerId = "5D72C1FF-7D23-4150-B678-34DACF742A97";
name = Bold;
paths = (
{
closed = 1;
nodes = (
"459 -10 OFFCURVE",
"524 2 OFFCURVE",
"587 30 CURVE",
"587 194 LINE",
"528 169 OFFCURVE",
"469 149 OFFCURVE",
"406 149 CURVE SMOOTH",
"301 149 OFFCURVE",
"250 219 OFFCURVE",
"250 354 CURVE SMOOTH",
"250 487 OFFCURVE",
"305 565 OFFCURVE",
"395 565 CURVE SMOOTH",
"455 565 OFFCURVE",
"507 546 OFFCURVE",
"559 521 CURVE",
"618 674 LINE",
"545 709 OFFCURVE",
"466 724 OFFCURVE",
"397 724 CURVE SMOOTH",
"174 724 OFFCURVE",
"51 571 OFFCURVE",
"51 355 CURVE SMOOTH",
"51 138 OFFCURVE",
"152 -10 OFFCURVE",
"385 -10 CURVE SMOOTH"
);
}
);
width = 649;
},
{
layerId = "E4D2B44F-BF62-4CBA-BED8-29547F064017";
name = "Light Condensed";
paths = (
{
closed = 1;
nodes = (
"327 -10 OFFCURVE",
"365 1 OFFCURVE",
"390 16 CURVE",
"390 43 LINE",
"370 31 OFFCURVE",
"334 15 OFFCURVE",
"289 15 CURVE SMOOTH",
"161 15 OFFCURVE",
"81 154 OFFCURVE",
"81 357 CURVE SMOOTH",
"81 529 OFFCURVE",
"136 699 OFFCURVE",
"285 699 CURVE SMOOTH",
"312 699 OFFCURVE",
"346 693 OFFCURVE",
"378 673 CURVE",
"391 696 LINE",
"357 715 OFFCURVE",
"323 724 OFFCURVE",
"285 724 CURVE SMOOTH",
"117 724 OFFCURVE",
"54 548 OFFCURVE",
"54 358 CURVE SMOOTH",
"54 131 OFFCURVE",
"147 -10 OFFCURVE",
"289 -10 CURVE SMOOTH"
);
}
);
width = 415;
},
{
layerId = "0AADB627-CDB3-4A4A-B404-1AEF21746836";
name = Condensed;
paths = (
{
closed = 1;
nodes = (
"333 -10 OFFCURVE",
"372 -1 OFFCURVE",
"404 17 CURVE",
"404 93 LINE",
"372 77 OFFCURVE",
"337 66 OFFCURVE",
"297 66 CURVE SMOOTH",
"199 66 OFFCURVE",
"137 176 OFFCURVE",
"137 357 CURVE SMOOTH",
"137 512 OFFCURVE",
"182 649 OFFCURVE",
"292 649 CURVE SMOOTH",
"329 649 OFFCURVE",
"362 637 OFFCURVE",
"392 618 CURVE",
"422 689 LINE",
"381 713 OFFCURVE",
"337 725 OFFCURVE",
"289 725 CURVE SMOOTH",
"128 725 OFFCURVE",
"50 561 OFFCURVE",
"50 358 CURVE SMOOTH",
"50 127 OFFCURVE",
"141 -10 OFFCURVE",
"287 -10 CURVE SMOOTH"
);
}
);
width = 446;
},
{
layerId = "F54E95EF-1D6D-47A7-87BE-6145FFFB0374";
name = "SemiBold Condensed";
paths = (
{
closed = 1;
nodes = (
"347 -10 OFFCURVE",
"393 2 OFFCURVE",
"432 24 CURVE",
"432 138 LINE",
"395 118 OFFCURVE",
"356 102 OFFCURVE",
"313 102 CURVE SMOOTH",
"227 102 OFFCURVE",
"177 193 OFFCURVE",
"177 355 CURVE SMOOTH",
"177 502 OFFCURVE",
"218 613 OFFCURVE",
"306 613 CURVE SMOOTH",
"347 613 OFFCURVE",
"381 599 OFFCURVE",
"415 575 CURVE",
"453 681 LINE",
"404 710 OFFCURVE",
"353 724 OFFCURVE",
"297 724 CURVE SMOOTH",
"134 724 OFFCURVE",
"44 568 OFFCURVE",
"44 356 CURVE SMOOTH",
"44 123 OFFCURVE",
"136 -10 OFFCURVE",
"295 -10 CURVE SMOOTH"
);
}
);
width = 477;
},
{
layerId = "9DAA8A68-E7B0-43B5-9380-0F5125A6FB33";
name = "Bold Condensed";
paths = (
{
closed = 1;
nodes = (
"360 -10 OFFCURVE",
"413 3 OFFCURVE",
"460 30 CURVE",
"460 183 LINE",
"416 158 OFFCURVE",
"374 138 OFFCURVE",
"328 138 CURVE SMOOTH",
"254 138 OFFCURVE",
"217 209 OFFCURVE",
"217 354 CURVE SMOOTH",
"217 493 OFFCURVE",
"254 577 OFFCURVE",
"320 577 CURVE SMOOTH",
"363 577 OFFCURVE",
"400 560 OFFCURVE",
"438 533 CURVE",
"484 674 LINE",
"426 708 OFFCURVE",
"368 724 OFFCURVE",
"305 724 CURVE SMOOTH",
"140 724 OFFCURVE",
"39 575 OFFCURVE",
"39 355 CURVE SMOOTH",
"39 119 OFFCURVE",
"131 -10 OFFCURVE",
"301 -10 CURVE SMOOTH"
);
}
);
width = 508;
}
);
leftKerningGroup = O.right;
rightKerningGroup = C.left;
unicode = 0043;
},
{
color = 6;
export = 0;
glyphname = D;
lastChange = "2015-12-19 18:58:01 +0000";
layers = (
{
layerId = "F44648F3-14F4-405A-9B69-DB2444BD1A35";
name = Light;
paths = (
{
closed = 1;
nodes = (
"232 0 LINE SMOOTH",
"482 0 OFFCURVE",
"603 125 OFFCURVE",
"603 364 CURVE SMOOTH",
"603 591 OFFCURVE",
"491 714 OFFCURVE",
"255 714 CURVE SMOOTH",
"78 714 LINE",
"78 0 LINE"
);
},
{
closed = 1;
nodes = (
"104 689 LINE",
"245 689 LINE SMOOTH",
"477 689 OFFCURVE",
"576 575 OFFCURVE",
"576 363 CURVE SMOOTH",
"576 136 OFFCURVE",
"464 25 OFFCURVE",
"235 25 CURVE SMOOTH",
"104 25 LINE"
);
}
);
width = 657;
},
{
layerId = "69591BDA-B7BB-4EAA-A50D-6786E2902B45";
name = Regular;
paths = (
{
closed = 1;
nodes = (
"296 0 LINE SMOOTH",
"531 0 OFFCURVE",
"669 123 OFFCURVE",
"669 364 CURVE SMOOTH",
"669 593 OFFCURVE",
"532 714 OFFCURVE",
"317 714 CURVE SMOOTH",
"97 714 LINE",
"97 0 LINE"
);
},
{
closed = 1;
nodes = (
"187 637 LINE",
"304 637 LINE SMOOTH",
"476 637 OFFCURVE",
"574 551 OFFCURVE",
"574 361 CURVE SMOOTH",
"574 173 OFFCURVE",
"477 77 OFFCURVE",
"284 77 CURVE SMOOTH",
"187 77 LINE"
);
}
);
width = 730;
},
{
layerId = "85A3B11B-C6C2-4ADD-AADC-206FDA180DDF";
name = SemiBold;
paths = (
{
closed = 1;
nodes = (
"293 0 LINE SMOOTH",
"537 0 OFFCURVE",
"680 123 OFFCURVE",
"680 364 CURVE SMOOTH",
"680 593 OFFCURVE",
"537 714 OFFCURVE",
"314 714 CURVE SMOOTH",
"91 714 LINE",
"91 0 LINE"
);
},
{
closed = 1;
nodes = (
"232 598 LINE",
"319 598 LINE SMOOTH",
"458 598 OFFCURVE",
"533 523 OFFCURVE",
"533 360 CURVE SMOOTH",
"533 199 OFFCURVE",
"458 117 OFFCURVE",
"302 117 CURVE SMOOTH",
"232 117 LINE"
);
}
);
width = 738;
},
{
layerId = "5D72C1FF-7D23-4150-B678-34DACF742A97";
name = Bold;
paths = (
{
closed = 1;
nodes = (
"308 0 LINE SMOOTH",
"535 0 OFFCURVE",
"683 123 OFFCURVE",
"683 372 CURVE SMOOTH",
"683 593 OFFCURVE",
"554 714 OFFCURVE",
"324 714 CURVE SMOOTH",
"77 714 LINE",
"77 0 LINE"
);
},
{
closed = 1;
nodes = (
"271 557 LINE",
"326 557 LINE SMOOTH",
"430 557 OFFCURVE",
"482 494 OFFCURVE",
"482 365 CURVE SMOOTH",
"482 226 OFFCURVE",
"429 159 OFFCURVE",
"313 159 CURVE SMOOTH",
"271 159 LINE"
);
}
);
width = 734;
},
{
layerId = "E4D2B44F-BF62-4CBA-BED8-29547F064017";
name = "Light Condensed";
paths = (
{
closed = 1;
nodes = (
"189 0 LINE SMOOTH",
"349 0 OFFCURVE",
"418 124 OFFCURVE",
"418 364 CURVE SMOOTH",
"418 596 OFFCURVE",
"349 714 OFFCURVE",
"190 714 CURVE SMOOTH",
"78 714 LINE",
"78 0 LINE"
);
},
{
closed = 1;
nodes = (
"104 689 LINE",
"188 689 LINE SMOOTH",
"339 689 OFFCURVE",
"391 570 OFFCURVE",
"391 362 CURVE SMOOTH",
"391 141 OFFCURVE",
"331 25 OFFCURVE",
"187 25 CURVE SMOOTH",
"104 25 LINE"
);
}
);
width = 472;
},
{
layerId = "0AADB627-CDB3-4A4A-B404-1AEF21746836";
name = Condensed;
paths = (
{
closed = 1;
nodes = (
"217 0 LINE SMOOTH",
"381 0 OFFCURVE",
"467 125 OFFCURVE",
"467 366 CURVE SMOOTH",
"467 593 OFFCURVE",
"382 714 OFFCURVE",
"223 714 CURVE SMOOTH",
"73 714 LINE",
"73 0 LINE"
);
},
{
closed = 1;
nodes = (
"157 639 LINE",
"220 639 LINE SMOOTH",
"325 639 OFFCURVE",
"379 546 OFFCURVE",
"379 362 CURVE SMOOTH",
"379 172 OFFCURVE",
"328 75 OFFCURVE",
"214 75 CURVE SMOOTH",
"157 75 LINE"
);
}
);
width = 516;
},
{
layerId = "F54E95EF-1D6D-47A7-87BE-6145FFFB0374";
name = "SemiBold Condensed";
paths = (
{
closed = 1;
nodes = (
"230 0 LINE SMOOTH",
"409 0 OFFCURVE",
"508 130 OFFCURVE",
"508 369 CURVE SMOOTH",
"508 593 OFFCURVE",
"412 714 OFFCURVE",
"239 714 CURVE SMOOTH",
"65 714 LINE",
"65 0 LINE"
);
},
{
closed = 1;
nodes = (
"194 602 LINE",
"237 602 LINE SMOOTH",
"328 602 OFFCURVE",
"376 528 OFFCURVE",
"376 364 CURVE SMOOTH",
"376 195 OFFCURVE",
"330 113 OFFCURVE",
"228 113 CURVE SMOOTH",
"194 113 LINE"
);
}
);
width = 552;
},
{
layerId = "9DAA8A68-E7B0-43B5-9380-0F5125A6FB33";
name = "Bold Condensed";
paths = (
{
closed = 1;
nodes = (
"243 0 LINE SMOOTH",
"438 0 OFFCURVE",
"549 135 OFFCURVE",
"549 372 CURVE SMOOTH",
"549 593 OFFCURVE",
"443 714 OFFCURVE",
"255 714 CURVE SMOOTH",
"59 714 LINE",
"59 0 LINE"
);
},
{
closed = 1;
nodes = (
"230 566 LINE",
"252 566 LINE SMOOTH",
"332 566 OFFCURVE",
"372 510 OFFCURVE",
"372 365 CURVE SMOOTH",
"372 216 OFFCURVE",
"332 149 OFFCURVE",
"242 149 CURVE SMOOTH",
"230 149 LINE"
);
}
);
width = 588;
}
);
rightKerningGroup = O.left;
unicode = 0044;
},
{
color = 6;
export = 0;
glyphname = E;
lastChange = "2015-12-19 18:58:01 +0000";
layers = (
{
layerId = "F44648F3-14F4-405A-9B69-DB2444BD1A35";
name = Light;
paths = (
{
closed = 1;
nodes = (
"463 0 LINE",
"463 25 LINE",
"104 25 LINE",
"104 364 LINE",
"443 364 LINE",
"443 389 LINE",
"104 389 LINE",
"104 689 LINE",
"463 689 LINE",
"463 714 LINE",
"78 714 LINE",
"78 0 LINE"
);
}
);
width = 511;
},
{
layerId = "69591BDA-B7BB-4EAA-A50D-6786E2902B45";
name = Regular;
paths = (
{
closed = 1;
nodes = (
"496 0 LINE",
"496 79 LINE",
"187 79 LINE",
"187 334 LINE",
"478 334 LINE",
"478 412 LINE",
"187 412 LINE",
"187 635 LINE",
"496 635 LINE",
"496 714 LINE",
"97 714 LINE",
"97 0 LINE"
);
}
);
width = 556;
},
{
layerId = "85A3B11B-C6C2-4ADD-AADC-206FDA180DDF";
name = SemiBold;
paths = (
{
closed = 1;
nodes = (
"500 0 LINE",
"500 117 LINE",
"232 117 LINE",
"232 313 LINE",
"482 313 LINE",
"482 430 LINE",
"232 430 LINE",
"232 597 LINE",
"500 597 LINE",
"500 714 LINE",
"91 714 LINE",
"91 0 LINE"
);
}
);
width = 559;
},
{
layerId = "5D72C1FF-7D23-4150-B678-34DACF742A97";
name = Bold;
paths = (
{
closed = 1;
nodes = (
"501 0 LINE",
"501 158 LINE",
"271 158 LINE",
"271 292 LINE",
"484 292 LINE",
"484 447 LINE",
"271 447 LINE",
"271 558 LINE",
"501 558 LINE",
"501 714 LINE",
"77 714 LINE",
"77 0 LINE"
);
}
);
width = 549;
},
{
layerId = "E4D2B44F-BF62-4CBA-BED8-29547F064017";
name = "Light Condensed";
paths = (
{
closed = 1;
nodes = (
"333 0 LINE",
"333 25 LINE",
"104 25 LINE",
"104 363 LINE",
"320 363 LINE",
"320 388 LINE",
"104 388 LINE",
"104 689 LINE",
"333 689 LINE",
"333 714 LINE",
"78 714 LINE",
"78 0 LINE"
);
}
);
width = 381;
},
{
layerId = "0AADB627-CDB3-4A4A-B404-1AEF21746836";
name = Condensed;
paths = (
{
closed = 1;
nodes = (
"357 0 LINE",
"357 76 LINE",
"157 76 LINE",
"157 335 LINE",
"345 335 LINE",
"345 410 LINE",
"157 410 LINE",
"157 639 LINE",
"357 639 LINE",
"357 714 LINE",
"73 714 LINE",
"73 0 LINE"
);
}
);
width = 402;
},
{
layerId = "F54E95EF-1D6D-47A7-87BE-6145FFFB0374";
name = "SemiBold Condensed";
paths = (
{
closed = 1;
nodes = (
"380 0 LINE",
"380 112 LINE",
"194 112 LINE",
"194 316 LINE",
"368 316 LINE",
"368 426 LINE",
"194 426 LINE",
"194 604 LINE",
"380 604 LINE",
"380 714 LINE",
"65 714 LINE",
"65 0 LINE"
);
}
);
width = 423;
},
{
layerId = "9DAA8A68-E7B0-43B5-9380-0F5125A6FB33";
name = "Bold Condensed";
paths = (
{
closed = 1;
nodes = (
"403 0 LINE",
"403 147 LINE",
"230 147 LINE",
"230 297 LINE",
"390 297 LINE",
"390 441 LINE",
"230 441 LINE",
"230 569 LINE",
"403 569 LINE",
"403 714 LINE",
"59 714 LINE",
"59 0 LINE"
);
}
);
width = 443;
}
);
rightKerningGroup = E.left;
unicode = 0045;
},
{
color = 6;
export = 0;
glyphname = F;
lastChange = "2015-12-19 18:58:01 +0000";
layers = (
{
layerId = "F44648F3-14F4-405A-9B69-DB2444BD1A35";
name = Light;
paths = (
{
closed = 1;
nodes = (
"104 0 LINE",
"104 329 LINE",
"445 329 LINE",
"445 354 LINE",
"104 354 LINE",
"104 689 LINE",
"464 689 LINE",
"464 714 LINE",
"78 714 LINE",
"78 0 LINE"
);
}
);
width = 482;
},
{
layerId = "69591BDA-B7BB-4EAA-A50D-6786E2902B45";
name = Regular;
paths = (
{
closed = 1;
nodes = (
"187 0 LINE",
"187 303 LINE",
"477 303 LINE",
"477 382 LINE",
"187 382 LINE",
"187 635 LINE",
"496 635 LINE",
"496 714 LINE",
"97 714 LINE",
"97 0 LINE"
);
}
);
width = 519;
},
{
layerId = "85A3B11B-C6C2-4ADD-AADC-206FDA180DDF";
name = SemiBold;
paths = (
{
closed = 1;
nodes = (
"230 0 LINE",
"230 285 LINE",
"480 285 LINE",
"480 402 LINE",
"230 402 LINE",
"230 597 LINE",
"499 597 LINE",
"499 714 LINE",
"91 714 LINE",
"91 0 LINE"
);
}
);
width = 544;
},
{
layerId = "5D72C1FF-7D23-4150-B678-34DACF742A97";
name = Bold;
paths = (
{
closed = 1;
nodes = (
"268 0 LINE",
"268 268 LINE",
"481 268 LINE",
"481 423 LINE",
"268 423 LINE",
"268 558 LINE",
"499 558 LINE",
"499 714 LINE",
"77 714 LINE",
"77 0 LINE"
);
}
);
width = 539;
},
{
layerId = "E4D2B44F-BF62-4CBA-BED8-29547F064017";
name = "Light Condensed";
paths = (
{
closed = 1;
nodes = (
"104 0 LINE",
"104 329 LINE",
"322 329 LINE",
"322 354 LINE",
"104 354 LINE",
"104 689 LINE",
"334 689 LINE",
"334 714 LINE",
"78 714 LINE",
"78 0 LINE"
);
}
);
width = 352;
},
{
layerId = "0AADB627-CDB3-4A4A-B404-1AEF21746836";
name = Condensed;
paths = (
{
closed = 1;
nodes = (
"157 0 LINE",
"157 305 LINE",
"345 305 LINE",
"345 381 LINE",
"157 381 LINE",
"157 639 LINE",
"357 639 LINE",
"357 714 LINE",
"73 714 LINE",
"73 0 LINE"
);
}
);
width = 380;
},
{
layerId = "F54E95EF-1D6D-47A7-87BE-6145FFFB0374";
name = "SemiBold Condensed";
paths = (
{
closed = 1;
nodes = (
"194 0 LINE",
"194 289 LINE",
"367 289 LINE",
"367 399 LINE",
"194 399 LINE",
"194 604 LINE",
"379 604 LINE",
"379 714 LINE",
"65 714 LINE",
"65 0 LINE"
);
}
);
width = 408;
},
{
layerId = "9DAA8A68-E7B0-43B5-9380-0F5125A6FB33";
name = "Bold Condensed";
paths = (
{
closed = 1;
nodes = (
"230 0 LINE",
"230 273 LINE",
"388 273 LINE",
"388 417 LINE",
"230 417 LINE",
"230 569 LINE",
"401 569 LINE",
"401 714 LINE",
"59 714 LINE",
"59 0 LINE"
);
}
);
width = 437;
}
);
unicode = 0046;
},
{
color = 6;
export = 0;
glyphname = G;
lastChange = "2015-12-19 18:58:01 +0000";
layers = (
{
layerId = "F44648F3-14F4-405A-9B69-DB2444BD1A35";
name = Light;
paths = (
{
closed = 1;
nodes = (
"487 -10 OFFCURVE",
"566 5 OFFCURVE",
"630 36 CURVE",
"630 350 LINE",
"358 350 LINE",
"358 325 LINE",
"604 325 LINE",
"604 50 LINE",
"552 28 OFFCURVE",
"487 15 OFFCURVE",
"410 15 CURVE SMOOTH",
"210 15 OFFCURVE",
"81 114 OFFCURVE",
"81 356 CURVE SMOOTH",
"81 554 OFFCURVE",
"207 701 OFFCURVE",
"414 701 CURVE SMOOTH",
"478 701 OFFCURVE",
"542 690 OFFCURVE",
"610 657 CURVE",
"622 682 LINE",
"559 713 OFFCURVE",
"491 726 OFFCURVE",
"415 726 CURVE SMOOTH",
"190 726 OFFCURVE",
"54 566 OFFCURVE",
"54 355 CURVE SMOOTH",
"54 121 OFFCURVE",
"177 -10 OFFCURVE",
"408 -10 CURVE SMOOTH"
);
}
);
width = 686;
},
{
layerId = "69591BDA-B7BB-4EAA-A50D-6786E2902B45";
name = Regular;
paths = (
{
closed = 1;
nodes = (
"503 -10 OFFCURVE",
"577 2 OFFCURVE",
"654 27 CURVE",
"654 377 LINE",
"407 377 LINE",
"407 297 LINE",
"564 297 LINE",
"564 85 LINE",
"528 76 OFFCURVE",
"487 68 OFFCURVE",
"424 68 CURVE SMOOTH",
"232 68 OFFCURVE",
"155 186 OFFCURVE",
"155 357 CURVE SMOOTH",
"155 535 OFFCURVE",
"255 645 OFFCURVE",
"426 645 CURVE SMOOTH",
"494 645 OFFCURVE",
"559 626 OFFCURVE",
"610 604 CURVE",
"644 682 LINE",
"583 708 OFFCURVE",
"511 724 OFFCURVE",
"431 724 CURVE SMOOTH",
"197 724 OFFCURVE",
"61 580 OFFCURVE",
"61 357 CURVE SMOOTH",
"61 131 OFFCURVE",
"181 -10 OFFCURVE",
"403 -10 CURVE SMOOTH"
);
}
);
width = 728;
},
{
layerId = "85A3B11B-C6C2-4ADD-AADC-206FDA180DDF";
name = SemiBold;
paths = (
{
closed = 1;
nodes = (
"494 -10 OFFCURVE",
"570 5 OFFCURVE",
"646 30 CURVE",
"646 397 LINE",
"369 397 LINE",
"369 279 LINE",
"507 279 LINE",
"507 119 LINE",
"480 114 OFFCURVE",
"450 108 OFFCURVE",
"404 108 CURVE SMOOTH",
"262 108 OFFCURVE",
"204 210 OFFCURVE",
"204 355 CURVE SMOOTH",
"204 507 OFFCURVE",
"291 606 OFFCURVE",
"429 606 CURVE SMOOTH",
"491 606 OFFCURVE",
"551 588 OFFCURVE",
"596 566 CURVE",
"643 680 LINE",
"583 706 OFFCURVE",
"508 724 OFFCURVE",
"431 724 CURVE SMOOTH",
"192 724 OFFCURVE",
"58 582 OFFCURVE",
"58 358 CURVE SMOOTH",
"58 120 OFFCURVE",
"178 -10 OFFCURVE",
"392 -10 CURVE SMOOTH"
);
}
);
width = 725;
},
{
layerId = "5D72C1FF-7D23-4150-B678-34DACF742A97";
name = Bold;
paths = (
{
closed = 1;
nodes = (
"500 -10 OFFCURVE",
"599 8 OFFCURVE",
"673 33 CURVE",
"673 418 LINE",
"364 418 LINE",
"364 269 LINE",
"491 269 LINE",
"491 158 LINE",
"474 154 OFFCURVE",
"435 150 OFFCURVE",
"412 150 CURVE SMOOTH",
"309 150 OFFCURVE",
"251 221 OFFCURVE",
"251 354 CURVE SMOOTH",
"251 469 OFFCURVE",
"299 565 OFFCURVE",
"427 565 CURVE SMOOTH",
"490 565 OFFCURVE",
"545 552 OFFCURVE",
"596 527 CURVE",
"657 679 LINE",
"598 705 OFFCURVE",
"515 724 OFFCURVE",
"426 724 CURVE SMOOTH",
"182 724 OFFCURVE",
"51 583 OFFCURVE",
"51 359 CURVE SMOOTH",
"51 109 OFFCURVE",
"190 -10 OFFCURVE",
"396 -10 CURVE SMOOTH"
);
}
);
width = 740;
},
{
layerId = "E4D2B44F-BF62-4CBA-BED8-29547F064017";
name = "Light Condensed";
paths = (
{
closed = 1;
nodes = (
"355 -10 OFFCURVE",
"415 1 OFFCURVE",
"464 24 CURVE",
"464 351 LINE",
"298 351 LINE",
"298 326 LINE",
"439 326 LINE",
"439 40 LINE",
"402 26 OFFCURVE",
"354 15 OFFCURVE",
"309 15 CURVE SMOOTH",
"149 15 OFFCURVE",
"80 157 OFFCURVE",
"80 354 CURVE SMOOTH",
"80 556 OFFCURVE",
"152 699 OFFCURVE",
"314 699 CURVE SMOOTH",
"355 699 OFFCURVE",
"398 690 OFFCURVE",
"443 658 CURVE",
"457 680 LINE",
"408 713 OFFCURVE",
"362 724 OFFCURVE",
"314 724 CURVE SMOOTH",
"138 724 OFFCURVE",
"54 574 OFFCURVE",
"54 354 CURVE SMOOTH",
"54 143 OFFCURVE",
"132 -10 OFFCURVE",
"308 -10 CURVE SMOOTH"
);
}
);
width = 520;
},
{
layerId = "0AADB627-CDB3-4A4A-B404-1AEF21746836";
name = Condensed;
paths = (
{
closed = 1;
nodes = (
"369 -10 OFFCURVE",
"432 2 OFFCURVE",
"491 25 CURVE",
"491 377 LINE",
"308 377 LINE",
"308 302 LINE",
"409 302 LINE",
"409 81 LINE",
"381 71 OFFCURVE",
"348 66 OFFCURVE",
"311 66 CURVE SMOOTH",
"188 66 OFFCURVE",
"138 192 OFFCURVE",
"138 357 CURVE SMOOTH",
"138 547 OFFCURVE",
"202 649 OFFCURVE",
"322 649 CURVE SMOOTH",
"366 649 OFFCURVE",
"409 635 OFFCURVE",
"453 607 CURVE",
"483 678 LINE",
"435 708 OFFCURVE",
"380 724 OFFCURVE",
"320 724 CURVE SMOOTH",
"138 724 OFFCURVE",
"50 572 OFFCURVE",
"50 359 CURVE SMOOTH",
"50 148 OFFCURVE",
"129 -10 OFFCURVE",
"304 -10 CURVE SMOOTH"
);
}
);
width = 545;
},
{
layerId = "F54E95EF-1D6D-47A7-87BE-6145FFFB0374";
name = "SemiBold Condensed";
paths = (
{
closed = 1;
nodes = (
"382 -10 OFFCURVE",
"451 3 OFFCURVE",
"518 29 CURVE",
"518 398 LINE",
"301 398 LINE",
"301 289 LINE",
"392 289 LINE",
"392 114 LINE",
"370 106 OFFCURVE",
"345 102 OFFCURVE",
"318 102 CURVE SMOOTH",
"221 102 OFFCURVE",
"177 203 OFFCURVE",
"177 355 CURVE SMOOTH",
"177 522 OFFCURVE",
"232 613 OFFCURVE",
"338 613 CURVE SMOOTH",
"384 613 OFFCURVE",
"428 599 OFFCURVE",
"470 573 CURVE",
"508 679 LINE",
"461 706 OFFCURVE",
"401 724 OFFCURVE",
"333 724 CURVE SMOOTH",
"146 724 OFFCURVE",
"44 580 OFFCURVE",
"44 359 CURVE SMOOTH",
"44 135 OFFCURVE",
"133 -10 OFFCURVE",
"309 -10 CURVE SMOOTH"
);
}
);
width = 569;
},
{
layerId = "9DAA8A68-E7B0-43B5-9380-0F5125A6FB33";
name = "Bold Condensed";
paths = (
{
closed = 1;
nodes = (
"394 -10 OFFCURVE",
"470 4 OFFCURVE",
"545 33 CURVE",
"545 418 LINE",
"295 418 LINE",
"295 276 LINE",
"377 276 LINE",
"377 146 LINE",
"360 141 OFFCURVE",
"342 138 OFFCURVE",
"324 138 CURVE SMOOTH",
"254 138 OFFCURVE",
"217 213 OFFCURVE",
"217 354 CURVE SMOOTH",
"217 498 OFFCURVE",
"263 577 OFFCURVE",
"353 577 CURVE SMOOTH",
"402 577 OFFCURVE",
"447 564 OFFCURVE",
"486 539 CURVE",
"534 679 LINE",
"487 705 OFFCURVE",
"421 724 OFFCURVE",
"347 724 CURVE SMOOTH",
"153 724 OFFCURVE",
"39 588 OFFCURVE",
"39 359 CURVE SMOOTH",
"39 123 OFFCURVE",
"138 -10 OFFCURVE",
"314 -10 CURVE SMOOTH"
);
}
);
width = 593;
}
);
leftKerningGroup = O.right;
unicode = 0047;
},
{
color = 6;
export = 0;
glyphname = H;
lastChange = "2015-12-19 18:58:01 +0000";
layers = (
{
layerId = "5D72C1FF-7D23-4150-B678-34DACF742A97";
name = Bold;
paths = (
{
closed = 1;
nodes = (
"272 0 LINE",
"272 291 LINE",
"494 291 LINE",
"494 0 LINE",
"689 0 LINE",
"689 714 LINE",
"494 714 LINE",
"494 449 LINE",
"272 449 LINE",
"272 714 LINE",
"77 714 LINE",
"77 0 LINE"
);
}
);
width = 766;
},
{
layerId = "9DAA8A68-E7B0-43B5-9380-0F5125A6FB33";
name = "Bold Condensed";
paths = (
{
closed = 1;
nodes = (
"230 0 LINE",
"230 298 LINE",
"380 298 LINE",
"380 0 LINE",
"551 0 LINE",
"551 714 LINE",
"380 714 LINE",
"380 444 LINE",
"230 444 LINE",
"230 714 LINE",
"59 714 LINE",
"59 0 LINE"
);
}
);
width = 610;
},
{
layerId = "69591BDA-B7BB-4EAA-A50D-6786E2902B45";
name = Regular;
paths = (
{
closed = 1;
nodes = (
"187 0 LINE",
"187 333 LINE",
"553 333 LINE",
"553 0 LINE",
"643 0 LINE",
"643 714 LINE",
"553 714 LINE",
"553 412 LINE",
"187 412 LINE",
"187 714 LINE",
"97 714 LINE",
"97 0 LINE"
);
}
);
width = 741;
},
{
layerId = "85A3B11B-C6C2-4ADD-AADC-206FDA180DDF";
name = SemiBold;
paths = (
{
closed = 1;
nodes = (
"232 0 LINE",
"232 312 LINE",
"529 312 LINE",
"529 0 LINE",
"670 0 LINE",
"670 714 LINE",
"529 714 LINE",
"529 430 LINE",
"232 430 LINE",
"232 714 LINE",
"91 714 LINE",
"91 0 LINE"
);
}
);
width = 761;
},
{
layerId = "0AADB627-CDB3-4A4A-B404-1AEF21746836";
name = Condensed;
paths = (
{
closed = 1;
nodes = (
"157 0 LINE",
"157 335 LINE",
"377 335 LINE",
"377 0 LINE",
"461 0 LINE",
"461 714 LINE",
"377 714 LINE",
"377 411 LINE",
"157 411 LINE",
"157 714 LINE",
"73 714 LINE",
"73 0 LINE"
);
}
);
width = 533;
},
{
layerId = "F54E95EF-1D6D-47A7-87BE-6145FFFB0374";
name = "SemiBold Condensed";
paths = (
{
closed = 1;
nodes = (
"194 0 LINE",
"194 316 LINE",
"378 316 LINE",
"378 0 LINE",
"506 0 LINE",
"506 714 LINE",
"378 714 LINE",
"378 428 LINE",
"194 428 LINE",
"194 714 LINE",
"65 714 LINE",
"65 0 LINE"
);
}
);
width = 571;
},
{
layerId = "F44648F3-14F4-405A-9B69-DB2444BD1A35";
name = Light;
paths = (
{
closed = 1;
nodes = (
"104 0 LINE",
"104 363 LINE",
"552 363 LINE",
"552 0 LINE",
"578 0 LINE",
"578 714 LINE",
"552 714 LINE",
"552 388 LINE",
"104 388 LINE",
"104 714 LINE",
"78 714 LINE",
"78 0 LINE"
);
}
);
width = 656;
},
{
layerId = "E4D2B44F-BF62-4CBA-BED8-29547F064017";
name = "Light Condensed";
paths = (
{
closed = 1;
nodes = (
"104 0 LINE",
"104 363 LINE",
"382 363 LINE",
"382 0 LINE",
"408 0 LINE",
"408 714 LINE",
"382 714 LINE",
"382 388 LINE",
"104 388 LINE",
"104 714 LINE",
"78 714 LINE",
"78 0 LINE"
);
}
);
width = 486;
}
);
unicode = 0048;
},
{
color = 6;
export = 0;
glyphname = I;
lastChange = "2015-12-19 18:58:01 +0000";
layers = (
{
layerId = "F44648F3-14F4-405A-9B69-DB2444BD1A35";
name = Light;
paths = (
{
closed = 1;
nodes = (
"200 0 LINE",
"200 20 LINE",
"132 23 LINE",
"132 690 LINE",
"200 694 LINE",
"200 714 LINE",
"38 714 LINE",
"38 694 LINE",
"106 690 LINE",
"106 23 LINE",
"38 20 LINE",
"38 0 LINE"
);
}
);
width = 238;
},
{
layerId = "69591BDA-B7BB-4EAA-A50D-6786E2902B45";
name = Regular;
paths = (
{
closed = 1;
nodes = (
"298 0 LINE",
"298 52 LINE",
"214 71 LINE",
"214 642 LINE",
"298 662 LINE",
"298 714 LINE",
"40 714 LINE",
"40 662 LINE",
"124 642 LINE",
"124 71 LINE",
"40 52 LINE",
"40 0 LINE"
);
}
);
width = 339;
},
{
layerId = "85A3B11B-C6C2-4ADD-AADC-206FDA180DDF";
name = SemiBold;
paths = (
{
closed = 1;
nodes = (
"347 0 LINE",
"347 80 LINE",
"261 117 LINE",
"261 597 LINE",
"347 634 LINE",
"347 714 LINE",
"33 714 LINE",
"33 634 LINE",
"120 597 LINE",
"120 117 LINE",
"33 80 LINE",
"33 0 LINE"
);
}
);
width = 381;
},
{
layerId = "5D72C1FF-7D23-4150-B678-34DACF742A97";
name = Bold;
paths = (
{
closed = 1;
nodes = (
"407 0 LINE",
"407 111 LINE",
"318 144 LINE",
"318 571 LINE",
"407 603 LINE",
"407 714 LINE",
"34 714 LINE",
"34 603 LINE",
"123 571 LINE",
"123 144 LINE",
"34 111 LINE",
"34 0 LINE"
);
}
);
width = 441;
},
{
layerId = "E4D2B44F-BF62-4CBA-BED8-29547F064017";
name = "Light Condensed";
paths = (
{
closed = 1;
nodes = (
"181 0 LINE",
"181 19 LINE",
"123 22 LINE",
"123 691 LINE",
"181 695 LINE",
"181 714 LINE",
"38 714 LINE",
"38 695 LINE",
"98 691 LINE",
"98 22 LINE",
"38 19 LINE",
"38 0 LINE"
);
}
);
width = 219;
},
{
layerId = "0AADB627-CDB3-4A4A-B404-1AEF21746836";
name = Condensed;
paths = (
{
closed = 1;
nodes = (
"248 0 LINE",
"248 48 LINE",
"183 65 LINE",
"183 649 LINE",
"248 666 LINE",
"248 714 LINE",
"34 714 LINE",
"34 666 LINE",
"99 649 LINE",
"99 65 LINE",
"34 48 LINE",
"34 0 LINE"
);
}
);
width = 283;
},
{
layerId = "F54E95EF-1D6D-47A7-87BE-6145FFFB0374";
name = "SemiBold Condensed";
paths = (
{
closed = 1;
nodes = (
"290 0 LINE",
"290 70 LINE",
"224 96 LINE",
"224 618 LINE",
"290 644 LINE",
"290 714 LINE",
"30 714 LINE",
"30 644 LINE",
"96 618 LINE",
"96 96 LINE",
"30 70 LINE",
"30 0 LINE"
);
}
);
width = 319;
},
{
layerId = "9DAA8A68-E7B0-43B5-9380-0F5125A6FB33";
name = "Bold Condensed";
paths = (
{
closed = 1;
nodes = (
"330 0 LINE",
"330 91 LINE",
"263 127 LINE",
"263 587 LINE",
"330 623 LINE",
"330 714 LINE",
"25 714 LINE",
"25 623 LINE",
"92 587 LINE",
"92 127 LINE",
"25 91 LINE",
"25 0 LINE"
);
}
);
width = 355;
}
);
unicode = 0049;
},
